<?xml version="1.0" encoding="utf-8"?>
<!-- Generator: Adobe Illustrator 16.0.0, SVG Export Plug-In . SVG Version: 6.00 Build 0)  -->
<!DOCTYPE svg PUBLIC "-//W3C//DTD SVG 1.1//EN" "http://www.w3.org/Graphics/SVG/1.1/DTD/svg11.dtd">
<svg version="1.1" id="Layer_7" xmlns="http://www.w3.org/2000/svg" xmlns:xlink="http://www.w3.org/1999/xlink" x="0px" y="0px"
	 width="667px" height="671px" viewBox="0 0 667 671" enable-background="new 0 0 667 671" xml:space="preserve">
<polyline fill="none" stroke="#22B14C" stroke-width="50" stroke-miterlimit="10" points="1458.783,1116.073 2132.578,1789.868 
	2806.373,1116.073 "/>
<g>
	<g>
		<g>
			<g>
				<polygon fill="none" stroke="#22B14C" stroke-width="10" stroke-miterlimit="10" points="1291.982,2583.638 1233.485,2583.638 
					1233.485,2153.061 1233.485,2017.562 1291.982,2017.562 				"/>
				<g>
					<g>
						<path fill="none" stroke="#22B14C" stroke-width="10" stroke-miterlimit="10" d="M1223.733,2153.166c-6.627,0-12-5.372-12-12
							v-176c0-6.627,5.373-12,12-12h78c6.628,0,12,5.373,12,12v176c0,6.628-5.372,12-12,12"/>
						<path fill="none" stroke="#22B14C" stroke-width="10" stroke-miterlimit="10" d="M1183.959,2074.916
							c-12.012,0-21.75-9.737-21.75-21.75c0-12.012,9.738-21.75,21.75-21.75"/>
						
							<rect x="1313.733" y="2010.666" fill="none" stroke="#22B14C" stroke-width="10" stroke-miterlimit="10" width="33.226" height="85"/>
						
							<rect x="1183.959" y="2010.666" fill="none" stroke="#22B14C" stroke-width="10" stroke-miterlimit="10" width="27.774" height="85"/>
						
							<rect x="1346.959" y="2029.833" fill="none" stroke="#22B14C" stroke-width="10" stroke-miterlimit="10" width="21" height="46.667"/>
					</g>
					
						<line fill="none" stroke="#22B14C" stroke-width="10" stroke-miterlimit="10" x1="1223.733" y1="2153.166" x2="1233.485" y2="2153.166"/>
					
						<line fill="none" stroke="#22B14C" stroke-width="10" stroke-miterlimit="10" x1="1301.733" y1="2153.166" x2="1291.982" y2="2153.166"/>
				</g>
				<g>
					<g>
						<path fill="none" stroke="#22B14C" stroke-width="10" stroke-miterlimit="10" d="M1223.733,2448.032c-6.628,0-12,5.372-12,12
							v176.001c0,6.626,5.373,11.999,11.999,11.999h78c6.628,0,12.001-5.373,12-12l0.001-176c0-6.628-5.372-12-12-12"/>
						<path fill="none" stroke="#22B14C" stroke-width="10" stroke-miterlimit="10" d="M1183.959,2526.282
							c-12.013,0-21.75,9.737-21.75,21.75s9.737,21.75,21.75,21.75"/>
						
							<rect x="1313.733" y="2505.533" fill="none" stroke="#22B14C" stroke-width="10" stroke-miterlimit="10" width="33.225" height="84.999"/>
						
							<rect x="1183.959" y="2505.533" fill="none" stroke="#22B14C" stroke-width="10" stroke-miterlimit="10" width="27.774" height="85"/>
						
							<rect x="1346.959" y="2524.699" fill="none" stroke="#22B14C" stroke-width="10" stroke-miterlimit="10" width="20.999" height="46.666"/>
					</g>
					
						<line fill="none" stroke="#22B14C" stroke-width="10" stroke-miterlimit="10" x1="1223.733" y1="2448.032" x2="1233.485" y2="2448.032"/>
					
						<line fill="none" stroke="#22B14C" stroke-width="10" stroke-miterlimit="10" x1="1301.733" y1="2448.032" x2="1291.981" y2="2448.032"/>
				</g>
			</g>
			<g>
				<polygon fill="none" stroke="#22B14C" stroke-width="10" stroke-miterlimit="10" points="1750.763,2583.638 1809.26,2583.638 
					1809.26,2153.061 1809.26,2017.562 1750.763,2017.562 				"/>
				<g>
					<g>
						<path fill="none" stroke="#22B14C" stroke-width="10" stroke-miterlimit="10" d="M1819.011,2153.166c6.628,0,12-5.372,12-12
							v-176c0-6.627-5.372-12-12-12h-78c-6.627,0-12,5.373-12,12v176c0,6.628,5.373,12,12,12"/>
						<path fill="none" stroke="#22B14C" stroke-width="10" stroke-miterlimit="10" d="M1858.785,2074.916
							c12.013,0,21.75-9.737,21.75-21.75c0-12.012-9.737-21.75-21.75-21.75"/>
						
							<rect x="1695.785" y="2010.666" fill="none" stroke="#22B14C" stroke-width="10" stroke-miterlimit="10" width="33.226" height="85"/>
						
							<rect x="1831.011" y="2010.666" fill="none" stroke="#22B14C" stroke-width="10" stroke-miterlimit="10" width="27.774" height="85"/>
						
							<rect x="1674.785" y="2029.833" fill="none" stroke="#22B14C" stroke-width="10" stroke-miterlimit="10" width="21" height="46.667"/>
					</g>
					
						<line fill="none" stroke="#22B14C" stroke-width="10" stroke-miterlimit="10" x1="1819.011" y1="2153.166" x2="1809.26" y2="2153.166"/>
					
						<line fill="none" stroke="#22B14C" stroke-width="10" stroke-miterlimit="10" x1="1741.011" y1="2153.166" x2="1750.763" y2="2153.166"/>
				</g>
				<g>
					<g>
						<path fill="none" stroke="#22B14C" stroke-width="10" stroke-miterlimit="10" d="M1819.011,2448.032c6.628,0,12,5.372,12,12
							v176.001c0,6.626-5.373,11.999-11.999,11.999h-78c-6.628,0-12.001-5.373-12-12l-0.001-176c0-6.628,5.372-12,12-12"/>
						<path fill="none" stroke="#22B14C" stroke-width="10" stroke-miterlimit="10" d="M1858.785,2526.282
							c12.013,0,21.75,9.737,21.75,21.75s-9.737,21.75-21.75,21.75"/>
						
							<rect x="1695.786" y="2505.533" fill="none" stroke="#22B14C" stroke-width="10" stroke-miterlimit="10" width="33.225" height="84.999"/>
						
							<rect x="1831.011" y="2505.533" fill="none" stroke="#22B14C" stroke-width="10" stroke-miterlimit="10" width="27.774" height="85"/>
						
							<rect x="1674.786" y="2524.699" fill="none" stroke="#22B14C" stroke-width="10" stroke-miterlimit="10" width="20.999" height="46.666"/>
					</g>
					
						<line fill="none" stroke="#22B14C" stroke-width="10" stroke-miterlimit="10" x1="1819.011" y1="2448.032" x2="1809.259" y2="2448.032"/>
					
						<line fill="none" stroke="#22B14C" stroke-width="10" stroke-miterlimit="10" x1="1741.011" y1="2448.032" x2="1750.763" y2="2448.032"/>
				</g>
			</g>
		</g>
		<g>
			<path fill="none" stroke="#22B14C" stroke-width="10" stroke-miterlimit="10" d="M1581.775,2571.499h-125.379h-7.339
				c-83.743-66.512-134.62-154.018-134.62-249.899c0-95.887,66.154-183.388,149.897-249.899l1.222,0.415h94.831"/>
			<path fill="none" stroke="#22B14C" stroke-width="10" stroke-miterlimit="10" d="M1460.969,2571.499h125.38h7.338
				c83.743-66.512,134.62-154.018,134.62-249.899c0-95.887-66.154-183.388-149.896-249.899l-1.223,0.415h-94.831"/>
		</g>
		<g>
			<path fill="none" stroke="#22B14C" stroke-width="10" stroke-miterlimit="10" d="M1449.928,2568.39
				c-22.852-60.268-37.041-144.442-37.041-237.578c0-103.055,32.648-195.136,59.905-256.002"/>
			<path fill="none" stroke="#22B14C" stroke-width="10" stroke-miterlimit="10" d="M1590.606,2568.39
				c22.851-60.268,37.04-144.442,37.04-237.578c0-103.055-32.647-195.136-59.904-256.002"/>
		</g>
		<g>
			
				<line fill="none" stroke="#22B14C" stroke-width="10" stroke-miterlimit="10" x1="1320.04" y1="2252.6" x2="1293.087" y2="2252.6"/>
			
				<line fill="none" stroke="#22B14C" stroke-width="10" stroke-miterlimit="10" x1="1320.04" y1="2348.6" x2="1293.087" y2="2348.6"/>
		</g>
		<g>
			
				<line fill="none" stroke="#22B14C" stroke-width="10" stroke-miterlimit="10" x1="1727.101" y1="2252.6" x2="1751.869" y2="2252.6"/>
			
				<line fill="none" stroke="#22B14C" stroke-width="10" stroke-miterlimit="10" x1="1727.101" y1="2348.6" x2="1751.869" y2="2348.6"/>
		</g>
	</g>
	<g>
		<path fill="none" stroke="#22B14C" stroke-width="10" stroke-miterlimit="10" d="M1442.399,2159.197
			c15.268,33.166,24.803,71.458,26.641,112.51c2.965,66.216-14.657,127.071-45.544,171.935"/>
		<path fill="none" stroke="#22B14C" stroke-width="10" stroke-miterlimit="10" d="M1600.346,2159.197
			c-15.268,33.166-24.803,71.458-26.641,112.51c-2.965,66.216,14.657,127.071,45.544,171.935"/>
	</g>
	<g>
		
			<line fill="none" stroke="#22B14C" stroke-width="10" stroke-miterlimit="10" x1="1421.621" y1="2247.182" x2="1344.432" y2="2212.406"/>
		
			<line fill="none" stroke="#22B14C" stroke-width="10" stroke-miterlimit="10" x1="1621.124" y1="2247.182" x2="1698.313" y2="2212.406"/>
	</g>
	<g>
		
			<line fill="none" stroke="#22B14C" stroke-width="10" stroke-miterlimit="10" x1="1621.123" y1="2415.406" x2="1698.313" y2="2450.182"/>
		
			<line fill="none" stroke="#22B14C" stroke-width="10" stroke-miterlimit="10" x1="1421.62" y1="2415.406" x2="1344.432" y2="2450.182"/>
	</g>
</g>
<path fill="none" stroke="#22B14C" stroke-width="15" stroke-miterlimit="10" d="M868.014,1770.984v-190.361
	c0-59.543,48.266-107.813,107.816-107.813h92.834c59.54,0,107.812,48.27,107.812,107.813v190.361H868.014z"/>
<path fill="none" stroke="#22B14C" stroke-width="15" stroke-miterlimit="10" d="M868.014,1580.623L746.147,983.5
	c-9.828-32.506,8.557-66.826,41.063-76.652c32.507-9.829,66.825,8.558,76.653,41.064l165.101,524.898"/>
<line fill="none" stroke="#22B14C" stroke-width="15" stroke-miterlimit="10" x1="754.13" y1="1019.997" x2="-29.703" y2="1350.234"/>
<line fill="none" stroke="#22B14C" stroke-width="15" stroke-miterlimit="10" x1="-48.739" y1="1276.189" x2="716.439" y2="952.683"/>
<line fill="none" stroke="#22B14C" stroke-width="15" stroke-miterlimit="10" x1="676.048" y1="901.686" x2="-105.632" y2="1232.167"/>
<line fill="none" stroke="#22B14C" stroke-width="15" stroke-miterlimit="10" x1="-147.55" y1="1205.928" x2="660.279" y2="864.391"/>
<rect x="-180.333" y="1652.803" fill="none" stroke="#22B14C" stroke-width="15" stroke-miterlimit="10" width="133" height="200.989"/>
<path fill="none" stroke="#22B14C" stroke-width="15" stroke-miterlimit="10" d="M877.411,990.979l205.426-24.232
	c6.768,4.371,14.822,6.919,23.477,6.919c23.934,0,43.334-19.401,43.334-43.334c0-23.932-19.4-43.333-43.334-43.333
	c-16.448,0-30.756,9.165-38.096,22.667l-135.556,1.557"/>
<path fill="none" stroke="#22B14C" stroke-width="15" stroke-miterlimit="10" d="M-134.464,1256.51
	c0,16.678-13.521,30.198-30.201,30.198c-16.675,0-30.196-13.521-30.196-30.198s13.521-30.198,30.196-30.198
	C-147.985,1226.312-134.464,1239.832-134.464,1256.51z"/>
<circle fill="none" stroke="#22B14C" stroke-width="15" stroke-miterlimit="10" cx="1106.981" cy="929.836" r="13.59"/>
<rect x="-160.333" y="1426.666" fill="none" stroke="#22B14C" stroke-width="15" stroke-miterlimit="10" width="93.846" height="226.137"/>
<rect x="-66.487" y="1495.666" fill="none" stroke="#22B14C" stroke-width="15" stroke-miterlimit="10" width="61.154" height="94"/>
<rect x="-180.333" y="1495.666" fill="none" stroke="#22B14C" stroke-width="15" stroke-miterlimit="10" width="21.341" height="94"/>
<path fill="none" stroke="#22B14C" stroke-width="15" stroke-miterlimit="10" d="M-63.337,1264.788l0.006-0.003l-100.096-71.51
	l-74.812,52.436l62.733,93.831v86.224h117.32v-31.363c20.543-13.541,34.107-36.806,34.107-63.248
	C-24.077,1302.556-39.937,1277.669-63.337,1264.788z"/>
<line fill="none" stroke="#22B14C" stroke-width="15" stroke-miterlimit="10" x1="1143.722" y1="940.352" x2="1296.95" y2="1529.734"/>
<line fill="none" stroke="#22B14C" stroke-width="15" stroke-miterlimit="10" x1="1100.083" y1="973.217" x2="1246.849" y2="1540.734"/>
<circle fill="none" stroke="#22B14C" stroke-width="15" stroke-miterlimit="10" cx="1275.048" cy="1550.424" r="30.199"/>
<line fill="none" stroke="#22B14C" stroke-width="15" stroke-miterlimit="10" x1="1240.359" y1="1520.227" x2="1149.647" y2="1509.462"/>
<line fill="none" stroke="#22B14C" stroke-width="15" stroke-miterlimit="10" x1="1267.667" y1="1580.623" x2="1175.466" y2="1615.666"/>
<path fill="none" stroke="#22B14C" stroke-width="15" stroke-miterlimit="10" d="M918.311,863.003l-226.253-25.919
	c-11.031-1.264-21.777,4.076-27.434,13.635c-5.654,9.557-5.161,21.545,1.26,30.605l73.429,103.644
	c6.481,9.148,17.561,13.371,28.119,11.406c2.593-0.482,5.157-1.34,7.614-2.588l152.82-77.724
	c11.074-5.632,17.146-17.856,14.942-30.082C940.606,873.755,930.651,864.418,918.311,863.003z"/>
<circle fill="none" stroke="#22B14C" stroke-width="15" stroke-miterlimit="10" cx="690.667" cy="866.077" r="13.59"/>
<circle fill="none" stroke="#22B14C" stroke-width="15" stroke-miterlimit="10" cx="912.665" cy="891.611" r="13.59"/>
<circle fill="none" stroke="#22B14C" stroke-width="15" stroke-miterlimit="10" cx="763.076" cy="966.731" r="13.589"/>
<rect x="-232.333" y="1709.666" fill="none" stroke="#22B14C" stroke-width="15" stroke-miterlimit="10" width="52" height="86"/>
<rect x="-232.333" y="1495.666" fill="none" stroke="#22B14C" stroke-width="15" stroke-miterlimit="10" width="17" height="214"/>
<rect x="-215.333" y="1516.666" fill="none" stroke="#22B14C" stroke-width="15" stroke-miterlimit="10" width="35" height="52"/>
<circle fill="none" stroke="#22B14C" stroke-width="15" stroke-miterlimit="10" cx="1074.981" cy="1528.933" r="30.199"/>
<path fill="none" stroke="#22B14C" stroke-width="15" stroke-miterlimit="10" d="M1100.135,1662.213
	c3.092,3.092,3.092,8.104,0,11.197l-38.254,38.253c-3.092,3.092-8.104,3.092-11.196,0L942.922,1603.9
	c-3.092-3.092-3.092-8.105,0-11.197l38.254-38.253c3.092-3.093,8.104-3.093,11.196,0L1100.135,1662.213z"/>
<circle fill="none" stroke="#22B14C" stroke-width="30" stroke-miterlimit="10" cx="333.85" cy="336.829" r="315.264"/>
<rect x="201.836" y="204.817" fill="none" stroke="#22B14C" stroke-width="30" stroke-miterlimit="10" width="264.027" height="264.025"/>
</svg>
