<?xml version="1.0" encoding="utf-8"?>
<!-- Generator: Adobe Illustrator 16.0.0, SVG Export Plug-In . SVG Version: 6.00 Build 0)  -->
<!DOCTYPE svg PUBLIC "-//W3C//DTD SVG 1.1//EN" "http://www.w3.org/Graphics/SVG/1.1/DTD/svg11.dtd">
<svg version="1.1" id="Isolation_Mode" xmlns="http://www.w3.org/2000/svg" xmlns:xlink="http://www.w3.org/1999/xlink" x="0px"
	 y="0px" width="416.979px" height="128.993px" viewBox="0 0 416.979 128.993" enable-background="new 0 0 416.979 128.993"
	 xml:space="preserve">
<g>
	<path fill="#FFFFFF" d="M233.192,76.815c-13.346,0-24.203-10.857-24.203-24.199v-4.427h22.869V36.748h-22.869V26.266V15.748H197.55
		v36.869c0,19.649,15.986,35.641,35.643,35.641c20.158,0,30.67-15.432,33.589-23.97H254.19
		C251.396,69.156,245.108,76.815,233.192,76.815z"/>
	<path fill="#FFFFFF" d="M303.474,95.588h-11.672c1.857,14.013,13.85,24.819,28.355,24.819v-11.5
		C312.017,108.907,305.198,103.212,303.474,95.588z"/>
	<path fill="#FFFFFF" d="M402.747,76.476c-7.391-23.043-29.005-39.728-54.512-39.728c-25.5,0-47.113,16.685-54.506,39.728
		c-1.188,3.697-2.01,7.557-2.422,11.534H405.17C404.759,84.033,403.937,80.173,402.747,76.476z M305.907,76.476
		c6.875-16.605,23.239-28.29,42.328-28.29c19.092,0,35.455,11.684,42.328,28.29H305.907z"/>
	<path fill="#FFFFFF" d="M138.64,52.615c0,13.343-10.854,24.199-24.197,24.199c-13.343,0-24.198-10.856-24.198-24.199V38.766H78.805
		v13.849c0,19.651,15.985,35.64,35.638,35.64s35.64-15.989,35.64-35.64V38.766H138.64V52.615z"/>
	<path fill="#FFFFFF" d="M42.245,76.815c-13.347,0-24.203-10.857-24.203-24.199v-4.427h22.869V36.748H18.042V26.266V15.748H6.603
		v36.869c0,19.649,15.987,35.641,35.643,35.641c20.156,0,30.672-15.432,33.59-23.97H63.243
		C60.447,69.156,54.161,76.815,42.245,76.815z"/>
	<path fill="#FFFFFF" d="M155.337,70.762c0,6.485,0,16.877,0,16.877h11.44c0,0,0-10.392,0-16.877
		c0-11.712,9.396-23.188,23.189-23.188v-11.44C172.651,36.134,155.337,49.824,155.337,70.762z"/>
	<rect x="271.679" y="15.78" fill="#FFFFFF" width="11.438" height="72.23"/>
</g>
</svg>
