<?xml version="1.0" encoding="utf-8"?>
<!-- Generator: Adobe Illustrator 16.0.0, SVG Export Plug-In . SVG Version: 6.00 Build 0)  -->
<!DOCTYPE svg PUBLIC "-//W3C//DTD SVG 1.1//EN" "http://www.w3.org/Graphics/SVG/1.1/DTD/svg11.dtd">
<svg version="1.1" id="Layer_7" xmlns="http://www.w3.org/2000/svg" xmlns:xlink="http://www.w3.org/1999/xlink" x="0px" y="0px"
	 width="1403.5px" height="735.993px" viewBox="0 0 1403.5 735.993" enable-background="new 0 0 1403.5 735.993"
	 xml:space="preserve">
<polyline fill="none" stroke="#22B14C" stroke-width="50" stroke-miterlimit="10" points="4119.783,1213.566 4793.578,1887.361 
	5467.373,1213.566 "/>
<g>
	<g>
		<g>
			<g>
				<polygon fill="none" stroke="#22B14C" stroke-width="10" stroke-miterlimit="10" points="3952.982,2681.131 3894.485,2681.131 
					3894.485,2250.554 3894.485,2115.055 3952.982,2115.055 				"/>
				<g>
					<g>
						<path fill="none" stroke="#22B14C" stroke-width="10" stroke-miterlimit="10" d="M3884.733,2250.659c-6.627,0-12-5.372-12-12
							v-176c0-6.627,5.373-12,12-12h78c6.628,0,12,5.373,12,12v176c0,6.628-5.372,12-12,12"/>
						<path fill="none" stroke="#22B14C" stroke-width="10" stroke-miterlimit="10" d="M3844.959,2172.409
							c-12.012,0-21.75-9.737-21.75-21.75c0-12.012,9.738-21.75,21.75-21.75"/>
						
							<rect x="3974.733" y="2108.159" fill="none" stroke="#22B14C" stroke-width="10" stroke-miterlimit="10" width="33.226" height="85"/>
						
							<rect x="3844.959" y="2108.159" fill="none" stroke="#22B14C" stroke-width="10" stroke-miterlimit="10" width="27.774" height="85"/>
						
							<rect x="4007.959" y="2127.326" fill="none" stroke="#22B14C" stroke-width="10" stroke-miterlimit="10" width="21" height="46.667"/>
					</g>
					
						<line fill="none" stroke="#22B14C" stroke-width="10" stroke-miterlimit="10" x1="3884.733" y1="2250.659" x2="3894.485" y2="2250.659"/>
					
						<line fill="none" stroke="#22B14C" stroke-width="10" stroke-miterlimit="10" x1="3962.733" y1="2250.659" x2="3952.982" y2="2250.659"/>
				</g>
				<g>
					<g>
						<path fill="none" stroke="#22B14C" stroke-width="10" stroke-miterlimit="10" d="M3884.733,2545.525c-6.628,0-12,5.372-12,12
							v176.001c0,6.626,5.373,11.999,11.999,11.999h78c6.628,0,12.001-5.373,12-12l0.001-176c0-6.628-5.372-12-12-12"/>
						<path fill="none" stroke="#22B14C" stroke-width="10" stroke-miterlimit="10" d="M3844.959,2623.775
							c-12.013,0-21.75,9.737-21.75,21.75s9.737,21.75,21.75,21.75"/>
						
							<rect x="3974.733" y="2603.026" fill="none" stroke="#22B14C" stroke-width="10" stroke-miterlimit="10" width="33.225" height="84.999"/>
						
							<rect x="3844.959" y="2603.026" fill="none" stroke="#22B14C" stroke-width="10" stroke-miterlimit="10" width="27.774" height="85"/>
						
							<rect x="4007.959" y="2622.192" fill="none" stroke="#22B14C" stroke-width="10" stroke-miterlimit="10" width="20.999" height="46.666"/>
					</g>
					
						<line fill="none" stroke="#22B14C" stroke-width="10" stroke-miterlimit="10" x1="3884.733" y1="2545.525" x2="3894.485" y2="2545.525"/>
					
						<line fill="none" stroke="#22B14C" stroke-width="10" stroke-miterlimit="10" x1="3962.733" y1="2545.525" x2="3952.981" y2="2545.525"/>
				</g>
			</g>
			<g>
				<polygon fill="none" stroke="#22B14C" stroke-width="10" stroke-miterlimit="10" points="4411.763,2681.131 4470.26,2681.131 
					4470.26,2250.554 4470.26,2115.055 4411.763,2115.055 				"/>
				<g>
					<g>
						<path fill="none" stroke="#22B14C" stroke-width="10" stroke-miterlimit="10" d="M4480.011,2250.659c6.628,0,12-5.372,12-12
							v-176c0-6.627-5.372-12-12-12h-78c-6.627,0-12,5.373-12,12v176c0,6.628,5.373,12,12,12"/>
						<path fill="none" stroke="#22B14C" stroke-width="10" stroke-miterlimit="10" d="M4519.785,2172.409
							c12.013,0,21.75-9.737,21.75-21.75c0-12.012-9.737-21.75-21.75-21.75"/>
						
							<rect x="4356.785" y="2108.159" fill="none" stroke="#22B14C" stroke-width="10" stroke-miterlimit="10" width="33.226" height="85"/>
						
							<rect x="4492.011" y="2108.159" fill="none" stroke="#22B14C" stroke-width="10" stroke-miterlimit="10" width="27.774" height="85"/>
						
							<rect x="4335.785" y="2127.326" fill="none" stroke="#22B14C" stroke-width="10" stroke-miterlimit="10" width="21" height="46.667"/>
					</g>
					
						<line fill="none" stroke="#22B14C" stroke-width="10" stroke-miterlimit="10" x1="4480.011" y1="2250.659" x2="4470.26" y2="2250.659"/>
					
						<line fill="none" stroke="#22B14C" stroke-width="10" stroke-miterlimit="10" x1="4402.011" y1="2250.659" x2="4411.763" y2="2250.659"/>
				</g>
				<g>
					<g>
						<path fill="none" stroke="#22B14C" stroke-width="10" stroke-miterlimit="10" d="M4480.011,2545.525c6.628,0,12,5.372,12,12
							v176.001c0,6.626-5.373,11.999-11.999,11.999h-78c-6.628,0-12.001-5.373-12-12l-0.001-176c0-6.628,5.372-12,12-12"/>
						<path fill="none" stroke="#22B14C" stroke-width="10" stroke-miterlimit="10" d="M4519.785,2623.775
							c12.013,0,21.75,9.737,21.75,21.75s-9.737,21.75-21.75,21.75"/>
						
							<rect x="4356.786" y="2603.026" fill="none" stroke="#22B14C" stroke-width="10" stroke-miterlimit="10" width="33.225" height="84.999"/>
						
							<rect x="4492.011" y="2603.026" fill="none" stroke="#22B14C" stroke-width="10" stroke-miterlimit="10" width="27.774" height="85"/>
						
							<rect x="4335.786" y="2622.192" fill="none" stroke="#22B14C" stroke-width="10" stroke-miterlimit="10" width="20.999" height="46.666"/>
					</g>
					
						<line fill="none" stroke="#22B14C" stroke-width="10" stroke-miterlimit="10" x1="4480.011" y1="2545.525" x2="4470.259" y2="2545.525"/>
					
						<line fill="none" stroke="#22B14C" stroke-width="10" stroke-miterlimit="10" x1="4402.011" y1="2545.525" x2="4411.763" y2="2545.525"/>
				</g>
			</g>
		</g>
		<g>
			<path fill="none" stroke="#22B14C" stroke-width="10" stroke-miterlimit="10" d="M4242.775,2668.992h-125.379h-7.339
				c-83.743-66.512-134.62-154.018-134.62-249.899c0-95.887,66.154-183.388,149.897-249.899l1.222,0.415h94.831"/>
			<path fill="none" stroke="#22B14C" stroke-width="10" stroke-miterlimit="10" d="M4121.969,2668.992h125.38h7.338
				c83.743-66.512,134.62-154.018,134.62-249.899c0-95.887-66.154-183.388-149.896-249.899l-1.223,0.415h-94.831"/>
		</g>
		<g>
			<path fill="none" stroke="#22B14C" stroke-width="10" stroke-miterlimit="10" d="M4110.928,2665.883
				c-22.852-60.268-37.041-144.442-37.041-237.578c0-103.055,32.648-195.136,59.905-256.002"/>
			<path fill="none" stroke="#22B14C" stroke-width="10" stroke-miterlimit="10" d="M4251.606,2665.883
				c22.851-60.268,37.04-144.442,37.04-237.578c0-103.055-32.647-195.136-59.904-256.002"/>
		</g>
		<g>
			
				<line fill="none" stroke="#22B14C" stroke-width="10" stroke-miterlimit="10" x1="3981.04" y1="2350.093" x2="3954.087" y2="2350.093"/>
			
				<line fill="none" stroke="#22B14C" stroke-width="10" stroke-miterlimit="10" x1="3981.04" y1="2446.093" x2="3954.087" y2="2446.093"/>
		</g>
		<g>
			
				<line fill="none" stroke="#22B14C" stroke-width="10" stroke-miterlimit="10" x1="4388.101" y1="2350.093" x2="4412.869" y2="2350.093"/>
			
				<line fill="none" stroke="#22B14C" stroke-width="10" stroke-miterlimit="10" x1="4388.101" y1="2446.093" x2="4412.869" y2="2446.093"/>
		</g>
	</g>
	<g>
		<path fill="none" stroke="#22B14C" stroke-width="10" stroke-miterlimit="10" d="M4103.399,2256.69
			c15.268,33.166,24.803,71.458,26.641,112.51c2.965,66.216-14.657,127.071-45.544,171.935"/>
		<path fill="none" stroke="#22B14C" stroke-width="10" stroke-miterlimit="10" d="M4261.346,2256.69
			c-15.268,33.166-24.803,71.458-26.641,112.51c-2.965,66.216,14.657,127.071,45.544,171.935"/>
	</g>
	<g>
		
			<line fill="none" stroke="#22B14C" stroke-width="10" stroke-miterlimit="10" x1="4082.621" y1="2344.675" x2="4005.432" y2="2309.899"/>
		
			<line fill="none" stroke="#22B14C" stroke-width="10" stroke-miterlimit="10" x1="4282.124" y1="2344.675" x2="4359.313" y2="2309.899"/>
	</g>
	<g>
		
			<line fill="none" stroke="#22B14C" stroke-width="10" stroke-miterlimit="10" x1="4282.123" y1="2512.899" x2="4359.313" y2="2547.675"/>
		
			<line fill="none" stroke="#22B14C" stroke-width="10" stroke-miterlimit="10" x1="4082.62" y1="2512.899" x2="4005.432" y2="2547.675"/>
	</g>
</g>
<path fill="none" stroke="#22B14C" stroke-width="15" stroke-miterlimit="10" d="M3529.014,1868.478v-190.361
	c0-59.543,48.266-107.813,107.816-107.813h92.834c59.54,0,107.812,48.27,107.812,107.813v190.361H3529.014z"/>
<path fill="none" stroke="#22B14C" stroke-width="15" stroke-miterlimit="10" d="M3529.014,1678.116l-121.866-597.123
	c-9.828-32.506,8.557-66.826,41.063-76.652c32.507-9.829,66.825,8.558,76.653,41.064l165.101,524.898"/>
<line fill="none" stroke="#22B14C" stroke-width="15" stroke-miterlimit="10" x1="3415.13" y1="1117.49" x2="2631.297" y2="1447.728"/>
<line fill="none" stroke="#22B14C" stroke-width="15" stroke-miterlimit="10" x1="2612.261" y1="1373.683" x2="3377.439" y2="1050.176"/>
<line fill="none" stroke="#22B14C" stroke-width="15" stroke-miterlimit="10" x1="3337.048" y1="999.179" x2="2555.368" y2="1329.66"/>
<line fill="none" stroke="#22B14C" stroke-width="15" stroke-miterlimit="10" x1="2513.45" y1="1303.421" x2="3321.279" y2="961.884"/>
<rect x="2480.667" y="1750.296" fill="none" stroke="#22B14C" stroke-width="15" stroke-miterlimit="10" width="133" height="200.989"/>
<path fill="none" stroke="#22B14C" stroke-width="15" stroke-miterlimit="10" d="M3538.411,1088.473l205.426-24.232
	c6.768,4.371,14.822,6.919,23.477,6.919c23.934,0,43.334-19.401,43.334-43.334c0-23.932-19.4-43.333-43.334-43.333
	c-16.448,0-30.756,9.165-38.096,22.667l-135.556,1.557"/>
<path fill="none" stroke="#22B14C" stroke-width="15" stroke-miterlimit="10" d="M2526.536,1354.003
	c0,16.678-13.521,30.198-30.201,30.198c-16.675,0-30.196-13.521-30.196-30.198s13.521-30.198,30.196-30.198
	C2513.015,1323.805,2526.536,1337.325,2526.536,1354.003z"/>
<circle fill="none" stroke="#22B14C" stroke-width="15" stroke-miterlimit="10" cx="3767.981" cy="1027.329" r="13.59"/>
<rect x="2500.667" y="1524.159" fill="none" stroke="#22B14C" stroke-width="15" stroke-miterlimit="10" width="93.846" height="226.137"/>
<rect x="2594.513" y="1593.159" fill="none" stroke="#22B14C" stroke-width="15" stroke-miterlimit="10" width="61.154" height="94"/>
<rect x="2480.667" y="1593.159" fill="none" stroke="#22B14C" stroke-width="15" stroke-miterlimit="10" width="21.341" height="94"/>
<path fill="none" stroke="#22B14C" stroke-width="15" stroke-miterlimit="10" d="M2597.663,1362.281l0.006-0.003l-100.096-71.51
	l-74.812,52.436l62.733,93.831v86.224h117.32v-31.363c20.543-13.541,34.107-36.806,34.107-63.248
	C2636.923,1400.049,2621.063,1375.162,2597.663,1362.281z"/>
<line fill="none" stroke="#22B14C" stroke-width="15" stroke-miterlimit="10" x1="3804.722" y1="1037.845" x2="3957.95" y2="1627.228"/>
<line fill="none" stroke="#22B14C" stroke-width="15" stroke-miterlimit="10" x1="3761.083" y1="1070.71" x2="3907.849" y2="1638.228"/>
<circle fill="none" stroke="#22B14C" stroke-width="15" stroke-miterlimit="10" cx="3936.048" cy="1647.917" r="30.199"/>
<line fill="none" stroke="#22B14C" stroke-width="15" stroke-miterlimit="10" x1="3901.359" y1="1617.72" x2="3810.647" y2="1606.955"/>
<line fill="none" stroke="#22B14C" stroke-width="15" stroke-miterlimit="10" x1="3928.667" y1="1678.116" x2="3836.466" y2="1713.159"/>
<path fill="none" stroke="#22B14C" stroke-width="15" stroke-miterlimit="10" d="M3579.311,960.496l-226.253-25.919
	c-11.031-1.264-21.777,4.076-27.434,13.635c-5.654,9.557-5.161,21.545,1.26,30.605l73.429,103.644
	c6.481,9.148,17.561,13.371,28.119,11.406c2.593-0.482,5.157-1.34,7.614-2.588l152.82-77.724
	c11.074-5.632,17.146-17.856,14.942-30.082C3601.606,971.248,3591.651,961.911,3579.311,960.496z"/>
<circle fill="none" stroke="#22B14C" stroke-width="15" stroke-miterlimit="10" cx="3351.667" cy="963.57" r="13.59"/>
<circle fill="none" stroke="#22B14C" stroke-width="15" stroke-miterlimit="10" cx="3573.665" cy="989.104" r="13.59"/>
<circle fill="none" stroke="#22B14C" stroke-width="15" stroke-miterlimit="10" cx="3424.076" cy="1064.225" r="13.589"/>
<rect x="2428.667" y="1807.159" fill="none" stroke="#22B14C" stroke-width="15" stroke-miterlimit="10" width="52" height="86"/>
<rect x="2428.667" y="1593.159" fill="none" stroke="#22B14C" stroke-width="15" stroke-miterlimit="10" width="17" height="214"/>
<rect x="2445.667" y="1614.159" fill="none" stroke="#22B14C" stroke-width="15" stroke-miterlimit="10" width="35" height="52"/>
<circle fill="none" stroke="#22B14C" stroke-width="15" stroke-miterlimit="10" cx="3735.981" cy="1626.426" r="30.199"/>
<path fill="none" stroke="#22B14C" stroke-width="15" stroke-miterlimit="10" d="M3761.135,1759.706
	c3.092,3.092,3.092,8.104,0,11.197l-38.254,38.253c-3.092,3.092-8.104,3.092-11.196,0l-107.763-107.763
	c-3.092-3.092-3.092-8.105,0-11.197l38.254-38.253c3.092-3.093,8.104-3.093,11.196,0L3761.135,1759.706z"/>
<circle fill="none" stroke="#22B14C" stroke-width="30" stroke-miterlimit="10" cx="2994.85" cy="434.322" r="315.264"/>
<rect x="2862.836" y="302.311" fill="none" stroke="#22B14C" stroke-width="30" stroke-miterlimit="10" width="264.027" height="264.025"/>
<line fill="none" stroke="#787878" stroke-width="70" stroke-miterlimit="10" x1="1512.668" y1="715.707" x2="1512.668" y2="618.789"/>
<line fill="none" stroke="#787878" stroke-width="70" stroke-miterlimit="10" x1="1846" y1="715.707" x2="1846" y2="430.037"/>
<line fill="none" stroke="#787878" stroke-width="70" stroke-miterlimit="10" x1="2179.333" y1="715.707" x2="2179.333" y2="239.516"/>
<line fill="none" stroke="#787878" stroke-width="70" stroke-miterlimit="10" x1="2512.665" y1="715.707" x2="2512.665" y2="49.041"/>
<polygon fill="none" stroke="#787878" stroke-width="70" stroke-miterlimit="10" points="1147.722,590.051 1147.722,701.168 
	35.217,701.168 35.217,34.498 1147.722,34.498 1147.722,120.466 1147.722,145.611 1368.546,145.611 1368.546,590.051 "/>
<g>
	
		<line fill="none" stroke="#787878" stroke-width="70" stroke-miterlimit="10" x1="257.367" y1="139.61" x2="257.367" y2="590.046"/>
</g>
<g>
	<line fill="none" stroke="#787878" stroke-width="70" stroke-miterlimit="10" x1="479.66" y1="139.61" x2="479.66" y2="590.046"/>
</g>
<g>
	
		<line fill="none" stroke="#787878" stroke-width="70" stroke-miterlimit="10" x1="701.811" y1="139.61" x2="701.811" y2="590.046"/>
</g>
<g>
	
		<line fill="none" stroke="#787878" stroke-width="70" stroke-miterlimit="10" x1="924.103" y1="139.61" x2="924.103" y2="590.046"/>
</g>
<line fill="none" stroke="#787878" stroke-width="70" stroke-miterlimit="10" x1="1147.722" y1="145.611" x2="1147.722" y2="590.051"/>
</svg>
