<?xml version="1.0" encoding="utf-8"?>
<!-- Generator: Adobe Illustrator 16.0.0, SVG Export Plug-In . SVG Version: 6.00 Build 0)  -->
<!DOCTYPE svg PUBLIC "-//W3C//DTD SVG 1.1//EN" "http://www.w3.org/Graphics/SVG/1.1/DTD/svg11.dtd">
<svg version="1.1" id="Layer_11" xmlns="http://www.w3.org/2000/svg" xmlns:xlink="http://www.w3.org/1999/xlink" x="0px" y="0px"
	 width="1625.675px" height="1079.784px" viewBox="0 0 1625.675 1079.784" enable-background="new 0 0 1625.675 1079.784"
	 xml:space="preserve">
<path fill="none" stroke="#00FF00" stroke-width="15" stroke-miterlimit="10" d="M1145.891,966.608V776.246
	c0-59.543,48.266-107.812,107.816-107.812h92.834c59.54,0,107.812,48.269,107.812,107.812v190.362H1145.891z"/>
<path fill="none" stroke="#00FF00" stroke-width="15" stroke-miterlimit="10" d="M1145.891,776.246l-121.866-597.123
	c-9.828-32.506,8.557-66.825,41.063-76.652c32.507-9.829,66.825,8.558,76.653,41.064l165.101,524.899"/>
<line fill="none" stroke="#00FF00" stroke-width="15" stroke-miterlimit="10" x1="1032.007" y1="215.62" x2="248.174" y2="545.857"/>
<line fill="none" stroke="#00FF00" stroke-width="15" stroke-miterlimit="10" x1="229.138" y1="471.812" x2="994.316" y2="148.306"/>
<line fill="none" stroke="#00FF00" stroke-width="15" stroke-miterlimit="10" x1="953.925" y1="97.309" x2="172.245" y2="427.79"/>
<line fill="none" stroke="#00FF00" stroke-width="15" stroke-miterlimit="10" x1="130.327" y1="401.551" x2="938.156" y2="60.014"/>
<rect x="97.544" y="848.425" fill="none" stroke="#00FF00" stroke-width="15" stroke-miterlimit="10" width="133" height="200.99"/>
<path fill="none" stroke="#00FF00" stroke-width="15" stroke-miterlimit="10" d="M1155.288,186.603l205.426-24.232
	c6.768,4.371,14.822,6.918,23.477,6.918c23.934,0,43.334-19.401,43.334-43.333c0-23.932-19.4-43.333-43.334-43.333
	c-16.448,0-30.756,9.165-38.096,22.667l-135.556,1.557"/>
<path fill="none" stroke="#00FF00" stroke-width="15" stroke-miterlimit="10" d="M143.413,452.133
	c0,16.678-13.521,30.198-30.201,30.198c-16.675,0-30.196-13.521-30.196-30.198s13.521-30.198,30.196-30.198
	C129.892,421.935,143.413,435.455,143.413,452.133z"/>
<circle fill="none" stroke="#00FF00" stroke-width="15" stroke-miterlimit="10" cx="1384.858" cy="125.459" r="13.59"/>
<rect x="117.544" y="622.289" fill="none" stroke="#00FF00" stroke-width="15" stroke-miterlimit="10" width="93.846" height="226.136"/>
<rect x="211.39" y="691.289" fill="none" stroke="#00FF00" stroke-width="15" stroke-miterlimit="10" width="61.154" height="94"/>
<rect x="97.544" y="691.289" fill="none" stroke="#00FF00" stroke-width="15" stroke-miterlimit="10" width="21.341" height="94"/>
<path fill="none" stroke="#00FF00" stroke-width="15" stroke-miterlimit="10" d="M214.54,460.411l0.006-0.003l-100.096-71.51
	l-74.812,52.437l62.733,93.831v86.224h117.32v-31.364c20.543-13.541,34.107-36.805,34.107-63.248
	C253.8,498.179,237.94,473.292,214.54,460.411z"/>
<line fill="none" stroke="#00FF00" stroke-width="15" stroke-miterlimit="10" x1="1421.599" y1="135.974" x2="1574.827" y2="725.357"/>
<line fill="none" stroke="#00FF00" stroke-width="15" stroke-miterlimit="10" x1="1377.96" y1="168.84" x2="1524.726" y2="736.357"/>
<circle fill="none" stroke="#00FF00" stroke-width="15" stroke-miterlimit="10" cx="1552.925" cy="746.047" r="30.199"/>
<line fill="none" stroke="#00FF00" stroke-width="15" stroke-miterlimit="10" x1="1518.236" y1="715.849" x2="1427.524" y2="705.085"/>
<line fill="none" stroke="#00FF00" stroke-width="15" stroke-miterlimit="10" x1="1545.544" y1="776.246" x2="1453.343" y2="811.289"/>
<path fill="none" stroke="#00FF00" stroke-width="15" stroke-miterlimit="10" d="M1196.188,58.626L969.935,32.707
	c-11.031-1.263-21.777,4.076-27.434,13.635c-5.654,9.557-5.161,21.545,1.26,30.605l73.429,103.644
	c6.481,9.148,17.561,13.371,28.119,11.406c2.593-0.482,5.157-1.34,7.614-2.588l152.82-77.724
	c11.074-5.631,17.146-17.856,14.942-30.081C1218.483,69.378,1208.528,60.041,1196.188,58.626z"/>
<circle fill="none" stroke="#00FF00" stroke-width="15" stroke-miterlimit="10" cx="968.544" cy="62.701" r="13.59"/>
<circle fill="none" stroke="#00FF00" stroke-width="15" stroke-miterlimit="10" cx="1192.544" cy="87.234" r="13.59"/>
<circle fill="none" stroke="#00FF00" stroke-width="15" stroke-miterlimit="10" cx="1042.954" cy="161.354" r="13.59"/>
<rect x="45.544" y="905.289" fill="none" stroke="#00FF00" stroke-width="15" stroke-miterlimit="10" width="52" height="86"/>
<rect x="45.544" y="691.289" fill="none" stroke="#00FF00" stroke-width="15" stroke-miterlimit="10" width="17" height="214"/>
<rect x="62.544" y="712.289" fill="none" stroke="#00FF00" stroke-width="15" stroke-miterlimit="10" width="35" height="52"/>
<circle fill="none" stroke="#00FF00" stroke-width="15" stroke-miterlimit="10" cx="1352.858" cy="724.556" r="30.199"/>
<path fill="none" stroke="#00FF00" stroke-width="15" stroke-miterlimit="10" d="M1378.012,857.836
	c3.092,3.091,3.092,8.104,0,11.196l-38.254,38.253c-3.092,3.092-8.104,3.092-11.196,0l-107.763-107.763
	c-3.092-3.092-3.092-8.104,0-11.196l38.254-38.253c3.092-3.092,8.104-3.092,11.196,0L1378.012,857.836z"/>
</svg>
