<?xml version="1.0" encoding="UTF-8" standalone="no"?>
<svg
   xmlns:dc="http://purl.org/dc/elements/1.1/"
   xmlns:cc="http://creativecommons.org/ns#"
   xmlns:rdf="http://www.w3.org/1999/02/22-rdf-syntax-ns#"
   xmlns:svg="http://www.w3.org/2000/svg"
   xmlns="http://www.w3.org/2000/svg"
   xml:space="preserve"
   enable-background="new 0 0 976 1080"
   viewBox="0 0 747.49902 837.50098"
   height="837.50098"
   width="747.49902"
   y="0px"
   x="0px"
   id="Layer_1"
   version="1.1"><metadata
     id="metadata41"><rdf:RDF><cc:Work
         rdf:about=""><dc:format>image/svg+xml</dc:format><dc:type
           rdf:resource="http://purl.org/dc/dcmitype/StillImage" /><dc:title></dc:title></cc:Work></rdf:RDF></metadata><defs
     id="defs39" /><g
     style="stroke:#22b14c;stroke-opacity:1"
     transform="translate(-130.42373,-154.40578)"
     id="g14"><path
       style="fill:none;stroke:#22b14c;stroke-width:15;stroke-miterlimit:10;stroke-opacity:1"
       id="path2"
       d="m 285.271,618.334 85.577,366.667 h 112 V 798.334 H 447.719 V 370.651 c 0,-19.354 -15.69,-35.044 -35.044,-35.044 h -92.358 c -19.355,0 -35.045,15.69 -35.045,35.044 V 618.334 621"
       stroke-miterlimit="10" /><circle
       style="fill:none;stroke:#22b14c;stroke-width:15;stroke-miterlimit:10;stroke-opacity:1"
       id="circle4"
       r="11.5"
       cy="416.5"
       cx="366.01401"
       stroke-miterlimit="10" /><g
       style="stroke:#22b14c;stroke-opacity:1"
       id="g12"><line
         style="fill:none;stroke:#22b14c;stroke-width:15;stroke-miterlimit:10;stroke-opacity:1"
         id="line6"
         y2="683.35498"
         x2="447.71799"
         y1="683.35498"
         x1="300.67999"
         stroke-miterlimit="10" /><line
         style="fill:none;stroke:#22b14c;stroke-width:15;stroke-miterlimit:10;stroke-opacity:1"
         id="line8"
         y2="758.21503"
         x2="447.71799"
         y1="758.21503"
         x1="317.634"
         stroke-miterlimit="10" /><line
         style="fill:none;stroke:#22b14c;stroke-width:15;stroke-miterlimit:10;stroke-opacity:1"
         id="line10"
         y2="720.78497"
         x2="447.71799"
         y1="720.78497"
         x1="314.133"
         stroke-miterlimit="10" /></g></g><g
     style="stroke:#22b14c;stroke-opacity:1"
     transform="translate(-130.42373,-154.40578)"
     id="g28"><g
       style="stroke:#22b14c;stroke-opacity:1"
       id="g22"><line
         style="fill:none;stroke:#22b14c;stroke-width:15;stroke-miterlimit:10;stroke-opacity:1"
         id="line16"
         y2="683.35498"
         x2="559.67999"
         y1="683.35498"
         x1="706.71698"
         stroke-miterlimit="10" /><line
         style="fill:none;stroke:#22b14c;stroke-width:15;stroke-miterlimit:10;stroke-opacity:1"
         id="line18"
         y2="758.21503"
         x2="559.67999"
         y1="758.21503"
         x1="689.76398"
         stroke-miterlimit="10" /><line
         style="fill:none;stroke:#22b14c;stroke-width:15;stroke-miterlimit:10;stroke-opacity:1"
         id="line20"
         y2="720.78497"
         x2="559.67999"
         y1="720.78497"
         x1="693.26501"
         stroke-miterlimit="10" /></g><path
       style="fill:none;stroke:#22b14c;stroke-width:15;stroke-miterlimit:10;stroke-opacity:1"
       id="path24"
       d="m 721.944,618.334 -85.577,366.667 h -112 V 798.334 h 35.129 V 370.651 c 0,-19.354 15.69,-35.044 35.044,-35.044 h 92.358 c 19.355,0 35.045,15.69 35.045,35.044 V 618.334 621"
       stroke-miterlimit="10" /><circle
       style="fill:none;stroke:#22b14c;stroke-width:15;stroke-miterlimit:10;stroke-opacity:1"
       id="circle26"
       r="11.5"
       cy="416.5"
       cx="641.20001"
       stroke-miterlimit="10" /></g><line
     style="fill:none;stroke:#22b14c;stroke-width:15;stroke-miterlimit:10;stroke-opacity:1"
     id="line30"
     y2="463.59424"
     x2="421.27628"
     y1="463.59424"
     x1="317.29425"
     stroke-miterlimit="10" /><path
     style="fill:none;stroke:#22b14c;stroke-width:15;stroke-miterlimit:10;stroke-opacity:1"
     id="path32"
     d="M 154.84727,463.59422 H 8.590271 v -192.491 c 0,-44.987 19.094,-85.514 49.62,-113.918 l 1.633,-1.495 132.246999,-115.096 h 365.419 l 132.247,115.096 1.545,1.339 c 30.624,28.412 49.788,69.005 49.788,114.075 v 192.49 h -149.57"
     stroke-miterlimit="10" /><rect
     style="fill:none;stroke:#22b14c;stroke-width:15;stroke-miterlimit:10;stroke-opacity:1"
     id="rect34"
     height="32.5"
     width="365.41901"
     stroke-miterlimit="10"
     y="8.0942202"
     x="192.09027" /></svg>