<?xml version="1.0" encoding="UTF-8" standalone="no"?>
<svg
   xmlns:dc="http://purl.org/dc/elements/1.1/"
   xmlns:cc="http://creativecommons.org/ns#"
   xmlns:rdf="http://www.w3.org/1999/02/22-rdf-syntax-ns#"
   xmlns:svg="http://www.w3.org/2000/svg"
   xmlns="http://www.w3.org/2000/svg"
   xml:space="preserve"
   enable-background="new 0 0 983.803 989.802"
   viewBox="0 0 747.49904 837.50097"
   height="837.50098"
   width="747.49902"
   y="0px"
   x="0px"
   id="Layer_1"
   version="1.1"><metadata
     id="metadata37"><rdf:RDF><cc:Work
         rdf:about=""><dc:format>image/svg+xml</dc:format><dc:type
           rdf:resource="http://purl.org/dc/dcmitype/StillImage" /><dc:title></dc:title></cc:Work></rdf:RDF></metadata><defs
     id="defs35" /><path
     style="fill:none;stroke:#22b14c;stroke-width:15;stroke-miterlimit:10;stroke-opacity:1"
     id="path2"
     d="m 35.15882,464.75817 85.577,366.667 h 112 v -186.667 h -35.129 v -427.682 c 0,-19.354 -15.69,-35.044 -35.044,-35.044 h -92.358 c -19.355,0 -35.045,15.69 -35.045,35.044 v 247.682 2.667"
     stroke-miterlimit="10" /><circle
     style="fill:none;stroke:#22b14c;stroke-width:15;stroke-miterlimit:10;stroke-opacity:1"
     r="11.5"
     id="circle4"
     cy="262.92419"
     cx="115.90181"
     stroke-miterlimit="10" /><g
     style="stroke:#22b14c;stroke-opacity:1"
     transform="translate(-137.90318,-84.090825)"
     id="g12"><line
       style="fill:none;stroke:#22b14c;stroke-width:15;stroke-miterlimit:10;stroke-opacity:1"
       id="line6"
       y2="613.87097"
       x2="335.509"
       y1="613.87097"
       x1="188.47099"
       stroke-miterlimit="10" /><line
       style="fill:none;stroke:#22b14c;stroke-width:15;stroke-miterlimit:10;stroke-opacity:1"
       id="line8"
       y2="688.72998"
       x2="335.509"
       y1="688.72998"
       x1="205.425"
       stroke-miterlimit="10" /><line
       style="fill:none;stroke:#22b14c;stroke-width:15;stroke-miterlimit:10;stroke-opacity:1"
       id="line10"
       y2="651.29999"
       x2="335.509"
       y1="651.29999"
       x1="201.924"
       stroke-miterlimit="10" /></g><g
     style="stroke:#22b14c;stroke-opacity:1"
     transform="translate(-137.90318,-84.090825)"
     id="g20"><line
       style="fill:none;stroke:#22b14c;stroke-width:15;stroke-miterlimit:10;stroke-opacity:1"
       id="line14"
       y2="613.87097"
       x2="687.47101"
       y1="613.87097"
       x1="834.508"
       stroke-miterlimit="10" /><line
       style="fill:none;stroke:#22b14c;stroke-width:15;stroke-miterlimit:10;stroke-opacity:1"
       id="line16"
       y2="688.72998"
       x2="687.47101"
       y1="688.72998"
       x1="817.55499"
       stroke-miterlimit="10" /><line
       style="fill:none;stroke:#22b14c;stroke-width:15;stroke-miterlimit:10;stroke-opacity:1"
       id="line18"
       y2="651.29999"
       x2="687.47101"
       y1="651.29999"
       x1="821.05603"
       stroke-miterlimit="10" /></g><path
     style="fill:none;stroke:#22b14c;stroke-width:15;stroke-miterlimit:10;stroke-opacity:1"
     id="path22"
     d="m 711.83182,464.75817 -85.577,366.667 h -112 v -186.667 h 35.129 v -427.682 c 0,-19.354 15.69,-35.044 35.044,-35.044 h 92.358 c 19.355,0 35.045,15.69 35.045,35.044 v 247.682 2.667"
     stroke-miterlimit="10" /><circle
     style="fill:none;stroke:#22b14c;stroke-width:15;stroke-miterlimit:10;stroke-opacity:1"
     r="11.5"
     id="circle24"
     cy="262.92419"
     cx="631.08783"
     stroke-miterlimit="10" /><line
     style="fill:none;stroke:#22b14c;stroke-width:15;stroke-miterlimit:10;stroke-opacity:1"
     id="line26"
     y2="464.42419"
     x2="549.38483"
     y1="464.42419"
     x1="201.60582"
     stroke-miterlimit="10" /><path
     style="fill:none;stroke:#22b14c;stroke-width:15;stroke-miterlimit:10;stroke-opacity:1"
     id="path28"
     d="M 39.15882,464.42417 H 8.9028202 v -192.491 c 0,-44.987 19.0939998,-85.514 49.6199998,-113.918 l 1.633,-1.495 132.247,-115.095997 h 365.419 l 132.247,115.095997 1.545,1.339 c 30.624,28.412 49.788,69.005 49.788,114.075 v 192.491 h -29.57"
     stroke-miterlimit="10" /><rect
     style="fill:none;stroke:#22b14c;stroke-width:15;stroke-miterlimit:10;stroke-opacity:1"
     id="rect30"
     height="32.5"
     width="365.41901"
     stroke-miterlimit="10"
     y="8.9241714"
     x="192.40181" /></svg>