<?xml version="1.0" encoding="UTF-8" standalone="no"?>
<!-- Created with Inkscape (http://www.inkscape.org/) -->

<svg
   xmlns:dc="http://purl.org/dc/elements/1.1/"
   xmlns:cc="http://creativecommons.org/ns#"
   xmlns:rdf="http://www.w3.org/1999/02/22-rdf-syntax-ns#"
   xmlns:svg="http://www.w3.org/2000/svg"
   xmlns="http://www.w3.org/2000/svg"
   xmlns:sodipodi="http://sodipodi.sourceforge.net/DTD/sodipodi-0.dtd"
   xmlns:inkscape="http://www.inkscape.org/namespaces/inkscape"
   width="50.140606mm"
   height="50.142677mm"
   viewBox="0 0 50.140606 50.142677"
   version="1.1"
   id="svg8"
   inkscape:version="0.92.3 (unknown)"
   sodipodi:docname="joystick.svg">
  <defs
     id="defs2" />
  <sodipodi:namedview
     id="base"
     pagecolor="#ffffff"
     bordercolor="#666666"
     borderopacity="1.0"
     inkscape:pageopacity="0.0"
     inkscape:pageshadow="2"
     inkscape:zoom="2"
     inkscape:cx="42.31573"
     inkscape:cy="86.428181"
     inkscape:document-units="mm"
     inkscape:current-layer="layer1"
     showgrid="false"
     showguides="false"
     inkscape:guide-bbox="true"
     inkscape:snap-text-baseline="true"
     inkscape:window-width="1600"
     inkscape:window-height="837"
     inkscape:window-x="0"
     inkscape:window-y="30"
     inkscape:window-maximized="1"
     inkscape:snap-bbox="true"
     inkscape:snap-object-midpoints="true"
     inkscape:snap-center="true"
     inkscape:bbox-paths="true"
     inkscape:bbox-nodes="false"
     inkscape:snap-nodes="false"
     inkscape:snap-others="false"
     fit-margin-top="0"
     fit-margin-left="0"
     fit-margin-right="0"
     fit-margin-bottom="0">
    <sodipodi:guide
       position="19.511151,51.6547"
       orientation="0,1"
       id="guide827"
       inkscape:locked="false" />
    <sodipodi:guide
       position="25.070591,25.070879"
       orientation="0,1"
       id="guide855"
       inkscape:locked="false" />
    <sodipodi:guide
       position="25.070591,25.070879"
       orientation="1,0"
       id="guide857"
       inkscape:locked="false" />
    <sodipodi:guide
       position="25.070591,48.55595"
       orientation="0,1"
       id="guide859"
       inkscape:locked="false" />
    <sodipodi:guide
       position="25.070591,25.070879"
       orientation="-0.70710678,0.70710678"
       id="guide894"
       inkscape:locked="false" />
    <sodipodi:guide
       position="25.070591,25.070879"
       orientation="0.70710678,0.70710678"
       id="guide896"
       inkscape:locked="false" />
    <sodipodi:guide
       position="7.3503911,40.708169"
       orientation="1,0"
       id="guide925"
       inkscape:locked="false" />
    <sodipodi:guide
       position="7.3503911,42.791079"
       orientation="0,1"
       id="guide927"
       inkscape:locked="false" />
    <sodipodi:guide
       position="42.790792,42.791079"
       orientation="1,0"
       id="guide929"
       inkscape:locked="false" />
    <sodipodi:guide
       position="21.381951,48.55353"
       orientation="1,0"
       id="guide936"
       inkscape:locked="false" />
    <sodipodi:guide
       position="28.758492,48.55353"
       orientation="1,0"
       id="guide938"
       inkscape:locked="false" />
    <sodipodi:guide
       position="25.150401,49.84816"
       orientation="0,1"
       id="guide942"
       inkscape:locked="false" />
  </sodipodi:namedview>
  <metadata
     id="metadata5">
    <rdf:RDF>
      <cc:Work
         rdf:about="">
        <dc:format>image/svg+xml</dc:format>
        <dc:type
           rdf:resource="http://purl.org/dc/dcmitype/StillImage" />
        <dc:title />
      </cc:Work>
    </rdf:RDF>
  </metadata>
  <g
     inkscape:label="Layer 1"
     inkscape:groupmode="layer"
     id="layer1"
     transform="translate(-113.78892,-123.78107)">
    <path
       style="color:#000000;font-style:normal;font-variant:normal;font-weight:normal;font-stretch:normal;font-size:medium;line-height:normal;font-family:sans-serif;font-variant-ligatures:normal;font-variant-position:normal;font-variant-caps:normal;font-variant-numeric:normal;font-variant-alternates:normal;font-feature-settings:normal;text-indent:0;text-align:start;text-decoration:none;text-decoration-line:none;text-decoration-style:solid;text-decoration-color:#000000;letter-spacing:normal;word-spacing:normal;text-transform:none;writing-mode:lr-tb;direction:ltr;text-orientation:mixed;dominant-baseline:auto;baseline-shift:baseline;text-anchor:start;white-space:normal;shape-padding:0;clip-rule:nonzero;display:inline;overflow:visible;visibility:visible;opacity:1;isolation:auto;mix-blend-mode:normal;color-interpolation:sRGB;color-interpolation-filters:linearRGB;solid-color:#000000;solid-opacity:1;vector-effect:none;fill:#22b14c;fill-opacity:1;fill-rule:nonzero;stroke:none;stroke-width:6;stroke-linecap:butt;stroke-linejoin:miter;stroke-miterlimit:4;stroke-dasharray:none;stroke-dashoffset:0;stroke-opacity:1;color-rendering:auto;image-rendering:auto;shape-rendering:auto;text-rendering:auto;enable-background:accumulate"
       d="m 524.82227,467.83398 c -52.29695,0 -94.75387,42.46478 -94.75391,94.76172 0,52.29691 42.45696,94.75387 94.75391,94.75391 52.29687,0 94.7539,-42.45696 94.7539,-94.75391 -4e-5,-52.29694 -42.45707,-94.76172 -94.7539,-94.76172 z m 2.54687,1.11329 -1.17773,3.89062 -0.81641,0.004 -0.74414,-2.40235 c -0.027,-0.0763 -0.0527,-0.16609 -0.0781,-0.26562 -0.0252,0.0998 -0.051,0.18902 -0.0762,0.26562 l -0.72656,2.41211 -0.81641,0.004 -1.22461,-3.87695 0.75586,-0.004 c 0.0781,-0.002 0.14341,0.0163 0.19532,0.0527 0.0534,0.0353 0.0891,0.0819 0.10546,0.14063 l 0.54493,2.02344 c 0.0176,0.0655 0.0344,0.13635 0.0508,0.21093 0.0176,0.0746 0.0344,0.15274 0.0508,0.23438 0.0312,-0.16731 0.0699,-0.31527 0.11523,-0.44531 l 0.61719,-2.03125 c 0.0151,-0.0496 0.0497,-0.0933 0.10156,-0.13282 0.0532,-0.0413 0.11708,-0.0634 0.19141,-0.0644 l 0.26562,-0.002 c 0.0779,-0.002 0.14083,0.0165 0.18946,0.0547 0.0481,0.0353 0.0842,0.082 0.10937,0.13868 l 0.63672,2.02343 c 0.0469,0.12422 0.0861,0.26585 0.11914,0.42383 0.0126,-0.0784 0.0262,-0.15355 0.041,-0.22461 0.0151,-0.0713 0.0308,-0.13893 0.0469,-0.20117 l 0.52344,-2.0293 c 0.0151,-0.0516 0.0477,-0.0974 0.0996,-0.13671 0.0532,-0.0396 0.11682,-0.0584 0.19141,-0.0586 z m 1.35352,0.0918 0.92187,0.041 1.32813,3.94531 -0.69727,-0.0293 c -0.0784,-0.003 -0.13944,-0.0237 -0.18555,-0.0625 -0.0464,-0.0393 -0.0813,-0.0883 -0.10351,-0.14648 l -0.19922,-0.68555 -1.47656,-0.0664 -0.25782,0.66601 c -0.0227,0.0489 -0.0609,0.0923 -0.11328,0.13086 -0.0514,0.0368 -0.11487,0.055 -0.18945,0.0527 l -0.70312,-0.0312 z m -8.97461,0.0645 c 0.28046,-0.0151 0.52051,7e-4 0.7207,0.0488 0.20208,0.0461 0.36843,0.11834 0.49805,0.21485 0.13152,0.0962 0.22871,0.21254 0.29297,0.34961 0.0645,0.13732 0.10055,0.28816 0.10937,0.45312 0.008,0.12624 -0.002,0.24599 -0.0293,0.35938 -0.0277,0.11363 -0.0723,0.21908 -0.13476,0.31836 -0.0605,0.0978 -0.13869,0.18795 -0.23242,0.26757 -0.092,0.0796 -0.1988,0.1465 -0.32227,0.20118 0.062,0.027 0.11991,0.0621 0.17383,0.10547 0.0539,0.0415 0.10239,0.0924 0.14648,0.15234 l 0.89844,1.30469 -0.81445,0.0449 c -0.15093,0.008 -0.26218,-0.0447 -0.33399,-0.1543 l -0.70508,-1.0918 c -0.0327,-0.0461 -0.0691,-0.0782 -0.10742,-0.0976 -0.0383,-0.0202 -0.0928,-0.0299 -0.16211,-0.0274 l -0.23047,0.0137 0.0781,1.43554 -0.90039,0.0488 -0.20703,-3.88086 z m 11.85937,0.082 1.25977,0.10742 c 0.27988,0.0227 0.51536,0.0723 0.70703,0.14844 0.19376,0.0736 0.34779,0.16616 0.46289,0.27929 0.11716,0.11339 0.19954,0.24194 0.24414,0.38672 0.0448,0.14488 0.06,0.30039 0.0469,0.46485 -0.0101,0.12573 -0.0365,0.24271 -0.0801,0.35156 -0.0431,0.10885 -0.10215,0.20887 -0.17774,0.29883 -0.0736,0.0884 -0.16376,0.16446 -0.26758,0.23046 -0.10204,0.0663 -0.21789,0.11896 -0.34765,0.15626 0.0577,0.0353 0.11083,0.0785 0.1582,0.1289 0.0476,0.0486 0.0895,0.10466 0.125,0.16992 l 0.70899,1.41797 -0.8125,-0.0703 c -0.15043,-0.0126 -0.25436,-0.0781 -0.31055,-0.19727 l -0.54688,-1.17773 c -0.0254,-0.0504 -0.056,-0.0888 -0.0918,-0.11328 -0.0353,-0.0262 -0.0872,-0.0411 -0.15625,-0.0469 l -0.23047,-0.0195 -0.1211,1.43164 -0.89843,-0.0742 z m -15.39062,0.16992 c 0.13916,0.0125 0.27255,0.0391 0.40039,0.0781 0.25741,0.0771 0.48167,0.19522 0.67383,0.35547 0.192,0.16025 0.34794,0.35646 0.46679,0.58789 0.12044,0.23156 0.19425,0.48608 0.22071,0.76367 0.0272,0.27956 0.002,0.54487 -0.0723,0.79493 -0.0726,0.24995 -0.18772,0.47256 -0.3457,0.66797 -0.15799,0.19376 -0.35542,0.35198 -0.59375,0.47656 -0.23635,0.12447 -0.50582,0.20174 -0.80664,0.23047 -0.30098,0.028 -0.58058,0.004 -0.83789,-0.0723 -0.25739,-0.0771 -0.48185,-0.19547 -0.67579,-0.35547 -0.19225,-0.16201 -0.34838,-0.35856 -0.46875,-0.58984 -0.11842,-0.23156 -0.19178,-0.488 -0.21875,-0.76758 -0.0272,-0.27951 -0.004,-0.54307 0.0684,-0.79297 0.0743,-0.2502 0.19138,-0.47248 0.34961,-0.66601 0.16026,-0.19377 0.35787,-0.35377 0.59571,-0.47852 0.23811,-0.12472 0.50776,-0.20174 0.80859,-0.23047 0.15049,-0.014 0.29638,-0.0145 0.43555,-0.002 z m 19.04687,0.1543 1.49805,0.18945 c 0.29982,0.038 0.56596,0.12175 0.79883,0.25 0.23458,0.12825 0.42911,0.28916 0.58203,0.48242 0.15294,0.19326 0.26116,0.41369 0.32617,0.66211 0.0673,0.24693 0.0838,0.50834 0.0488,0.78516 -0.0353,0.27867 -0.11715,0.5299 -0.24414,0.7539 -0.12498,0.22249 -0.28589,0.40982 -0.48242,0.56055 -0.19629,0.14891 -0.42239,0.2548 -0.68164,0.32031 -0.25719,0.0645 -0.53605,0.0776 -0.83594,0.0391 l -1.49805,-0.18945 z m -21.90234,0.14453 0.0918,0.6875 -1.58007,0.21289 0.13281,0.97461 1.31641,-0.17774 0.0937,0.68946 -1.31641,0.17773 0.20508,1.49805 -0.89844,0.12109 -0.52344,-3.84961 z m 6.41797,0.12304 -0.36133,0.0195 0.0645,1.15039 0.36133,-0.0195 c 0.12271,-0.005 0.22544,-0.026 0.30859,-0.0625 0.0852,-0.0358 0.15488,-0.0819 0.20704,-0.14062 0.0521,-0.058 0.0887,-0.12514 0.10937,-0.19922 0.0202,-0.0758 0.0265,-0.15507 0.0215,-0.24023 -0.008,-0.17059 -0.0688,-0.30093 -0.1875,-0.39063 -0.11515,-0.0899 -0.29087,-0.12978 -0.52343,-0.11719 z m 9.36523,0.0781 c -0.0333,0.10709 -0.0653,0.20591 -0.0996,0.29687 -0.0325,0.0912 -0.064,0.17006 -0.0937,0.23633 l -0.40429,1.04297 1.06054,0.0469 -0.31054,-1.08008 c -0.0227,-0.0688 -0.047,-0.14852 -0.0742,-0.24024 -0.027,-0.0935 -0.0539,-0.19438 -0.0781,-0.30273 z m 3.30469,0.0781 -0.0977,1.14844 0.36133,0.0312 c 0.12221,0.0101 0.22677,0.003 0.31445,-0.0195 0.0897,-0.0227 0.16515,-0.0611 0.22461,-0.11328 0.0597,-0.0504 0.10403,-0.10939 0.13477,-0.17969 0.031,-0.0723 0.0493,-0.15141 0.0566,-0.23633 0.0151,-0.17008 -0.0287,-0.30701 -0.13281,-0.41211 -0.10155,-0.10482 -0.26776,-0.16759 -0.5,-0.1875 z m -16.5957,0.16602 c -0.17336,0.0151 -0.32614,0.0579 -0.45704,0.12891 -0.129,0.0695 -0.2347,0.16219 -0.31836,0.27734 -0.0818,0.1149 -0.141,0.25137 -0.17578,0.41016 -0.035,0.15697 -0.0447,0.33039 -0.0273,0.52148 0.0202,0.19276 0.0623,0.36433 0.125,0.51367 0.0643,0.1474 0.14795,0.26968 0.25,0.36719 0.10406,0.097 0.22539,0.16684 0.36523,0.21094 0.14136,0.0416 0.29905,0.0554 0.47266,0.0391 0.17159,-0.0151 0.32186,-0.0579 0.45117,-0.12695 0.12901,-0.0695 0.23427,-0.16245 0.31641,-0.27735 0.0837,-0.11515 0.14271,-0.2512 0.17773,-0.4082 0.0348,-0.15874 0.0445,-0.33449 0.0274,-0.52734 h -0.002 c -0.0176,-0.191 -0.0583,-0.36021 -0.12304,-0.50782 -0.0643,-0.14916 -0.14789,-0.27188 -0.25196,-0.36914 -0.1023,-0.0973 -0.22343,-0.16709 -0.36328,-0.21094 -0.13984,-0.0438 -0.29505,-0.0576 -0.46679,-0.041 z m 20.2246,0.21289 -0.31445,2.47852 0.59766,0.0742 c 0.17108,0.0227 0.32757,0.0149 0.46875,-0.0254 0.1411,-0.0418 0.26382,-0.10964 0.36914,-0.20312 0.10709,-0.0958 0.19488,-0.21809 0.26367,-0.36524 0.0688,-0.14715 0.11618,-0.31556 0.14063,-0.50781 h -0.002 c 0.0252,-0.19049 0.0224,-0.36572 -0.008,-0.52539 -0.0295,-0.15975 -0.0837,-0.2984 -0.16406,-0.41601 -0.0781,-0.11919 -0.1799,-0.21574 -0.30664,-0.28907 -0.12674,-0.0753 -0.27628,-0.12481 -0.44727,-0.14648 z m -11.25585,3.52344 c 22.71029,0 43.41299,8.51516 59.10351,22.52344 v 7.13281 h 7.13477 c 14.00829,15.69053 22.52148,36.39318 22.52148,59.10351 0,22.71015 -8.51341,43.41084 -22.52148,59.09961 h -7.13477 v 7.13281 c -15.69052,14.00657 -36.3932,22.51954 -59.10351,22.51954 -22.71051,-2e-5 -43.41074,-8.51276 -59.09961,-22.51954 v -7.13281 h -7.13282 c -14.00638,-15.68877 -22.51953,-36.38946 -22.51953,-59.09961 2e-5,-22.71033 8.51294,-43.41298 22.51953,-59.10351 h 7.13282 v -7.13281 c 15.68887,-14.00849 36.3891,-22.52344 59.09961,-22.52344 z"
       transform="scale(0.26458333)"
       id="path817"
       inkscape:connector-curvature="0" />
    <text
       xml:space="preserve"
       style="font-style:normal;font-variant:normal;font-weight:900;font-stretch:normal;font-size:1.41111112px;line-height:125%;font-family:Lato;-inkscape-font-specification:'Lato Heavy';letter-spacing:0px;word-spacing:0px;fill:#000000;fill-opacity:1;stroke:none;stroke-width:0.26458332px;stroke-linecap:butt;stroke-linejoin:miter;stroke-opacity:1"
       x="509.48776"
       y="645.06134"
       id="text882"><tspan
         sodipodi:role="line"
         id="tspan880"
         x="509.48776"
         y="645.06134">BACKWARD</tspan></text>
  </g>
</svg>
