<?xml version="1.0" encoding="utf-8"?>
<!-- Generator: Adobe Illustrator 16.0.0, SVG Export Plug-In . SVG Version: 6.00 Build 0)  -->
<!DOCTYPE svg PUBLIC "-//W3C//DTD SVG 1.1//EN" "http://www.w3.org/Graphics/SVG/1.1/DTD/svg11.dtd">
<svg version="1.1" id="Layer_7" xmlns="http://www.w3.org/2000/svg" xmlns:xlink="http://www.w3.org/1999/xlink" x="0px" y="0px"
	 width="1333.33px" height="736.5px" viewBox="0 0 1333.33 736.5" enable-background="new 0 0 1333.33 736.5" xml:space="preserve">
<polyline fill="none" stroke="#22B14C" stroke-width="50" stroke-miterlimit="10" points="4084.567,440.573 4758.362,1114.368 
	5432.157,440.573 "/>
<g>
	<g>
		<g>
			<g>
				<polygon fill="none" stroke="#22B14C" stroke-width="10" stroke-miterlimit="10" points="3917.766,1908.138 3859.269,1908.138 
					3859.269,1477.561 3859.269,1342.062 3917.766,1342.062 				"/>
				<g>
					<g>
						<path fill="none" stroke="#22B14C" stroke-width="10" stroke-miterlimit="10" d="M3849.517,1477.666c-6.627,0-12-5.372-12-12
							v-176c0-6.627,5.373-12,12-12h78c6.628,0,12,5.373,12,12v176c0,6.628-5.372,12-12,12"/>
						<path fill="none" stroke="#22B14C" stroke-width="10" stroke-miterlimit="10" d="M3809.743,1399.416
							c-12.012,0-21.75-9.737-21.75-21.75c0-12.012,9.738-21.75,21.75-21.75"/>
						
							<rect x="3939.517" y="1335.166" fill="none" stroke="#22B14C" stroke-width="10" stroke-miterlimit="10" width="33.226" height="85"/>
						
							<rect x="3809.743" y="1335.166" fill="none" stroke="#22B14C" stroke-width="10" stroke-miterlimit="10" width="27.774" height="85"/>
						
							<rect x="3972.743" y="1354.333" fill="none" stroke="#22B14C" stroke-width="10" stroke-miterlimit="10" width="21" height="46.667"/>
					</g>
					
						<line fill="none" stroke="#22B14C" stroke-width="10" stroke-miterlimit="10" x1="3849.517" y1="1477.666" x2="3859.269" y2="1477.666"/>
					
						<line fill="none" stroke="#22B14C" stroke-width="10" stroke-miterlimit="10" x1="3927.517" y1="1477.666" x2="3917.766" y2="1477.666"/>
				</g>
				<g>
					<g>
						<path fill="none" stroke="#22B14C" stroke-width="10" stroke-miterlimit="10" d="M3849.517,1772.532c-6.628,0-12,5.372-12,12
							v176.001c0,6.626,5.373,11.999,11.999,11.999h78c6.628,0,12.001-5.373,12-12l0.001-176c0-6.628-5.372-12-12-12"/>
						<path fill="none" stroke="#22B14C" stroke-width="10" stroke-miterlimit="10" d="M3809.743,1850.782
							c-12.013,0-21.75,9.737-21.75,21.75s9.737,21.75,21.75,21.75"/>
						
							<rect x="3939.517" y="1830.033" fill="none" stroke="#22B14C" stroke-width="10" stroke-miterlimit="10" width="33.225" height="84.999"/>
						
							<rect x="3809.743" y="1830.033" fill="none" stroke="#22B14C" stroke-width="10" stroke-miterlimit="10" width="27.774" height="85"/>
						
							<rect x="3972.743" y="1849.199" fill="none" stroke="#22B14C" stroke-width="10" stroke-miterlimit="10" width="20.999" height="46.666"/>
					</g>
					
						<line fill="none" stroke="#22B14C" stroke-width="10" stroke-miterlimit="10" x1="3849.517" y1="1772.532" x2="3859.269" y2="1772.532"/>
					
						<line fill="none" stroke="#22B14C" stroke-width="10" stroke-miterlimit="10" x1="3927.517" y1="1772.532" x2="3917.765" y2="1772.532"/>
				</g>
			</g>
			<g>
				<polygon fill="none" stroke="#22B14C" stroke-width="10" stroke-miterlimit="10" points="4376.546,1908.138 4435.043,1908.138 
					4435.043,1477.561 4435.043,1342.062 4376.546,1342.062 				"/>
				<g>
					<g>
						<path fill="none" stroke="#22B14C" stroke-width="10" stroke-miterlimit="10" d="M4444.794,1477.666c6.628,0,12-5.372,12-12
							v-176c0-6.627-5.372-12-12-12h-78c-6.627,0-12,5.373-12,12v176c0,6.628,5.373,12,12,12"/>
						<path fill="none" stroke="#22B14C" stroke-width="10" stroke-miterlimit="10" d="M4484.569,1399.416
							c12.013,0,21.75-9.737,21.75-21.75c0-12.012-9.737-21.75-21.75-21.75"/>
						
							<rect x="4321.569" y="1335.166" fill="none" stroke="#22B14C" stroke-width="10" stroke-miterlimit="10" width="33.226" height="85"/>
						
							<rect x="4456.794" y="1335.166" fill="none" stroke="#22B14C" stroke-width="10" stroke-miterlimit="10" width="27.774" height="85"/>
						
							<rect x="4300.569" y="1354.333" fill="none" stroke="#22B14C" stroke-width="10" stroke-miterlimit="10" width="21" height="46.667"/>
					</g>
					
						<line fill="none" stroke="#22B14C" stroke-width="10" stroke-miterlimit="10" x1="4444.794" y1="1477.666" x2="4435.043" y2="1477.666"/>
					
						<line fill="none" stroke="#22B14C" stroke-width="10" stroke-miterlimit="10" x1="4366.794" y1="1477.666" x2="4376.546" y2="1477.666"/>
				</g>
				<g>
					<g>
						<path fill="none" stroke="#22B14C" stroke-width="10" stroke-miterlimit="10" d="M4444.794,1772.532c6.628,0,12,5.372,12,12
							v176.001c0,6.626-5.373,11.999-11.999,11.999h-78c-6.628,0-12.001-5.373-12-12l-0.001-176c0-6.628,5.372-12,12-12"/>
						<path fill="none" stroke="#22B14C" stroke-width="10" stroke-miterlimit="10" d="M4484.569,1850.782
							c12.013,0,21.75,9.737,21.75,21.75s-9.737,21.75-21.75,21.75"/>
						
							<rect x="4321.57" y="1830.033" fill="none" stroke="#22B14C" stroke-width="10" stroke-miterlimit="10" width="33.225" height="84.999"/>
						
							<rect x="4456.794" y="1830.033" fill="none" stroke="#22B14C" stroke-width="10" stroke-miterlimit="10" width="27.774" height="85"/>
						
							<rect x="4300.57" y="1849.199" fill="none" stroke="#22B14C" stroke-width="10" stroke-miterlimit="10" width="20.999" height="46.666"/>
					</g>
					
						<line fill="none" stroke="#22B14C" stroke-width="10" stroke-miterlimit="10" x1="4444.794" y1="1772.532" x2="4435.042" y2="1772.532"/>
					
						<line fill="none" stroke="#22B14C" stroke-width="10" stroke-miterlimit="10" x1="4366.794" y1="1772.532" x2="4376.546" y2="1772.532"/>
				</g>
			</g>
		</g>
		<g>
			<path fill="none" stroke="#22B14C" stroke-width="10" stroke-miterlimit="10" d="M4207.559,1895.999H4082.18h-7.339
				c-83.743-66.512-134.62-154.018-134.62-249.899c0-95.887,66.154-183.388,149.897-249.899l1.222,0.415h94.831"/>
			<path fill="none" stroke="#22B14C" stroke-width="10" stroke-miterlimit="10" d="M4086.752,1895.999h125.38h7.338
				c83.743-66.512,134.62-154.018,134.62-249.899c0-95.887-66.154-183.388-149.896-249.899l-1.223,0.415h-94.831"/>
		</g>
		<g>
			<path fill="none" stroke="#22B14C" stroke-width="10" stroke-miterlimit="10" d="M4075.711,1892.89
				c-22.852-60.268-37.041-144.442-37.041-237.578c0-103.055,32.648-195.136,59.905-256.002"/>
			<path fill="none" stroke="#22B14C" stroke-width="10" stroke-miterlimit="10" d="M4216.39,1892.89
				c22.851-60.268,37.04-144.442,37.04-237.578c0-103.055-32.647-195.136-59.904-256.002"/>
		</g>
		<g>
			
				<line fill="none" stroke="#22B14C" stroke-width="10" stroke-miterlimit="10" x1="3945.824" y1="1577.1" x2="3918.871" y2="1577.1"/>
			
				<line fill="none" stroke="#22B14C" stroke-width="10" stroke-miterlimit="10" x1="3945.824" y1="1673.1" x2="3918.871" y2="1673.1"/>
		</g>
		<g>
			
				<line fill="none" stroke="#22B14C" stroke-width="10" stroke-miterlimit="10" x1="4352.884" y1="1577.1" x2="4377.653" y2="1577.1"/>
			
				<line fill="none" stroke="#22B14C" stroke-width="10" stroke-miterlimit="10" x1="4352.884" y1="1673.1" x2="4377.653" y2="1673.1"/>
		</g>
	</g>
	<g>
		<path fill="none" stroke="#22B14C" stroke-width="10" stroke-miterlimit="10" d="M4068.183,1483.697
			c15.268,33.166,24.803,71.458,26.641,112.51c2.965,66.216-14.657,127.071-45.544,171.935"/>
		<path fill="none" stroke="#22B14C" stroke-width="10" stroke-miterlimit="10" d="M4226.129,1483.697
			c-15.268,33.166-24.803,71.458-26.641,112.51c-2.965,66.216,14.657,127.071,45.544,171.935"/>
	</g>
	<g>
		
			<line fill="none" stroke="#22B14C" stroke-width="10" stroke-miterlimit="10" x1="4047.405" y1="1571.682" x2="3970.215" y2="1536.906"/>
		
			<line fill="none" stroke="#22B14C" stroke-width="10" stroke-miterlimit="10" x1="4246.908" y1="1571.682" x2="4324.096" y2="1536.906"/>
	</g>
	<g>
		
			<line fill="none" stroke="#22B14C" stroke-width="10" stroke-miterlimit="10" x1="4246.907" y1="1739.906" x2="4324.096" y2="1774.682"/>
		
			<line fill="none" stroke="#22B14C" stroke-width="10" stroke-miterlimit="10" x1="4047.404" y1="1739.906" x2="3970.215" y2="1774.682"/>
	</g>
</g>
<path fill="none" stroke="#22B14C" stroke-width="15" stroke-miterlimit="10" d="M3493.797,1095.484V905.123
	c0-59.543,48.266-107.813,107.816-107.813h92.834c59.54,0,107.812,48.27,107.812,107.813v190.361H3493.797z"/>
<path fill="none" stroke="#22B14C" stroke-width="15" stroke-miterlimit="10" d="M3493.797,905.123L3371.931,308
	c-9.828-32.506,8.557-66.826,41.063-76.652c32.507-9.829,66.825,8.558,76.653,41.064l165.101,524.898"/>
<line fill="none" stroke="#22B14C" stroke-width="15" stroke-miterlimit="10" x1="3379.914" y1="344.497" x2="2596.081" y2="674.734"/>
<line fill="none" stroke="#22B14C" stroke-width="15" stroke-miterlimit="10" x1="2577.044" y1="600.689" x2="3342.223" y2="277.183"/>
<line fill="none" stroke="#22B14C" stroke-width="15" stroke-miterlimit="10" x1="3301.832" y1="226.186" x2="2520.152" y2="556.667"/>
<line fill="none" stroke="#22B14C" stroke-width="15" stroke-miterlimit="10" x1="2478.234" y1="530.428" x2="3286.063" y2="188.891"/>
<rect x="2445.451" y="977.303" fill="none" stroke="#22B14C" stroke-width="15" stroke-miterlimit="10" width="133" height="200.989"/>
<path fill="none" stroke="#22B14C" stroke-width="15" stroke-miterlimit="10" d="M3503.195,315.479l205.426-24.232
	c6.768,4.371,14.822,6.919,23.477,6.919c23.934,0,43.334-19.401,43.334-43.334c0-23.932-19.4-43.333-43.334-43.333
	c-16.448,0-30.756,9.165-38.096,22.667l-135.556,1.557"/>
<path fill="none" stroke="#22B14C" stroke-width="15" stroke-miterlimit="10" d="M2491.32,581.01
	c0,16.678-13.521,30.198-30.201,30.198c-16.675,0-30.196-13.521-30.196-30.198s13.521-30.198,30.196-30.198
	C2477.798,550.812,2491.32,564.332,2491.32,581.01z"/>
<circle fill="none" stroke="#22B14C" stroke-width="15" stroke-miterlimit="10" cx="3732.765" cy="254.336" r="13.59"/>
<rect x="2465.451" y="751.166" fill="none" stroke="#22B14C" stroke-width="15" stroke-miterlimit="10" width="93.846" height="226.137"/>
<rect x="2559.296" y="820.166" fill="none" stroke="#22B14C" stroke-width="15" stroke-miterlimit="10" width="61.154" height="94"/>
<rect x="2445.451" y="820.166" fill="none" stroke="#22B14C" stroke-width="15" stroke-miterlimit="10" width="21.341" height="94"/>
<path fill="none" stroke="#22B14C" stroke-width="15" stroke-miterlimit="10" d="M2562.447,589.288l0.006-0.003l-100.096-71.51
	l-74.812,52.436l62.733,93.831v86.224h117.32v-31.363c20.543-13.541,34.107-36.806,34.107-63.248
	C2601.707,627.056,2585.847,602.169,2562.447,589.288z"/>
<line fill="none" stroke="#22B14C" stroke-width="15" stroke-miterlimit="10" x1="3769.505" y1="264.852" x2="3922.734" y2="854.234"/>
<line fill="none" stroke="#22B14C" stroke-width="15" stroke-miterlimit="10" x1="3725.867" y1="297.717" x2="3872.632" y2="865.234"/>
<circle fill="none" stroke="#22B14C" stroke-width="15" stroke-miterlimit="10" cx="3900.832" cy="874.924" r="30.199"/>
<line fill="none" stroke="#22B14C" stroke-width="15" stroke-miterlimit="10" x1="3866.143" y1="844.727" x2="3775.431" y2="833.962"/>
<line fill="none" stroke="#22B14C" stroke-width="15" stroke-miterlimit="10" x1="3893.451" y1="905.123" x2="3801.25" y2="940.166"/>
<path fill="none" stroke="#22B14C" stroke-width="15" stroke-miterlimit="10" d="M3544.094,187.503l-226.253-25.919
	c-11.031-1.264-21.777,4.076-27.434,13.635c-5.654,9.557-5.161,21.545,1.26,30.605l73.429,103.644
	c6.481,9.148,17.561,13.371,28.119,11.406c2.593-0.482,5.157-1.34,7.614-2.588l152.82-77.724
	c11.074-5.632,17.146-17.856,14.942-30.082C3566.39,198.255,3556.435,188.918,3544.094,187.503z"/>
<circle fill="none" stroke="#22B14C" stroke-width="15" stroke-miterlimit="10" cx="3316.451" cy="190.577" r="13.59"/>
<circle fill="none" stroke="#22B14C" stroke-width="15" stroke-miterlimit="10" cx="3538.449" cy="216.111" r="13.59"/>
<circle fill="none" stroke="#22B14C" stroke-width="15" stroke-miterlimit="10" cx="3388.859" cy="291.231" r="13.589"/>
<rect x="2393.451" y="1034.166" fill="none" stroke="#22B14C" stroke-width="15" stroke-miterlimit="10" width="52" height="86"/>
<rect x="2393.451" y="820.166" fill="none" stroke="#22B14C" stroke-width="15" stroke-miterlimit="10" width="17" height="214"/>
<rect x="2410.451" y="841.166" fill="none" stroke="#22B14C" stroke-width="15" stroke-miterlimit="10" width="35" height="52"/>
<circle fill="none" stroke="#22B14C" stroke-width="15" stroke-miterlimit="10" cx="3700.765" cy="853.433" r="30.199"/>
<path fill="none" stroke="#22B14C" stroke-width="15" stroke-miterlimit="10" d="M3725.918,986.713
	c3.092,3.092,3.092,8.104,0,11.197l-38.254,38.253c-3.092,3.092-8.104,3.092-11.196,0L3568.706,928.4
	c-3.092-3.092-3.092-8.105,0-11.197l38.254-38.253c3.092-3.093,8.104-3.093,11.196,0L3725.918,986.713z"/>
<circle fill="none" stroke="#22B14C" stroke-width="30" stroke-miterlimit="10" cx="2959.634" cy="-338.671" r="315.264"/>
<rect x="2827.62" y="-470.683" fill="none" stroke="#22B14C" stroke-width="30" stroke-miterlimit="10" width="264.027" height="264.025"/>
<line fill="none" stroke="#787878" stroke-width="70" stroke-miterlimit="10" x1="1477.452" y1="-57.286" x2="1477.452" y2="-154.204"/>
<line fill="none" stroke="#787878" stroke-width="70" stroke-miterlimit="10" x1="1810.784" y1="-57.286" x2="1810.784" y2="-342.956"/>
<line fill="none" stroke="#787878" stroke-width="70" stroke-miterlimit="10" x1="2144.117" y1="-57.286" x2="2144.117" y2="-533.478"/>
<line fill="none" stroke="#787878" stroke-width="70" stroke-miterlimit="10" x1="2477.448" y1="-57.286" x2="2477.448" y2="-723.952"/>
<polygon fill="none" stroke="#787878" stroke-width="70" stroke-miterlimit="10" points="1112.506,-182.942 1112.506,-71.825 
	0,-71.825 0,-738.495 1112.506,-738.495 1112.506,-652.527 1112.506,-627.382 1333.33,-627.382 1333.33,-182.942 "/>
<g>
	
		<line fill="none" stroke="#787878" stroke-width="70" stroke-miterlimit="10" x1="222.151" y1="-633.383" x2="222.151" y2="-182.947"/>
</g>
<g>
	
		<line fill="none" stroke="#787878" stroke-width="70" stroke-miterlimit="10" x1="444.444" y1="-633.383" x2="444.444" y2="-182.947"/>
</g>
<g>
	
		<line fill="none" stroke="#787878" stroke-width="70" stroke-miterlimit="10" x1="666.594" y1="-633.383" x2="666.594" y2="-182.947"/>
</g>
<g>
	
		<line fill="none" stroke="#787878" stroke-width="70" stroke-miterlimit="10" x1="888.887" y1="-633.383" x2="888.887" y2="-182.947"/>
</g>
<line fill="none" stroke="#787878" stroke-width="70" stroke-miterlimit="10" x1="1112.506" y1="-627.382" x2="1112.506" y2="-182.942"/>
<g>
	<line fill="none" stroke="#787878" stroke-width="70" stroke-miterlimit="10" x1="0" y1="35.501" x2="1333.33" y2="35.501"/>
	<line fill="none" stroke="#787878" stroke-width="70" stroke-miterlimit="10" x1="0" y1="702.165" x2="1333.33" y2="702.165"/>
	<line fill="none" stroke="#787878" stroke-width="70" stroke-miterlimit="10" x1="0" y1="368.834" x2="1333.33" y2="368.834"/>
</g>
</svg>
