<?xml version="1.0" encoding="utf-8"?>
<!-- Generator: Adobe Illustrator 16.0.0, SVG Export Plug-In . SVG Version: 6.00 Build 0)  -->
<!DOCTYPE svg PUBLIC "-//W3C//DTD SVG 1.1//EN" "http://www.w3.org/Graphics/SVG/1.1/DTD/svg11.dtd">
<svg version="1.1" id="Layer_7" xmlns="http://www.w3.org/2000/svg" xmlns:xlink="http://www.w3.org/1999/xlink" x="0px" y="0px"
	 width="737px" height="736.5px" viewBox="0 0 737 736.5" enable-background="new 0 0 737 736.5" xml:space="preserve">
<polyline fill="none" stroke="#22B14C" stroke-width="50" stroke-miterlimit="10" points="4060.283,-348.927 4734.078,324.868 
	5407.873,-348.927 "/>
<g>
	<g>
		<g>
			<g>
				<polygon fill="none" stroke="#22B14C" stroke-width="10" stroke-miterlimit="10" points="3893.482,1118.638 3834.985,1118.638 
					3834.985,688.061 3834.985,552.562 3893.482,552.562 				"/>
				<g>
					<g>
						<path fill="none" stroke="#22B14C" stroke-width="10" stroke-miterlimit="10" d="M3825.233,688.166c-6.627,0-12-5.372-12-12
							v-176c0-6.627,5.373-12,12-12h78c6.628,0,12,5.373,12,12v176c0,6.628-5.372,12-12,12"/>
						<path fill="none" stroke="#22B14C" stroke-width="10" stroke-miterlimit="10" d="M3785.459,609.916
							c-12.012,0-21.75-9.737-21.75-21.75c0-12.012,9.738-21.75,21.75-21.75"/>
						
							<rect x="3915.233" y="545.666" fill="none" stroke="#22B14C" stroke-width="10" stroke-miterlimit="10" width="33.226" height="85"/>
						
							<rect x="3785.459" y="545.666" fill="none" stroke="#22B14C" stroke-width="10" stroke-miterlimit="10" width="27.774" height="85"/>
						
							<rect x="3948.459" y="564.833" fill="none" stroke="#22B14C" stroke-width="10" stroke-miterlimit="10" width="21" height="46.667"/>
					</g>
					
						<line fill="none" stroke="#22B14C" stroke-width="10" stroke-miterlimit="10" x1="3825.233" y1="688.166" x2="3834.985" y2="688.166"/>
					
						<line fill="none" stroke="#22B14C" stroke-width="10" stroke-miterlimit="10" x1="3903.233" y1="688.166" x2="3893.482" y2="688.166"/>
				</g>
				<g>
					<g>
						<path fill="none" stroke="#22B14C" stroke-width="10" stroke-miterlimit="10" d="M3825.233,983.032c-6.628,0-12,5.372-12,12
							v176.001c0,6.626,5.373,11.999,11.999,11.999h78c6.628,0,12.001-5.373,12-12l0.001-176c0-6.628-5.372-12-12-12"/>
						<path fill="none" stroke="#22B14C" stroke-width="10" stroke-miterlimit="10" d="M3785.459,1061.282
							c-12.013,0-21.75,9.737-21.75,21.75s9.737,21.75,21.75,21.75"/>
						
							<rect x="3915.233" y="1040.533" fill="none" stroke="#22B14C" stroke-width="10" stroke-miterlimit="10" width="33.225" height="84.999"/>
						
							<rect x="3785.459" y="1040.533" fill="none" stroke="#22B14C" stroke-width="10" stroke-miterlimit="10" width="27.774" height="85"/>
						
							<rect x="3948.459" y="1059.699" fill="none" stroke="#22B14C" stroke-width="10" stroke-miterlimit="10" width="20.999" height="46.666"/>
					</g>
					
						<line fill="none" stroke="#22B14C" stroke-width="10" stroke-miterlimit="10" x1="3825.233" y1="983.032" x2="3834.985" y2="983.032"/>
					
						<line fill="none" stroke="#22B14C" stroke-width="10" stroke-miterlimit="10" x1="3903.233" y1="983.032" x2="3893.481" y2="983.032"/>
				</g>
			</g>
			<g>
				<polygon fill="none" stroke="#22B14C" stroke-width="10" stroke-miterlimit="10" points="4352.263,1118.638 4410.76,1118.638 
					4410.76,688.061 4410.76,552.562 4352.263,552.562 				"/>
				<g>
					<g>
						<path fill="none" stroke="#22B14C" stroke-width="10" stroke-miterlimit="10" d="M4420.511,688.166c6.628,0,12-5.372,12-12
							v-176c0-6.627-5.372-12-12-12h-78c-6.627,0-12,5.373-12,12v176c0,6.628,5.373,12,12,12"/>
						<path fill="none" stroke="#22B14C" stroke-width="10" stroke-miterlimit="10" d="M4460.285,609.916
							c12.013,0,21.75-9.737,21.75-21.75c0-12.012-9.737-21.75-21.75-21.75"/>
						
							<rect x="4297.285" y="545.666" fill="none" stroke="#22B14C" stroke-width="10" stroke-miterlimit="10" width="33.226" height="85"/>
						
							<rect x="4432.511" y="545.666" fill="none" stroke="#22B14C" stroke-width="10" stroke-miterlimit="10" width="27.774" height="85"/>
						
							<rect x="4276.285" y="564.833" fill="none" stroke="#22B14C" stroke-width="10" stroke-miterlimit="10" width="21" height="46.667"/>
					</g>
					
						<line fill="none" stroke="#22B14C" stroke-width="10" stroke-miterlimit="10" x1="4420.511" y1="688.166" x2="4410.76" y2="688.166"/>
					
						<line fill="none" stroke="#22B14C" stroke-width="10" stroke-miterlimit="10" x1="4342.511" y1="688.166" x2="4352.263" y2="688.166"/>
				</g>
				<g>
					<g>
						<path fill="none" stroke="#22B14C" stroke-width="10" stroke-miterlimit="10" d="M4420.511,983.032c6.628,0,12,5.372,12,12
							v176.001c0,6.626-5.373,11.999-11.999,11.999h-78c-6.628,0-12.001-5.373-12-12l-0.001-176c0-6.628,5.372-12,12-12"/>
						<path fill="none" stroke="#22B14C" stroke-width="10" stroke-miterlimit="10" d="M4460.285,1061.282
							c12.013,0,21.75,9.737,21.75,21.75s-9.737,21.75-21.75,21.75"/>
						
							<rect x="4297.286" y="1040.533" fill="none" stroke="#22B14C" stroke-width="10" stroke-miterlimit="10" width="33.225" height="84.999"/>
						
							<rect x="4432.511" y="1040.533" fill="none" stroke="#22B14C" stroke-width="10" stroke-miterlimit="10" width="27.774" height="85"/>
						
							<rect x="4276.286" y="1059.699" fill="none" stroke="#22B14C" stroke-width="10" stroke-miterlimit="10" width="20.999" height="46.666"/>
					</g>
					
						<line fill="none" stroke="#22B14C" stroke-width="10" stroke-miterlimit="10" x1="4420.511" y1="983.032" x2="4410.759" y2="983.032"/>
					
						<line fill="none" stroke="#22B14C" stroke-width="10" stroke-miterlimit="10" x1="4342.511" y1="983.032" x2="4352.263" y2="983.032"/>
				</g>
			</g>
		</g>
		<g>
			<path fill="none" stroke="#22B14C" stroke-width="10" stroke-miterlimit="10" d="M4183.275,1106.499h-125.379h-7.339
				c-83.743-66.512-134.62-154.018-134.62-249.899c0-95.887,66.154-183.388,149.897-249.899l1.222,0.415h94.831"/>
			<path fill="none" stroke="#22B14C" stroke-width="10" stroke-miterlimit="10" d="M4062.469,1106.499h125.38h7.338
				c83.743-66.512,134.62-154.018,134.62-249.899c0-95.887-66.154-183.388-149.896-249.899l-1.223,0.415h-94.831"/>
		</g>
		<g>
			<path fill="none" stroke="#22B14C" stroke-width="10" stroke-miterlimit="10" d="M4051.428,1103.39
				c-22.852-60.268-37.041-144.442-37.041-237.578c0-103.055,32.648-195.136,59.905-256.002"/>
			<path fill="none" stroke="#22B14C" stroke-width="10" stroke-miterlimit="10" d="M4192.106,1103.39
				c22.851-60.268,37.04-144.442,37.04-237.578c0-103.055-32.647-195.136-59.904-256.002"/>
		</g>
		<g>
			
				<line fill="none" stroke="#22B14C" stroke-width="10" stroke-miterlimit="10" x1="3921.54" y1="787.6" x2="3894.587" y2="787.6"/>
			
				<line fill="none" stroke="#22B14C" stroke-width="10" stroke-miterlimit="10" x1="3921.54" y1="883.6" x2="3894.587" y2="883.6"/>
		</g>
		<g>
			
				<line fill="none" stroke="#22B14C" stroke-width="10" stroke-miterlimit="10" x1="4328.601" y1="787.6" x2="4353.369" y2="787.6"/>
			
				<line fill="none" stroke="#22B14C" stroke-width="10" stroke-miterlimit="10" x1="4328.601" y1="883.6" x2="4353.369" y2="883.6"/>
		</g>
	</g>
	<g>
		<path fill="none" stroke="#22B14C" stroke-width="10" stroke-miterlimit="10" d="M4043.899,694.197
			c15.268,33.166,24.803,71.458,26.641,112.51c2.965,66.216-14.657,127.071-45.544,171.935"/>
		<path fill="none" stroke="#22B14C" stroke-width="10" stroke-miterlimit="10" d="M4201.846,694.197
			c-15.268,33.166-24.803,71.458-26.641,112.51c-2.965,66.216,14.657,127.071,45.544,171.935"/>
	</g>
	<g>
		
			<line fill="none" stroke="#22B14C" stroke-width="10" stroke-miterlimit="10" x1="4023.121" y1="782.182" x2="3945.932" y2="747.406"/>
		
			<line fill="none" stroke="#22B14C" stroke-width="10" stroke-miterlimit="10" x1="4222.624" y1="782.182" x2="4299.813" y2="747.406"/>
	</g>
	<g>
		
			<line fill="none" stroke="#22B14C" stroke-width="10" stroke-miterlimit="10" x1="4222.623" y1="950.406" x2="4299.813" y2="985.182"/>
		
			<line fill="none" stroke="#22B14C" stroke-width="10" stroke-miterlimit="10" x1="4023.12" y1="950.406" x2="3945.932" y2="985.182"/>
	</g>
</g>
<path fill="none" stroke="#22B14C" stroke-width="15" stroke-miterlimit="10" d="M3469.514,305.984V115.623
	c0-59.543,48.266-107.813,107.816-107.813h92.834c59.54,0,107.812,48.27,107.812,107.813v190.361H3469.514z"/>
<path fill="none" stroke="#22B14C" stroke-width="15" stroke-miterlimit="10" d="M3469.514,115.623L3347.647-481.5
	c-9.828-32.506,8.557-66.826,41.063-76.652c32.507-9.829,66.825,8.558,76.653,41.064L3630.465,7.811"/>
<line fill="none" stroke="#22B14C" stroke-width="15" stroke-miterlimit="10" x1="3355.63" y1="-445.003" x2="2571.797" y2="-114.766"/>
<line fill="none" stroke="#22B14C" stroke-width="15" stroke-miterlimit="10" x1="2552.761" y1="-188.811" x2="3317.939" y2="-512.317"/>
<line fill="none" stroke="#22B14C" stroke-width="15" stroke-miterlimit="10" x1="3277.548" y1="-563.314" x2="2495.868" y2="-232.833"/>
<line fill="none" stroke="#22B14C" stroke-width="15" stroke-miterlimit="10" x1="2453.95" y1="-259.072" x2="3261.779" y2="-600.609"/>
<rect x="2421.167" y="187.803" fill="none" stroke="#22B14C" stroke-width="15" stroke-miterlimit="10" width="133" height="200.989"/>
<path fill="none" stroke="#22B14C" stroke-width="15" stroke-miterlimit="10" d="M3478.911-474.021l205.426-24.232
	c6.768,4.371,14.822,6.919,23.477,6.919c23.934,0,43.334-19.401,43.334-43.334c0-23.932-19.4-43.333-43.334-43.333
	c-16.448,0-30.756,9.165-38.096,22.667l-135.556,1.557"/>
<path fill="none" stroke="#22B14C" stroke-width="15" stroke-miterlimit="10" d="M2467.036-208.49
	c0,16.678-13.521,30.198-30.201,30.198c-16.675,0-30.196-13.521-30.196-30.198s13.521-30.198,30.196-30.198
	C2453.515-238.688,2467.036-225.168,2467.036-208.49z"/>
<circle fill="none" stroke="#22B14C" stroke-width="15" stroke-miterlimit="10" cx="3708.481" cy="-535.164" r="13.59"/>
<rect x="2441.167" y="-38.334" fill="none" stroke="#22B14C" stroke-width="15" stroke-miterlimit="10" width="93.846" height="226.137"/>
<rect x="2535.013" y="30.666" fill="none" stroke="#22B14C" stroke-width="15" stroke-miterlimit="10" width="61.154" height="94"/>
<rect x="2421.167" y="30.666" fill="none" stroke="#22B14C" stroke-width="15" stroke-miterlimit="10" width="21.341" height="94"/>
<path fill="none" stroke="#22B14C" stroke-width="15" stroke-miterlimit="10" d="M2538.163-200.212l0.006-0.003l-100.096-71.51
	l-74.812,52.436l62.733,93.831v86.224h117.32v-31.363c20.543-13.541,34.107-36.806,34.107-63.248
	C2577.423-162.444,2561.563-187.331,2538.163-200.212z"/>
<line fill="none" stroke="#22B14C" stroke-width="15" stroke-miterlimit="10" x1="3745.222" y1="-524.648" x2="3898.45" y2="64.734"/>
<line fill="none" stroke="#22B14C" stroke-width="15" stroke-miterlimit="10" x1="3701.583" y1="-491.783" x2="3848.349" y2="75.734"/>
<circle fill="none" stroke="#22B14C" stroke-width="15" stroke-miterlimit="10" cx="3876.548" cy="85.424" r="30.199"/>
<line fill="none" stroke="#22B14C" stroke-width="15" stroke-miterlimit="10" x1="3841.859" y1="55.227" x2="3751.147" y2="44.462"/>
<line fill="none" stroke="#22B14C" stroke-width="15" stroke-miterlimit="10" x1="3869.167" y1="115.623" x2="3776.966" y2="150.666"/>
<path fill="none" stroke="#22B14C" stroke-width="15" stroke-miterlimit="10" d="M3519.811-601.997l-226.253-25.919
	c-11.031-1.264-21.777,4.076-27.434,13.635c-5.654,9.557-5.161,21.545,1.26,30.605l73.429,103.644
	c6.481,9.148,17.561,13.371,28.119,11.406c2.593-0.482,5.157-1.34,7.614-2.588l152.82-77.724
	c11.074-5.632,17.146-17.856,14.942-30.082C3542.106-591.245,3532.151-600.582,3519.811-601.997z"/>
<circle fill="none" stroke="#22B14C" stroke-width="15" stroke-miterlimit="10" cx="3292.167" cy="-598.923" r="13.59"/>
<circle fill="none" stroke="#22B14C" stroke-width="15" stroke-miterlimit="10" cx="3514.165" cy="-573.389" r="13.59"/>
<circle fill="none" stroke="#22B14C" stroke-width="15" stroke-miterlimit="10" cx="3364.576" cy="-498.269" r="13.589"/>
<rect x="2369.167" y="244.666" fill="none" stroke="#22B14C" stroke-width="15" stroke-miterlimit="10" width="52" height="86"/>
<rect x="2369.167" y="30.666" fill="none" stroke="#22B14C" stroke-width="15" stroke-miterlimit="10" width="17" height="214"/>
<rect x="2386.167" y="51.666" fill="none" stroke="#22B14C" stroke-width="15" stroke-miterlimit="10" width="35" height="52"/>
<circle fill="none" stroke="#22B14C" stroke-width="15" stroke-miterlimit="10" cx="3676.481" cy="63.933" r="30.199"/>
<path fill="none" stroke="#22B14C" stroke-width="15" stroke-miterlimit="10" d="M3701.635,197.213
	c3.092,3.092,3.092,8.104,0,11.197l-38.254,38.253c-3.092,3.092-8.104,3.092-11.196,0L3544.422,138.9
	c-3.092-3.092-3.092-8.105,0-11.197l38.254-38.253c3.092-3.093,8.104-3.093,11.196,0L3701.635,197.213z"/>
<circle fill="none" stroke="#22B14C" stroke-width="30" stroke-miterlimit="10" cx="2935.35" cy="-1128.171" r="315.264"/>
<rect x="2803.336" y="-1260.183" fill="none" stroke="#22B14C" stroke-width="30" stroke-miterlimit="10" width="264.027" height="264.025"/>
<line fill="none" stroke="#787878" stroke-width="70" stroke-miterlimit="10" x1="1453.168" y1="-846.786" x2="1453.168" y2="-943.704"/>
<line fill="none" stroke="#787878" stroke-width="70" stroke-miterlimit="10" x1="1786.5" y1="-846.786" x2="1786.5" y2="-1132.456"/>
<line fill="none" stroke="#787878" stroke-width="70" stroke-miterlimit="10" x1="2119.833" y1="-846.786" x2="2119.833" y2="-1322.978"/>
<line fill="none" stroke="#787878" stroke-width="70" stroke-miterlimit="10" x1="2453.165" y1="-846.786" x2="2453.165" y2="-1513.452"/>
<polygon fill="none" stroke="#787878" stroke-width="70" stroke-miterlimit="10" points="1088.222,-972.442 1088.222,-861.325 
	-24.283,-861.325 -24.283,-1527.995 1088.222,-1527.995 1088.222,-1442.027 1088.222,-1416.882 1309.046,-1416.882 
	1309.046,-972.442 "/>
<g>
	
		<line fill="none" stroke="#787878" stroke-width="70" stroke-miterlimit="10" x1="197.867" y1="-1422.883" x2="197.867" y2="-972.447"/>
</g>
<g>
	
		<line fill="none" stroke="#787878" stroke-width="70" stroke-miterlimit="10" x1="420.16" y1="-1422.883" x2="420.16" y2="-972.447"/>
</g>
<g>
	
		<line fill="none" stroke="#787878" stroke-width="70" stroke-miterlimit="10" x1="642.311" y1="-1422.883" x2="642.311" y2="-972.447"/>
</g>
<g>
	
		<line fill="none" stroke="#787878" stroke-width="70" stroke-miterlimit="10" x1="864.603" y1="-1422.883" x2="864.603" y2="-972.447"/>
</g>
<line fill="none" stroke="#787878" stroke-width="70" stroke-miterlimit="10" x1="1088.222" y1="-1416.882" x2="1088.222" y2="-972.442"/>
<g>
	
		<line fill="none" stroke="#787878" stroke-width="70" stroke-miterlimit="10" x1="-24.284" y1="-753.999" x2="1309.046" y2="-753.999"/>
	
		<line fill="none" stroke="#787878" stroke-width="70" stroke-miterlimit="10" x1="-24.284" y1="-87.335" x2="1309.046" y2="-87.335"/>
	
		<line fill="none" stroke="#787878" stroke-width="70" stroke-miterlimit="10" x1="-24.284" y1="-420.666" x2="1309.046" y2="-420.666"/>
</g>
<g>
	<polyline fill="none" stroke="#787878" stroke-width="70" stroke-miterlimit="10" points="257.771,702.021 35.548,702.021 
		35.548,479.798 	"/>
	<polyline fill="none" stroke="#787878" stroke-width="70" stroke-miterlimit="10" points="479.992,702.026 702.215,702.026 
		702.215,479.8 	"/>
	<polyline fill="none" stroke="#787878" stroke-width="70" stroke-miterlimit="10" points="479.992,35.356 702.215,35.356 
		702.215,257.582 	"/>
	<polyline fill="none" stroke="#787878" stroke-width="70" stroke-miterlimit="10" points="257.771,35.356 35.549,35.356 
		35.549,257.582 	"/>
</g>
<polygon fill="none" stroke="#787878" stroke-width="70" stroke-miterlimit="10" points="767.208,1056.56 723.232,944.605 
	275.373,944.605 231.395,1056.56 176.397,1056.559 54.465,1056.559 54.465,1611.37 943.138,1611.37 943.138,1056.559 
	823.861,1056.559 "/>
<path fill="none" stroke="#787878" stroke-width="70" stroke-miterlimit="10" d="M637.68,1305.752
	c0,76.701-62.178,138.88-138.878,138.88c-76.701,0-138.879-62.179-138.879-138.88c0-76.697,62.178-138.877,138.879-138.877
	C575.502,1166.875,637.68,1229.055,637.68,1305.752z"/>
<g>
	<circle fill="none" stroke="#787878" stroke-width="60" stroke-miterlimit="10" cx="513.622" cy="2055.101" r="333.333"/>
	<circle fill="none" stroke="#787878" stroke-width="60" stroke-miterlimit="10" cx="513.622" cy="2055.101" r="166.665"/>
</g>
</svg>
