<?xml version="1.0" encoding="UTF-8" standalone="no"?>
<svg
   xmlns:dc="http://purl.org/dc/elements/1.1/"
   xmlns:cc="http://creativecommons.org/ns#"
   xmlns:rdf="http://www.w3.org/1999/02/22-rdf-syntax-ns#"
   xmlns:svg="http://www.w3.org/2000/svg"
   xmlns="http://www.w3.org/2000/svg"
   xml:space="preserve"
   enable-background="new 0 0 1625.675 1079.784"
   viewBox="0 0 1625.675 1079.784"
   height="1079.784px"
   width="1625.675px"
   y="0px"
   x="0px"
   id="Layer_11"
   version="1.1"><metadata
   id="metadata63"><rdf:RDF><cc:Work
       rdf:about=""><dc:format>image/svg+xml</dc:format><dc:type
         rdf:resource="http://purl.org/dc/dcmitype/StillImage" /><dc:title></dc:title></cc:Work></rdf:RDF></metadata><defs
   id="defs61" />
<path
   style="stroke:#22b14c;stroke-opacity:1"
   id="path2"
   d="M1145.891,966.608V776.246  c0-59.543,48.266-107.812,107.816-107.812h92.834c59.54,0,107.812,48.269,107.812,107.812v190.362H1145.891z"
   stroke-miterlimit="10"
   stroke-width="15"
   stroke="#00FF00"
   fill="none" />
<path
   style="stroke:#22b14c;stroke-opacity:1"
   id="path4"
   d="M1145.891,776.246l-121.866-597.123  c-9.828-32.506,8.557-66.825,41.063-76.652c32.507-9.829,66.825,8.558,76.653,41.064l165.101,524.899"
   stroke-miterlimit="10"
   stroke-width="15"
   stroke="#00FF00"
   fill="none" />
<line
   style="stroke:#22b14c;stroke-opacity:1"
   id="line6"
   y2="545.857"
   x2="248.174"
   y1="215.62"
   x1="1032.007"
   stroke-miterlimit="10"
   stroke-width="15"
   stroke="#00FF00"
   fill="none" />
<line
   style="stroke:#22b14c;stroke-opacity:1"
   id="line8"
   y2="148.306"
   x2="994.316"
   y1="471.812"
   x1="229.138"
   stroke-miterlimit="10"
   stroke-width="15"
   stroke="#00FF00"
   fill="none" />
<line
   style="stroke:#22b14c;stroke-opacity:1"
   id="line10"
   y2="427.79"
   x2="172.245"
   y1="97.309"
   x1="953.925"
   stroke-miterlimit="10"
   stroke-width="15"
   stroke="#00FF00"
   fill="none" />
<line
   style="stroke:#22b14c;stroke-opacity:1"
   id="line12"
   y2="60.014"
   x2="938.156"
   y1="401.551"
   x1="130.327"
   stroke-miterlimit="10"
   stroke-width="15"
   stroke="#00FF00"
   fill="none" />
<rect
   style="stroke:#22b14c;stroke-opacity:1"
   id="rect14"
   height="200.99"
   width="133"
   stroke-miterlimit="10"
   stroke-width="15"
   stroke="#00FF00"
   fill="none"
   y="848.425"
   x="97.544" />
<path
   style="stroke:#22b14c;stroke-opacity:1"
   id="path16"
   d="M1155.288,186.603l205.426-24.232  c6.768,4.371,14.822,6.918,23.477,6.918c23.934,0,43.334-19.401,43.334-43.333c0-23.932-19.4-43.333-43.334-43.333  c-16.448,0-30.756,9.165-38.096,22.667l-135.556,1.557"
   stroke-miterlimit="10"
   stroke-width="15"
   stroke="#00FF00"
   fill="none" />
<path
   style="stroke:#22b14c;stroke-opacity:1"
   id="path18"
   d="M143.413,452.133  c0,16.678-13.521,30.198-30.201,30.198c-16.675,0-30.196-13.521-30.196-30.198s13.521-30.198,30.196-30.198  C129.892,421.935,143.413,435.455,143.413,452.133z"
   stroke-miterlimit="10"
   stroke-width="15"
   stroke="#00FF00"
   fill="none" />
<circle
   style="stroke:#22b14c;stroke-opacity:1"
   id="circle20"
   r="13.59"
   cy="125.459"
   cx="1384.858"
   stroke-miterlimit="10"
   stroke-width="15"
   stroke="#00FF00"
   fill="none" />
<rect
   style="stroke:#22b14c;stroke-opacity:1"
   id="rect22"
   height="226.136"
   width="93.846"
   stroke-miterlimit="10"
   stroke-width="15"
   stroke="#00FF00"
   fill="none"
   y="622.289"
   x="117.544" />
<rect
   style="stroke:#22b14c;stroke-opacity:1"
   id="rect24"
   height="94"
   width="61.154"
   stroke-miterlimit="10"
   stroke-width="15"
   stroke="#00FF00"
   fill="none"
   y="691.289"
   x="211.39" />
<rect
   style="stroke:#22b14c;stroke-opacity:1"
   id="rect26"
   height="94"
   width="21.341"
   stroke-miterlimit="10"
   stroke-width="15"
   stroke="#00FF00"
   fill="none"
   y="691.289"
   x="97.544" />
<path
   style="stroke:#22b14c;stroke-opacity:1"
   id="path28"
   d="M214.54,460.411l0.006-0.003l-100.096-71.51  l-74.812,52.437l62.733,93.831v86.224h117.32v-31.364c20.543-13.541,34.107-36.805,34.107-63.248  C253.8,498.179,237.94,473.292,214.54,460.411z"
   stroke-miterlimit="10"
   stroke-width="15"
   stroke="#00FF00"
   fill="none" />
<line
   style="stroke:#22b14c;stroke-opacity:1"
   id="line30"
   y2="725.357"
   x2="1574.827"
   y1="135.974"
   x1="1421.599"
   stroke-miterlimit="10"
   stroke-width="15"
   stroke="#00FF00"
   fill="none" />
<line
   style="stroke:#22b14c;stroke-opacity:1"
   id="line32"
   y2="736.357"
   x2="1524.726"
   y1="168.84"
   x1="1377.96"
   stroke-miterlimit="10"
   stroke-width="15"
   stroke="#00FF00"
   fill="none" />
<circle
   style="stroke:#22b14c;stroke-opacity:1"
   id="circle34"
   r="30.199"
   cy="746.047"
   cx="1552.925"
   stroke-miterlimit="10"
   stroke-width="15"
   stroke="#00FF00"
   fill="none" />
<line
   style="stroke:#22b14c;stroke-opacity:1"
   id="line36"
   y2="705.085"
   x2="1427.524"
   y1="715.849"
   x1="1518.236"
   stroke-miterlimit="10"
   stroke-width="15"
   stroke="#00FF00"
   fill="none" />
<line
   style="stroke:#22b14c;stroke-opacity:1"
   id="line38"
   y2="811.289"
   x2="1453.343"
   y1="776.246"
   x1="1545.544"
   stroke-miterlimit="10"
   stroke-width="15"
   stroke="#00FF00"
   fill="none" />
<path
   style="stroke:#22b14c;stroke-opacity:1"
   id="path40"
   d="M1196.188,58.626L969.935,32.707  c-11.031-1.263-21.777,4.076-27.434,13.635c-5.654,9.557-5.161,21.545,1.26,30.605l73.429,103.644  c6.481,9.148,17.561,13.371,28.119,11.406c2.593-0.482,5.157-1.34,7.614-2.588l152.82-77.724  c11.074-5.631,17.146-17.856,14.942-30.081C1218.483,69.378,1208.528,60.041,1196.188,58.626z"
   stroke-miterlimit="10"
   stroke-width="15"
   stroke="#00FF00"
   fill="none" />
<circle
   style="stroke:#22b14c;stroke-opacity:1"
   id="circle42"
   r="13.59"
   cy="62.701"
   cx="968.544"
   stroke-miterlimit="10"
   stroke-width="15"
   stroke="#00FF00"
   fill="none" />
<circle
   style="stroke:#22b14c;stroke-opacity:1"
   id="circle44"
   r="13.59"
   cy="87.234"
   cx="1192.544"
   stroke-miterlimit="10"
   stroke-width="15"
   stroke="#00FF00"
   fill="none" />
<circle
   style="stroke:#22b14c;stroke-opacity:1"
   id="circle46"
   r="13.59"
   cy="161.354"
   cx="1042.954"
   stroke-miterlimit="10"
   stroke-width="15"
   stroke="#00FF00"
   fill="none" />
<rect
   style="stroke:#22b14c;stroke-opacity:1"
   id="rect48"
   height="86"
   width="52"
   stroke-miterlimit="10"
   stroke-width="15"
   stroke="#00FF00"
   fill="none"
   y="905.289"
   x="45.544" />
<rect
   style="stroke:#22b14c;stroke-opacity:1"
   id="rect50"
   height="214"
   width="17"
   stroke-miterlimit="10"
   stroke-width="15"
   stroke="#00FF00"
   fill="none"
   y="691.289"
   x="45.544" />
<rect
   style="stroke:#22b14c;stroke-opacity:1"
   id="rect52"
   height="52"
   width="35"
   stroke-miterlimit="10"
   stroke-width="15"
   stroke="#00FF00"
   fill="none"
   y="712.289"
   x="62.544" />
<circle
   style="stroke:#22b14c;stroke-opacity:1"
   id="circle54"
   r="30.199"
   cy="724.556"
   cx="1352.858"
   stroke-miterlimit="10"
   stroke-width="15"
   stroke="#00FF00"
   fill="none" />
<path
   style="stroke:#22b14c;stroke-opacity:1"
   id="path56"
   d="M1378.012,857.836  c3.092,3.091,3.092,8.104,0,11.196l-38.254,38.253c-3.092,3.092-8.104,3.092-11.196,0l-107.763-107.763  c-3.092-3.092-3.092-8.104,0-11.196l38.254-38.253c3.092-3.092,8.104-3.092,11.196,0L1378.012,857.836z"
   stroke-miterlimit="10"
   stroke-width="15"
   stroke="#00FF00"
   fill="none" />
</svg>