<?xml version="1.0" encoding="UTF-8" standalone="no"?>
<svg
   xmlns:dc="http://purl.org/dc/elements/1.1/"
   xmlns:cc="http://creativecommons.org/ns#"
   xmlns:rdf="http://www.w3.org/1999/02/22-rdf-syntax-ns#"
   xmlns:svg="http://www.w3.org/2000/svg"
   xmlns="http://www.w3.org/2000/svg"
   xmlns:sodipodi="http://sodipodi.sourceforge.net/DTD/sodipodi-0.dtd"
   xmlns:inkscape="http://www.inkscape.org/namespaces/inkscape"
   height="24px"
   version="1.1"
   viewBox="0 0 24 24"
   width="24px"
   id="svg12"
   sodipodi:docname="if_screen-rotation_326583.svg"
   inkscape:version="0.92.3 (unknown)">
  <metadata
     id="metadata16">
    <rdf:RDF>
      <cc:Work
         rdf:about="">
        <dc:format>image/svg+xml</dc:format>
        <dc:type
           rdf:resource="http://purl.org/dc/dcmitype/StillImage" />
      </cc:Work>
    </rdf:RDF>
  </metadata>
  <sodipodi:namedview
     pagecolor="#ffffff"
     bordercolor="#666666"
     borderopacity="1"
     objecttolerance="10"
     gridtolerance="10"
     guidetolerance="10"
     inkscape:pageopacity="0"
     inkscape:pageshadow="2"
     inkscape:window-width="1600"
     inkscape:window-height="837"
     id="namedview14"
     showgrid="false"
     inkscape:zoom="5.6568543"
     inkscape:cx="15.982079"
     inkscape:cy="-29.242404"
     inkscape:window-x="0"
     inkscape:window-y="30"
     inkscape:window-maximized="1"
     inkscape:current-layer="svg12" />
  <title
     id="title2" />
  <desc
     id="desc4" />
  <defs
     id="defs6" />
  <g
     id="Page-1"
     stroke-width="1"
     stroke="none"
     fill-rule="evenodd"
     fill="none"
     style="fill:#ffffff">
    <g
       id="Icons-Device"
       transform="translate(-210.000000, -124.000000)"
       fill="#000000"
       style="fill:#ffffff">
      <g
         id="screen-rotation"
         transform="translate(210.000000, 124.000000)"
         style="fill:#ffffff">
        <path
           d="M16.5,2.5 C19.8,4 22.1,7.2 22.5,11 L24,11 C23.4,4.8 18.3,0 12,0 L11.3,0 L15.1,3.8 L16.5,2.5 L16.5,2.5 Z M10.2,1.7 C9.6,1.1 8.7,1.1 8.1,1.7 L1.7,8.1 C1.1,8.7 1.1,9.6 1.7,10.2 L13.7,22.2 C14.3,22.8 15.2,22.8 15.8,22.2 L22.2,15.8 C22.8,15.2 22.8,14.3 22.2,13.7 L10.2,1.7 L10.2,1.7 Z M14.8,21.2 L2.8,9.2 L9.2,2.8 L21.2,14.8 L14.8,21.2 L14.8,21.2 Z M7.5,21.5 C4.2,20 1.9,16.8 1.5,13 L0.1,13 C0.6,19.2 5.7,24 12,24 L12.7,24 L8.9,20.2 L7.5,21.5 L7.5,21.5 Z"
           id="Shape"
           style="fill:#ffffff" />
      </g>
    </g>
  </g>
</svg>
