<?xml version="1.0" encoding="utf-8"?>
<!-- Generator: Adobe Illustrator 16.0.0, SVG Export Plug-In . SVG Version: 6.00 Build 0)  -->
<!DOCTYPE svg PUBLIC "-//W3C//DTD SVG 1.1//EN" "http://www.w3.org/Graphics/SVG/1.1/DTD/svg11.dtd">
<svg version="1.1" id="Objects" xmlns="http://www.w3.org/2000/svg" xmlns:xlink="http://www.w3.org/1999/xlink" x="0px" y="0px"
	 width="685px" height="460.276px" viewBox="0 0 685 460.276" enable-background="new 0 0 685 460.276" xml:space="preserve">
<g>
	<g>
		<circle cx="4.5" cy="0.5" r="0.5"/>
		<circle cx="25.106" cy="0.5" r="0.5"/>
		<circle cx="45.712" cy="0.5" r="0.5"/>
		<circle cx="66.318" cy="0.5" r="0.5"/>
		<circle cx="86.924" cy="0.5" r="0.5"/>
		<circle cx="107.53" cy="0.5" r="0.5"/>
		<circle cx="128.136" cy="0.5" r="0.5"/>
		<circle cx="148.742" cy="0.5" r="0.5"/>
		<circle cx="169.349" cy="0.501" r="0.5"/>
		<circle cx="189.954" cy="0.5" r="0.5"/>
		<circle cx="210.561" cy="0.5" r="0.5"/>
		<circle cx="231.166" cy="0.501" r="0.5"/>
		<circle cx="251.772" cy="0.501" r="0.5"/>
		<circle cx="272.378" cy="0.501" r="0.5"/>
		<circle cx="292.984" cy="0.5" r="0.5"/>
		<circle cx="313.591" cy="0.501" r="0.5"/>
		<circle cx="334.196" cy="0.501" r="0.5"/>
		<circle cx="354.803" cy="0.5" r="0.5"/>
		<circle cx="375.409" cy="0.5" r="0.5"/>
		<circle cx="396.015" cy="0.501" r="0.5"/>
		<circle cx="416.621" cy="0.5" r="0.5"/>
		<circle cx="437.227" cy="0.501" r="0.5"/>
		<circle cx="457.833" cy="0.501" r="0.5"/>
		<circle cx="478.439" cy="0.501" r="0.5"/>
		<circle cx="499.046" cy="0.501" r="0.5"/>
		<circle cx="519.651" cy="0.5" r="0.5"/>
		<circle cx="540.258" cy="0.5" r="0.5"/>
		<circle cx="560.863" cy="0.5" r="0.5"/>
		<circle cx="581.47" cy="0.5" r="0.5"/>
		<circle cx="602.075" cy="0.5" r="0.5"/>
		<circle cx="622.682" cy="0.5" r="0.5"/>
		<circle cx="643.288" cy="0.5" r="0.5"/>
		<circle cx="663.894" cy="0.5" r="0.5"/>
		<circle cx="684.5" cy="0.5" r="0.5"/>
	</g>
	<g>
		<circle cx="4.5" cy="22.395" r="0.5"/>
		<circle cx="25.106" cy="22.395" r="0.5"/>
		<circle cx="45.712" cy="22.395" r="0.5"/>
		<circle cx="66.318" cy="22.395" r="0.5"/>
		<circle cx="86.924" cy="22.395" r="0.5"/>
		<circle cx="107.53" cy="22.395" r="0.5"/>
		<circle cx="128.136" cy="22.394" r="0.5"/>
		<circle cx="148.742" cy="22.394" r="0.5"/>
		<circle cx="169.349" cy="22.395" r="0.5"/>
		<circle cx="189.954" cy="22.395" r="0.5"/>
		<circle cx="210.561" cy="22.394" r="0.5"/>
		<circle cx="231.166" cy="22.395" r="0.5"/>
		<circle cx="251.772" cy="22.395" r="0.5"/>
		<circle cx="272.378" cy="22.395" r="0.5"/>
		<circle cx="292.984" cy="22.394" r="0.5"/>
		<circle cx="313.591" cy="22.395" r="0.5"/>
		<circle cx="334.196" cy="22.395" r="0.5"/>
		<circle cx="354.803" cy="22.395" r="0.5"/>
		<circle cx="375.409" cy="22.395" r="0.5"/>
		<circle cx="396.015" cy="22.395" r="0.5"/>
		<circle cx="416.62" cy="22.394" r="0.5"/>
		<circle cx="437.227" cy="22.395" r="0.5"/>
		<circle cx="457.833" cy="22.395" r="0.5"/>
		<circle cx="478.439" cy="22.395" r="0.5"/>
		<circle cx="499.046" cy="22.395" r="0.5"/>
		<circle cx="519.651" cy="22.395" r="0.5"/>
		<circle cx="540.258" cy="22.395" r="0.5"/>
		<circle cx="560.863" cy="22.394" r="0.5"/>
		<circle cx="581.47" cy="22.395" r="0.5"/>
		<circle cx="602.075" cy="22.395" r="0.5"/>
		<circle cx="622.682" cy="22.395" r="0.5"/>
		<circle cx="643.288" cy="22.395" r="0.5"/>
		<circle cx="663.894" cy="22.395" r="0.5"/>
		<circle cx="684.5" cy="22.395" r="0.5"/>
	</g>
	<g>
		<circle cx="4.5" cy="44.289" r="0.5"/>
		<circle cx="25.106" cy="44.289" r="0.5"/>
		<circle cx="45.712" cy="44.289" r="0.5"/>
		<circle cx="66.318" cy="44.289" r="0.5"/>
		<circle cx="86.924" cy="44.289" r="0.5"/>
		<circle cx="107.53" cy="44.289" r="0.5"/>
		<circle cx="128.136" cy="44.288" r="0.5"/>
		<circle cx="148.742" cy="44.288" r="0.5"/>
		<circle cx="169.349" cy="44.289" r="0.5"/>
		<circle cx="189.954" cy="44.289" r="0.5"/>
		<circle cx="210.561" cy="44.288" r="0.5"/>
		<circle cx="231.166" cy="44.289" r="0.5"/>
		<circle cx="251.772" cy="44.289" r="0.5"/>
		<circle cx="272.378" cy="44.289" r="0.5"/>
		<circle cx="292.984" cy="44.288" r="0.5"/>
		<circle cx="313.591" cy="44.289" r="0.5"/>
		<circle cx="334.196" cy="44.289" r="0.5"/>
		<circle cx="354.803" cy="44.289" r="0.5"/>
		<circle cx="375.409" cy="44.289" r="0.5"/>
		<circle cx="396.015" cy="44.289" r="0.5"/>
		<circle cx="416.621" cy="44.288" r="0.5"/>
		<circle cx="437.227" cy="44.289" r="0.5"/>
		<circle cx="457.833" cy="44.289" r="0.5"/>
		<circle cx="478.439" cy="44.289" r="0.5"/>
		<circle cx="499.046" cy="44.289" r="0.5"/>
		<circle cx="519.651" cy="44.289" r="0.5"/>
		<circle cx="540.258" cy="44.289" r="0.5"/>
		<circle cx="560.864" cy="44.288" r="0.5"/>
		<circle cx="581.47" cy="44.289" r="0.5"/>
		<circle cx="602.075" cy="44.289" r="0.5"/>
		<circle cx="622.682" cy="44.289" r="0.5"/>
		<circle cx="643.288" cy="44.289" r="0.5"/>
		<circle cx="663.894" cy="44.289" r="0.5"/>
		<circle cx="684.5" cy="44.289" r="0.5"/>
	</g>
	<g>
		<circle cx="4.5" cy="66.183" r="0.5"/>
		<circle cx="25.106" cy="66.183" r="0.5"/>
		<circle cx="45.712" cy="66.183" r="0.5"/>
		<circle cx="66.318" cy="66.183" r="0.5"/>
		<circle cx="86.924" cy="66.183" r="0.5"/>
		<circle cx="107.53" cy="66.183" r="0.5"/>
		<circle cx="128.136" cy="66.183" r="0.5"/>
		<circle cx="148.742" cy="66.183" r="0.5"/>
		<circle cx="169.349" cy="66.183" r="0.5"/>
		<circle cx="189.954" cy="66.183" r="0.5"/>
		<circle cx="210.561" cy="66.183" r="0.5"/>
		<circle cx="231.166" cy="66.183" r="0.5"/>
		<circle cx="251.772" cy="66.183" r="0.5"/>
		<circle cx="272.378" cy="66.183" r="0.5"/>
		<circle cx="292.984" cy="66.183" r="0.5"/>
		<circle cx="313.591" cy="66.183" r="0.5"/>
		<circle cx="334.196" cy="66.183" r="0.5"/>
		<circle cx="354.803" cy="66.183" r="0.5"/>
		<circle cx="375.409" cy="66.183" r="0.5"/>
		<circle cx="396.015" cy="66.183" r="0.5"/>
		<circle cx="416.621" cy="66.183" r="0.5"/>
		<circle cx="437.227" cy="66.183" r="0.5"/>
		<circle cx="457.833" cy="66.183" r="0.5"/>
		<circle cx="478.438" cy="66.183" r="0.5"/>
		<circle cx="499.046" cy="66.183" r="0.5"/>
		<circle cx="519.651" cy="66.183" r="0.5"/>
		<circle cx="540.258" cy="66.183" r="0.5"/>
		<circle cx="560.863" cy="66.183" r="0.5"/>
		<circle cx="581.47" cy="66.183" r="0.5"/>
		<circle cx="602.075" cy="66.183" r="0.5"/>
		<circle cx="622.682" cy="66.183" r="0.5"/>
		<circle cx="643.288" cy="66.183" r="0.5"/>
		<circle cx="663.894" cy="66.183" r="0.5"/>
		<circle cx="684.5" cy="66.183" r="0.5"/>
	</g>
	<g>
		<circle cx="4.5" cy="88.077" r="0.5"/>
		<circle cx="25.106" cy="88.077" r="0.5"/>
		<circle cx="45.712" cy="88.077" r="0.5"/>
		<circle cx="66.318" cy="88.077" r="0.5"/>
		<circle cx="86.924" cy="88.077" r="0.5"/>
		<circle cx="107.53" cy="88.077" r="0.5"/>
		<circle cx="128.136" cy="88.077" r="0.5"/>
		<circle cx="148.742" cy="88.077" r="0.5"/>
		<circle cx="169.349" cy="88.077" r="0.5"/>
		<circle cx="189.954" cy="88.077" r="0.5"/>
		<circle cx="210.561" cy="88.077" r="0.5"/>
		<circle cx="231.166" cy="88.077" r="0.5"/>
		<circle cx="251.772" cy="88.077" r="0.5"/>
		<circle cx="272.378" cy="88.077" r="0.5"/>
		<circle cx="292.984" cy="88.077" r="0.5"/>
		<circle cx="313.591" cy="88.077" r="0.5"/>
		<circle cx="334.196" cy="88.077" r="0.5"/>
		<circle cx="354.803" cy="88.077" r="0.5"/>
		<circle cx="375.409" cy="88.077" r="0.5"/>
		<circle cx="396.015" cy="88.077" r="0.5"/>
		<circle cx="416.621" cy="88.077" r="0.5"/>
		<circle cx="437.227" cy="88.077" r="0.5"/>
		<circle cx="457.833" cy="88.077" r="0.5"/>
		<circle cx="478.439" cy="88.077" r="0.5"/>
		<circle cx="499.046" cy="88.077" r="0.5"/>
		<circle cx="519.651" cy="88.077" r="0.5"/>
		<circle cx="540.258" cy="88.077" r="0.5"/>
		<circle cx="560.863" cy="88.077" r="0.5"/>
		<circle cx="581.47" cy="88.077" r="0.5"/>
		<circle cx="602.075" cy="88.077" r="0.5"/>
		<circle cx="622.682" cy="88.077" r="0.5"/>
		<circle cx="643.288" cy="88.077" r="0.5"/>
		<circle cx="663.894" cy="88.077" r="0.5"/>
		<circle cx="684.5" cy="88.077" r="0.5"/>
	</g>
	<g>
		<circle cx="4.5" cy="109.971" r="0.5"/>
		<circle cx="25.106" cy="109.971" r="0.5"/>
		<circle cx="45.712" cy="109.971" r="0.5"/>
		<circle cx="66.318" cy="109.971" r="0.5"/>
		<circle cx="86.924" cy="109.971" r="0.5"/>
		<circle cx="107.53" cy="109.971" r="0.5"/>
		<circle cx="128.136" cy="109.971" r="0.5"/>
		<circle cx="148.742" cy="109.971" r="0.5"/>
		<circle cx="169.349" cy="109.971" r="0.5"/>
		<circle cx="189.954" cy="109.971" r="0.5"/>
		<circle cx="210.561" cy="109.971" r="0.5"/>
		<circle cx="231.166" cy="109.971" r="0.5"/>
		<circle cx="251.772" cy="109.971" r="0.5"/>
		<circle cx="272.378" cy="109.971" r="0.5"/>
		<circle cx="292.984" cy="109.971" r="0.5"/>
		<circle cx="313.591" cy="109.972" r="0.5"/>
		<circle cx="334.196" cy="109.972" r="0.5"/>
		<circle cx="354.803" cy="109.971" r="0.5"/>
		<circle cx="375.409" cy="109.971" r="0.5"/>
		<circle cx="396.015" cy="109.971" r="0.5"/>
		<circle cx="416.621" cy="109.971" r="0.5"/>
		<circle cx="437.227" cy="109.971" r="0.5"/>
		<circle cx="457.833" cy="109.971" r="0.5"/>
		<circle cx="478.439" cy="109.971" r="0.5"/>
		<circle cx="499.046" cy="109.971" r="0.5"/>
		<circle cx="519.651" cy="109.971" r="0.5"/>
		<circle cx="540.258" cy="109.971" r="0.5"/>
		<circle cx="560.863" cy="109.971" r="0.5"/>
		<circle cx="581.47" cy="109.971" r="0.5"/>
		<circle cx="602.075" cy="109.971" r="0.5"/>
		<circle cx="622.682" cy="109.971" r="0.5"/>
		<circle cx="643.288" cy="109.971" r="0.5"/>
		<circle cx="663.894" cy="109.971" r="0.5"/>
		<circle cx="684.5" cy="109.971" r="0.5"/>
	</g>
	<g>
		<circle cx="4.5" cy="131.865" r="0.5"/>
		<circle cx="25.106" cy="131.865" r="0.5"/>
		<circle cx="45.712" cy="131.865" r="0.5"/>
		<circle cx="66.318" cy="131.865" r="0.5"/>
		<circle cx="86.924" cy="131.865" r="0.5"/>
		<circle cx="107.53" cy="131.865" r="0.5"/>
		<circle cx="128.136" cy="131.865" r="0.5"/>
		<circle cx="148.742" cy="131.865" r="0.5"/>
		<circle cx="169.349" cy="131.865" r="0.5"/>
		<circle cx="189.954" cy="131.865" r="0.5"/>
		<circle cx="210.561" cy="131.865" r="0.5"/>
		<circle cx="231.166" cy="131.865" r="0.5"/>
		<circle cx="251.772" cy="131.865" r="0.5"/>
		<circle cx="272.378" cy="131.865" r="0.5"/>
		<circle cx="292.984" cy="131.865" r="0.5"/>
		<circle cx="313.591" cy="131.865" r="0.5"/>
		<circle cx="334.196" cy="131.865" r="0.5"/>
		<circle cx="354.803" cy="131.865" r="0.5"/>
		<circle cx="375.409" cy="131.865" r="0.5"/>
		<circle cx="396.015" cy="131.865" r="0.5"/>
		<circle cx="416.621" cy="131.865" r="0.5"/>
		<circle cx="437.227" cy="131.865" r="0.5"/>
		<circle cx="457.833" cy="131.865" r="0.5"/>
		<circle cx="478.439" cy="131.865" r="0.5"/>
		<circle cx="499.046" cy="131.865" r="0.5"/>
		<circle cx="519.651" cy="131.865" r="0.5"/>
		<circle cx="540.258" cy="131.865" r="0.5"/>
		<circle cx="560.863" cy="131.865" r="0.5"/>
		<circle cx="581.47" cy="131.865" r="0.5"/>
		<circle cx="602.075" cy="131.865" r="0.5"/>
		<circle cx="622.682" cy="131.865" r="0.5"/>
		<circle cx="643.288" cy="131.865" r="0.5"/>
		<circle cx="663.894" cy="131.865" r="0.5"/>
		<circle cx="684.5" cy="131.865" r="0.5"/>
	</g>
	<g>
		<circle cx="4.5" cy="153.759" r="0.5"/>
		<circle cx="25.106" cy="153.759" r="0.5"/>
		<circle cx="45.712" cy="153.759" r="0.5"/>
		<circle cx="66.318" cy="153.759" r="0.5"/>
		<circle cx="86.924" cy="153.759" r="0.5"/>
		<circle cx="107.53" cy="153.759" r="0.5"/>
		<circle cx="128.136" cy="153.759" r="0.5"/>
		<circle cx="148.742" cy="153.759" r="0.5"/>
		<circle cx="169.349" cy="153.759" r="0.5"/>
		<circle cx="189.954" cy="153.759" r="0.5"/>
		<circle cx="210.561" cy="153.759" r="0.5"/>
		<circle cx="231.166" cy="153.759" r="0.5"/>
		<circle cx="251.772" cy="153.759" r="0.5"/>
		<circle cx="272.378" cy="153.759" r="0.5"/>
		<circle cx="292.984" cy="153.759" r="0.5"/>
		<circle cx="313.591" cy="153.76" r="0.5"/>
		<circle cx="334.196" cy="153.76" r="0.5"/>
		<circle cx="354.803" cy="153.759" r="0.5"/>
		<circle cx="375.409" cy="153.759" r="0.5"/>
		<circle cx="396.015" cy="153.759" r="0.5"/>
		<circle cx="416.621" cy="153.759" r="0.5"/>
		<circle cx="437.227" cy="153.759" r="0.5"/>
		<circle cx="457.833" cy="153.759" r="0.5"/>
		<circle cx="478.439" cy="153.759" r="0.5"/>
		<circle cx="499.046" cy="153.759" r="0.5"/>
		<circle cx="519.651" cy="153.759" r="0.5"/>
		<circle cx="540.258" cy="153.759" r="0.5"/>
		<circle cx="560.863" cy="153.759" r="0.5"/>
		<circle cx="581.47" cy="153.759" r="0.5"/>
		<circle cx="602.075" cy="153.759" r="0.5"/>
		<circle cx="622.682" cy="153.759" r="0.5"/>
		<circle cx="643.288" cy="153.759" r="0.5"/>
		<circle cx="663.894" cy="153.759" r="0.5"/>
		<circle cx="684.5" cy="153.759" r="0.5"/>
	</g>
	<g>
		<circle cx="4.5" cy="175.653" r="0.5"/>
		<circle cx="25.106" cy="175.653" r="0.5"/>
		<circle cx="45.712" cy="175.653" r="0.5"/>
		<circle cx="66.318" cy="175.653" r="0.5"/>
		<circle cx="86.924" cy="175.653" r="0.5"/>
		<circle cx="107.53" cy="175.653" r="0.5"/>
		<circle cx="128.136" cy="175.653" r="0.5"/>
		<circle cx="148.742" cy="175.653" r="0.5"/>
		<circle cx="169.349" cy="175.654" r="0.5"/>
		<circle cx="189.954" cy="175.653" r="0.5"/>
		<circle cx="210.561" cy="175.653" r="0.5"/>
		<circle cx="231.166" cy="175.653" r="0.5"/>
		<circle cx="251.772" cy="175.653" r="0.5"/>
		<circle cx="272.378" cy="175.653" r="0.5"/>
		<circle cx="292.984" cy="175.653" r="0.5"/>
		<circle cx="313.591" cy="175.654" r="0.5"/>
		<circle cx="334.196" cy="175.654" r="0.5"/>
		<circle cx="354.803" cy="175.653" r="0.5"/>
		<circle cx="375.409" cy="175.653" r="0.5"/>
		<circle cx="396.015" cy="175.653" r="0.5"/>
		<circle cx="416.621" cy="175.653" r="0.5"/>
		<circle cx="437.227" cy="175.653" r="0.5"/>
		<circle cx="457.833" cy="175.654" r="0.5"/>
		<circle cx="478.439" cy="175.653" r="0.5"/>
		<circle cx="499.046" cy="175.654" r="0.5"/>
		<circle cx="519.651" cy="175.653" r="0.5"/>
		<circle cx="540.258" cy="175.653" r="0.5"/>
		<circle cx="560.863" cy="175.653" r="0.5"/>
		<circle cx="581.47" cy="175.653" r="0.5"/>
		<circle cx="602.075" cy="175.653" r="0.5"/>
		<circle cx="622.682" cy="175.653" r="0.5"/>
		<circle cx="643.288" cy="175.653" r="0.5"/>
		<circle cx="663.894" cy="175.653" r="0.5"/>
		<circle cx="684.5" cy="175.653" r="0.5"/>
	</g>
	<g>
		<circle cx="4.5" cy="197.547" r="0.5"/>
		<circle cx="25.106" cy="197.547" r="0.5"/>
		<circle cx="45.712" cy="197.547" r="0.5"/>
		<circle cx="66.318" cy="197.547" r="0.5"/>
		<circle cx="86.924" cy="197.547" r="0.5"/>
		<circle cx="107.53" cy="197.547" r="0.5"/>
		<circle cx="128.136" cy="197.547" r="0.5"/>
		<circle cx="148.742" cy="197.547" r="0.5"/>
		<circle cx="169.349" cy="197.547" r="0.5"/>
		<circle cx="189.954" cy="197.547" r="0.5"/>
		<circle cx="210.561" cy="197.547" r="0.5"/>
		<circle cx="231.166" cy="197.548" r="0.5"/>
		<circle cx="251.772" cy="197.548" r="0.5"/>
		<circle cx="272.378" cy="197.548" r="0.5"/>
		<circle cx="292.984" cy="197.547" r="0.5"/>
		<circle cx="313.591" cy="197.548" r="0.5"/>
		<circle cx="334.196" cy="197.548" r="0.5"/>
		<circle cx="354.803" cy="197.547" r="0.5"/>
		<circle cx="375.409" cy="197.547" r="0.5"/>
		<circle cx="396.015" cy="197.548" r="0.5"/>
		<circle cx="416.621" cy="197.547" r="0.5"/>
		<circle cx="437.227" cy="197.548" r="0.5"/>
		<circle cx="457.833" cy="197.547" r="0.5"/>
		<circle cx="478.439" cy="197.548" r="0.5"/>
		<circle cx="499.046" cy="197.547" r="0.5"/>
		<circle cx="519.651" cy="197.547" r="0.5"/>
		<circle cx="540.258" cy="197.547" r="0.5"/>
		<circle cx="560.863" cy="197.547" r="0.5"/>
		<circle cx="581.47" cy="197.547" r="0.5"/>
		<circle cx="602.075" cy="197.547" r="0.5"/>
		<circle cx="622.682" cy="197.547" r="0.5"/>
		<circle cx="643.288" cy="197.547" r="0.5"/>
		<circle cx="663.894" cy="197.547" r="0.5"/>
		<circle cx="684.5" cy="197.547" r="0.5"/>
	</g>
	<g>
		<circle cx="4.5" cy="219.441" r="0.5"/>
		<circle cx="25.106" cy="219.441" r="0.5"/>
		<circle cx="45.712" cy="219.441" r="0.5"/>
		<circle cx="66.318" cy="219.441" r="0.5"/>
		<circle cx="86.924" cy="219.441" r="0.5"/>
		<circle cx="107.53" cy="219.441" r="0.5"/>
		<circle cx="128.136" cy="219.441" r="0.5"/>
		<circle cx="148.742" cy="219.441" r="0.5"/>
		<circle cx="169.349" cy="219.442" r="0.5"/>
		<circle cx="189.954" cy="219.441" r="0.5"/>
		<circle cx="210.561" cy="219.441" r="0.5"/>
		<circle cx="231.166" cy="219.441" r="0.5"/>
		<circle cx="251.772" cy="219.441" r="0.5"/>
		<circle cx="272.378" cy="219.441" r="0.5"/>
		<circle cx="292.984" cy="219.441" r="0.5"/>
		<circle cx="313.591" cy="219.442" r="0.5"/>
		<circle cx="334.196" cy="219.442" r="0.5"/>
		<circle cx="354.803" cy="219.441" r="0.5"/>
		<circle cx="375.409" cy="219.441" r="0.5"/>
		<circle cx="396.015" cy="219.441" r="0.5"/>
		<circle cx="416.621" cy="219.441" r="0.5"/>
		<circle cx="437.227" cy="219.441" r="0.5"/>
		<circle cx="457.833" cy="219.442" r="0.5"/>
		<circle cx="478.439" cy="219.441" r="0.5"/>
		<circle cx="499.046" cy="219.442" r="0.5"/>
		<circle cx="519.651" cy="219.441" r="0.5"/>
		<circle cx="540.258" cy="219.441" r="0.5"/>
		<circle cx="560.863" cy="219.441" r="0.5"/>
		<circle cx="581.47" cy="219.441" r="0.5"/>
		<circle cx="602.075" cy="219.441" r="0.5"/>
		<circle cx="622.682" cy="219.441" r="0.5"/>
		<circle cx="643.288" cy="219.441" r="0.5"/>
		<circle cx="663.894" cy="219.441" r="0.5"/>
		<circle cx="684.5" cy="219.441" r="0.5"/>
	</g>
	<g>
		<circle cx="4.5" cy="241.335" r="0.5"/>
		<circle cx="25.106" cy="241.335" r="0.5"/>
		<circle cx="45.712" cy="241.335" r="0.5"/>
		<circle cx="66.318" cy="241.335" r="0.5"/>
		<circle cx="86.924" cy="241.335" r="0.5"/>
		<circle cx="107.53" cy="241.335" r="0.5"/>
		<circle cx="128.136" cy="241.335" r="0.5"/>
		<circle cx="148.742" cy="241.335" r="0.5"/>
		<circle cx="169.349" cy="241.335" r="0.5"/>
		<circle cx="189.954" cy="241.335" r="0.5"/>
		<circle cx="210.561" cy="241.335" r="0.5"/>
		<circle cx="231.166" cy="241.335" r="0.5"/>
		<circle cx="251.772" cy="241.335" r="0.5"/>
		<circle cx="272.378" cy="241.335" r="0.5"/>
		<circle cx="292.984" cy="241.335" r="0.5"/>
		<circle cx="313.591" cy="241.336" r="0.5"/>
		<circle cx="334.196" cy="241.336" r="0.5"/>
		<circle cx="354.803" cy="241.335" r="0.5"/>
		<circle cx="375.409" cy="241.335" r="0.5"/>
		<circle cx="396.015" cy="241.335" r="0.5"/>
		<circle cx="416.621" cy="241.335" r="0.5"/>
		<circle cx="437.227" cy="241.335" r="0.5"/>
		<circle cx="457.833" cy="241.335" r="0.5"/>
		<circle cx="478.439" cy="241.335" r="0.5"/>
		<circle cx="499.046" cy="241.335" r="0.5"/>
		<circle cx="519.651" cy="241.335" r="0.5"/>
		<circle cx="540.258" cy="241.335" r="0.5"/>
		<circle cx="560.863" cy="241.335" r="0.5"/>
		<circle cx="581.47" cy="241.335" r="0.5"/>
		<circle cx="602.075" cy="241.335" r="0.5"/>
		<circle cx="622.682" cy="241.335" r="0.5"/>
		<circle cx="643.288" cy="241.335" r="0.5"/>
		<circle cx="663.894" cy="241.335" r="0.5"/>
		<circle cx="684.5" cy="241.335" r="0.5"/>
	</g>
	<g>
		<circle cx="4.5" cy="263.229" r="0.5"/>
		<circle cx="25.106" cy="263.229" r="0.5"/>
		<circle cx="45.712" cy="263.229" r="0.5"/>
		<circle cx="66.318" cy="263.229" r="0.5"/>
		<circle cx="86.924" cy="263.229" r="0.5"/>
		<circle cx="107.53" cy="263.229" r="0.5"/>
		<circle cx="128.136" cy="263.229" r="0.5"/>
		<circle cx="148.742" cy="263.229" r="0.5"/>
		<circle cx="169.349" cy="263.229" r="0.5"/>
		<circle cx="189.954" cy="263.229" r="0.5"/>
		<circle cx="210.561" cy="263.229" r="0.5"/>
		<circle cx="231.166" cy="263.229" r="0.5"/>
		<circle cx="251.772" cy="263.229" r="0.5"/>
		<circle cx="272.378" cy="263.229" r="0.5"/>
		<circle cx="292.984" cy="263.229" r="0.5"/>
		<circle cx="313.591" cy="263.229" r="0.5"/>
		<circle cx="334.196" cy="263.229" r="0.5"/>
		<circle cx="354.803" cy="263.229" r="0.5"/>
		<circle cx="375.409" cy="263.229" r="0.5"/>
		<circle cx="396.015" cy="263.229" r="0.5"/>
		<circle cx="416.621" cy="263.229" r="0.5"/>
		<circle cx="437.227" cy="263.229" r="0.5"/>
		<circle cx="457.833" cy="263.229" r="0.5"/>
		<circle cx="478.439" cy="263.229" r="0.5"/>
		<circle cx="499.046" cy="263.229" r="0.5"/>
		<circle cx="519.651" cy="263.229" r="0.5"/>
		<circle cx="540.258" cy="263.229" r="0.5"/>
		<circle cx="560.863" cy="263.229" r="0.5"/>
		<circle cx="581.47" cy="263.229" r="0.5"/>
		<circle cx="602.075" cy="263.229" r="0.5"/>
		<circle cx="622.682" cy="263.229" r="0.5"/>
		<circle cx="643.288" cy="263.229" r="0.5"/>
		<circle cx="663.894" cy="263.229" r="0.5"/>
		<circle cx="684.5" cy="263.229" r="0.5"/>
	</g>
	<g>
		<circle cx="4.5" cy="285.124" r="0.5"/>
		<circle cx="25.106" cy="285.124" r="0.5"/>
		<circle cx="45.712" cy="285.124" r="0.5"/>
		<circle cx="66.318" cy="285.124" r="0.5"/>
		<circle cx="86.924" cy="285.124" r="0.5"/>
		<circle cx="107.53" cy="285.124" r="0.5"/>
		<circle cx="128.136" cy="285.124" r="0.5"/>
		<circle cx="148.742" cy="285.124" r="0.5"/>
		<circle cx="169.349" cy="285.124" r="0.5"/>
		<circle cx="189.954" cy="285.124" r="0.5"/>
		<circle cx="210.561" cy="285.124" r="0.5"/>
		<circle cx="231.166" cy="285.124" r="0.5"/>
		<circle cx="251.772" cy="285.124" r="0.5"/>
		<circle cx="272.378" cy="285.124" r="0.5"/>
		<circle cx="292.984" cy="285.124" r="0.5"/>
		<circle cx="313.591" cy="285.124" r="0.5"/>
		<circle cx="334.196" cy="285.124" r="0.5"/>
		<circle cx="354.803" cy="285.124" r="0.5"/>
		<circle cx="375.409" cy="285.124" r="0.5"/>
		<circle cx="396.015" cy="285.124" r="0.5"/>
		<circle cx="416.621" cy="285.124" r="0.5"/>
		<circle cx="437.227" cy="285.124" r="0.5"/>
		<circle cx="457.833" cy="285.124" r="0.5"/>
		<circle cx="478.439" cy="285.124" r="0.5"/>
		<circle cx="499.046" cy="285.124" r="0.5"/>
		<circle cx="519.651" cy="285.124" r="0.5"/>
		<circle cx="540.258" cy="285.124" r="0.5"/>
		<circle cx="560.863" cy="285.124" r="0.5"/>
		<circle cx="581.47" cy="285.124" r="0.5"/>
		<circle cx="602.075" cy="285.124" r="0.5"/>
		<circle cx="622.682" cy="285.124" r="0.5"/>
		<circle cx="643.288" cy="285.124" r="0.5"/>
		<circle cx="663.894" cy="285.124" r="0.5"/>
		<circle cx="684.5" cy="285.124" r="0.5"/>
	</g>
	<g>
		<circle cx="4.5" cy="307.018" r="0.5"/>
		<circle cx="25.106" cy="307.018" r="0.5"/>
		<circle cx="45.712" cy="307.018" r="0.5"/>
		<circle cx="66.318" cy="307.018" r="0.5"/>
		<circle cx="86.924" cy="307.018" r="0.5"/>
		<circle cx="107.53" cy="307.018" r="0.5"/>
		<circle cx="128.136" cy="307.018" r="0.5"/>
		<circle cx="148.742" cy="307.018" r="0.5"/>
		<circle cx="169.349" cy="307.018" r="0.5"/>
		<circle cx="189.954" cy="307.018" r="0.5"/>
		<circle cx="210.561" cy="307.018" r="0.5"/>
		<circle cx="231.166" cy="307.018" r="0.5"/>
		<circle cx="251.772" cy="307.018" r="0.5"/>
		<circle cx="272.378" cy="307.018" r="0.5"/>
		<circle cx="292.984" cy="307.018" r="0.5"/>
		<circle cx="313.591" cy="307.018" r="0.5"/>
		<circle cx="334.196" cy="307.018" r="0.5"/>
		<circle cx="354.803" cy="307.018" r="0.5"/>
		<circle cx="375.409" cy="307.018" r="0.5"/>
		<circle cx="396.015" cy="307.018" r="0.5"/>
		<circle cx="416.621" cy="307.018" r="0.5"/>
		<circle cx="437.227" cy="307.018" r="0.5"/>
		<circle cx="457.833" cy="307.018" r="0.5"/>
		<circle cx="478.439" cy="307.018" r="0.5"/>
		<circle cx="499.046" cy="307.018" r="0.5"/>
		<circle cx="519.651" cy="307.018" r="0.5"/>
		<circle cx="540.258" cy="307.018" r="0.5"/>
		<circle cx="560.863" cy="307.018" r="0.5"/>
		<circle cx="581.47" cy="307.018" r="0.5"/>
		<circle cx="602.075" cy="307.018" r="0.5"/>
		<circle cx="622.682" cy="307.018" r="0.5"/>
		<circle cx="643.288" cy="307.018" r="0.5"/>
		<circle cx="663.894" cy="307.018" r="0.5"/>
		<circle cx="684.5" cy="307.018" r="0.5"/>
	</g>
	<g>
		<circle cx="4.5" cy="328.913" r="0.5"/>
		<circle cx="25.106" cy="328.912" r="0.5"/>
		<circle cx="45.712" cy="328.912" r="0.5"/>
		<circle cx="66.318" cy="328.912" r="0.5"/>
		<circle cx="86.924" cy="328.912" r="0.5"/>
		<circle cx="107.53" cy="328.912" r="0.5"/>
		<circle cx="128.136" cy="328.912" r="0.5"/>
		<circle cx="148.742" cy="328.912" r="0.5"/>
		<circle cx="169.349" cy="328.912" r="0.5"/>
		<circle cx="189.954" cy="328.912" r="0.5"/>
		<circle cx="210.561" cy="328.912" r="0.5"/>
		<circle cx="231.166" cy="328.913" r="0.5"/>
		<circle cx="251.772" cy="328.913" r="0.5"/>
		<circle cx="272.378" cy="328.913" r="0.5"/>
		<circle cx="292.984" cy="328.912" r="0.5"/>
		<circle cx="313.591" cy="328.913" r="0.5"/>
		<circle cx="334.196" cy="328.913" r="0.5"/>
		<circle cx="354.803" cy="328.912" r="0.5"/>
		<circle cx="375.409" cy="328.912" r="0.5"/>
		<circle cx="396.015" cy="328.913" r="0.5"/>
		<circle cx="416.621" cy="328.912" r="0.5"/>
		<circle cx="437.227" cy="328.913" r="0.5"/>
		<circle cx="457.833" cy="328.912" r="0.5"/>
		<circle cx="478.439" cy="328.913" r="0.5"/>
		<circle cx="499.046" cy="328.912" r="0.5"/>
		<circle cx="519.651" cy="328.912" r="0.5"/>
		<circle cx="540.258" cy="328.912" r="0.5"/>
		<circle cx="560.863" cy="328.912" r="0.5"/>
		<circle cx="581.47" cy="328.912" r="0.5"/>
		<circle cx="602.075" cy="328.912" r="0.5"/>
		<circle cx="622.682" cy="328.912" r="0.5"/>
		<circle cx="643.288" cy="328.912" r="0.5"/>
		<circle cx="663.894" cy="328.912" r="0.5"/>
		<circle cx="684.5" cy="328.913" r="0.5"/>
	</g>
	<g>
		<circle cx="4.5" cy="350.805" r="0.5"/>
		<circle cx="25.106" cy="350.805" r="0.5"/>
		<circle cx="45.712" cy="350.805" r="0.5"/>
		<circle cx="66.318" cy="350.805" r="0.5"/>
		<circle cx="86.924" cy="350.805" r="0.5"/>
		<circle cx="107.53" cy="350.805" r="0.5"/>
		<circle cx="128.136" cy="350.805" r="0.5"/>
		<circle cx="148.742" cy="350.805" r="0.5"/>
		<circle cx="169.349" cy="350.806" r="0.501"/>
		<circle cx="189.954" cy="350.805" r="0.5"/>
		<circle cx="210.561" cy="350.805" r="0.5"/>
		<circle cx="231.166" cy="350.805" r="0.5"/>
		<circle cx="251.772" cy="350.805" r="0.5"/>
		<circle cx="272.378" cy="350.805" r="0.5"/>
		<circle cx="292.984" cy="350.805" r="0.5"/>
		<circle cx="313.591" cy="350.806" r="0.501"/>
		<circle cx="334.196" cy="350.806" r="0.501"/>
		<circle cx="354.803" cy="350.805" r="0.5"/>
		<circle cx="375.409" cy="350.805" r="0.5"/>
		<circle cx="396.015" cy="350.805" r="0.5"/>
		<circle cx="416.621" cy="350.805" r="0.5"/>
		<circle cx="437.227" cy="350.805" r="0.5"/>
		<circle cx="457.833" cy="350.806" r="0.501"/>
		<circle cx="478.439" cy="350.805" r="0.5"/>
		<circle cx="499.046" cy="350.806" r="0.501"/>
		<circle cx="519.651" cy="350.805" r="0.5"/>
		<circle cx="540.258" cy="350.805" r="0.5"/>
		<circle cx="560.863" cy="350.805" r="0.5"/>
		<circle cx="581.47" cy="350.805" r="0.5"/>
		<circle cx="602.075" cy="350.805" r="0.5"/>
		<circle cx="622.682" cy="350.805" r="0.5"/>
		<circle cx="643.288" cy="350.805" r="0.5"/>
		<circle cx="663.894" cy="350.805" r="0.5"/>
		<circle cx="684.5" cy="350.805" r="0.5"/>
	</g>
	<g>
		<circle cx="4.5" cy="372.7" r="0.5"/>
		<circle cx="25.106" cy="372.7" r="0.5"/>
		<circle cx="45.712" cy="372.7" r="0.5"/>
		<circle cx="66.318" cy="372.7" r="0.5"/>
		<circle cx="86.924" cy="372.7" r="0.5"/>
		<circle cx="107.53" cy="372.7" r="0.5"/>
		<circle cx="128.136" cy="372.7" r="0.5"/>
		<circle cx="148.742" cy="372.7" r="0.5"/>
		<circle cx="169.349" cy="372.7" r="0.5"/>
		<circle cx="189.954" cy="372.7" r="0.5"/>
		<circle cx="210.561" cy="372.7" r="0.5"/>
		<circle cx="231.166" cy="372.7" r="0.5"/>
		<circle cx="251.772" cy="372.7" r="0.5"/>
		<circle cx="272.378" cy="372.7" r="0.5"/>
		<circle cx="292.984" cy="372.7" r="0.5"/>
		<circle cx="313.591" cy="372.7" r="0.5"/>
		<circle cx="334.196" cy="372.7" r="0.5"/>
		<circle cx="354.803" cy="372.7" r="0.5"/>
		<circle cx="375.409" cy="372.7" r="0.5"/>
		<circle cx="396.015" cy="372.7" r="0.5"/>
		<circle cx="416.621" cy="372.7" r="0.5"/>
		<circle cx="437.227" cy="372.7" r="0.5"/>
		<circle cx="457.833" cy="372.7" r="0.5"/>
		<circle cx="478.439" cy="372.7" r="0.5"/>
		<circle cx="499.046" cy="372.7" r="0.5"/>
		<circle cx="519.651" cy="372.7" r="0.5"/>
		<circle cx="540.258" cy="372.7" r="0.5"/>
		<circle cx="560.863" cy="372.7" r="0.5"/>
		<circle cx="581.47" cy="372.7" r="0.5"/>
		<circle cx="602.075" cy="372.7" r="0.5"/>
		<circle cx="622.682" cy="372.7" r="0.5"/>
		<circle cx="643.288" cy="372.7" r="0.5"/>
		<circle cx="663.894" cy="372.7" r="0.5"/>
		<circle cx="684.5" cy="372.7" r="0.5"/>
	</g>
	<g>
		<circle cx="4.5" cy="394.594" r="0.5"/>
		<circle cx="25.106" cy="394.594" r="0.5"/>
		<circle cx="45.712" cy="394.594" r="0.5"/>
		<circle cx="66.318" cy="394.594" r="0.5"/>
		<circle cx="86.924" cy="394.594" r="0.5"/>
		<circle cx="107.53" cy="394.594" r="0.5"/>
		<circle cx="128.136" cy="394.594" r="0.5"/>
		<circle cx="148.742" cy="394.594" r="0.5"/>
		<circle cx="169.349" cy="394.594" r="0.5"/>
		<circle cx="189.954" cy="394.594" r="0.5"/>
		<circle cx="210.561" cy="394.594" r="0.5"/>
		<circle cx="231.166" cy="394.594" r="0.5"/>
		<circle cx="251.772" cy="394.594" r="0.5"/>
		<circle cx="272.378" cy="394.594" r="0.5"/>
		<circle cx="292.984" cy="394.594" r="0.5"/>
		<circle cx="313.591" cy="394.594" r="0.5"/>
		<circle cx="334.196" cy="394.594" r="0.5"/>
		<circle cx="354.803" cy="394.594" r="0.5"/>
		<circle cx="375.409" cy="394.594" r="0.5"/>
		<circle cx="396.015" cy="394.594" r="0.5"/>
		<circle cx="416.621" cy="394.594" r="0.5"/>
		<circle cx="437.227" cy="394.594" r="0.5"/>
		<circle cx="457.833" cy="394.594" r="0.5"/>
		<circle cx="478.439" cy="394.594" r="0.5"/>
		<circle cx="499.046" cy="394.594" r="0.5"/>
		<circle cx="519.651" cy="394.594" r="0.5"/>
		<circle cx="540.258" cy="394.594" r="0.5"/>
		<circle cx="560.863" cy="394.594" r="0.5"/>
		<circle cx="581.47" cy="394.594" r="0.5"/>
		<circle cx="602.075" cy="394.594" r="0.5"/>
		<circle cx="622.683" cy="394.594" r="0.5"/>
		<circle cx="643.288" cy="394.594" r="0.5"/>
		<circle cx="663.894" cy="394.594" r="0.5"/>
		<circle cx="684.5" cy="394.594" r="0.5"/>
	</g>
	<g>
		<circle cx="4.5" cy="416.489" r="0.5"/>
		<circle cx="25.106" cy="416.489" r="0.5"/>
		<circle cx="45.712" cy="416.489" r="0.5"/>
		<circle cx="66.318" cy="416.489" r="0.5"/>
		<circle cx="86.923" cy="416.489" r="0.5"/>
		<circle cx="107.53" cy="416.489" r="0.5"/>
		<circle cx="128.136" cy="416.489" r="0.5"/>
		<circle cx="148.742" cy="416.489" r="0.5"/>
		<circle cx="169.349" cy="416.489" r="0.5"/>
		<circle cx="189.954" cy="416.489" r="0.5"/>
		<circle cx="210.561" cy="416.489" r="0.5"/>
		<circle cx="231.166" cy="416.489" r="0.5"/>
		<circle cx="251.772" cy="416.489" r="0.5"/>
		<circle cx="272.378" cy="416.489" r="0.5"/>
		<circle cx="292.984" cy="416.489" r="0.5"/>
		<circle cx="313.591" cy="416.489" r="0.5"/>
		<circle cx="334.196" cy="416.489" r="0.5"/>
		<circle cx="354.803" cy="416.489" r="0.5"/>
		<circle cx="375.409" cy="416.489" r="0.5"/>
		<circle cx="396.015" cy="416.489" r="0.5"/>
		<circle cx="416.621" cy="416.489" r="0.5"/>
		<circle cx="437.227" cy="416.489" r="0.5"/>
		<circle cx="457.833" cy="416.489" r="0.5"/>
		<circle cx="478.439" cy="416.489" r="0.5"/>
		<circle cx="499.046" cy="416.489" r="0.5"/>
		<circle cx="519.651" cy="416.489" r="0.5"/>
		<circle cx="540.258" cy="416.489" r="0.5"/>
		<circle cx="560.863" cy="416.489" r="0.5"/>
		<circle cx="581.47" cy="416.489" r="0.5"/>
		<circle cx="602.075" cy="416.489" r="0.5"/>
		<circle cx="622.682" cy="416.489" r="0.5"/>
		<circle cx="643.288" cy="416.489" r="0.5"/>
		<circle cx="663.894" cy="416.489" r="0.5"/>
		<circle cx="684.5" cy="416.489" r="0.5"/>
	</g>
	<g>
		<circle cx="4.5" cy="438.381" r="0.5"/>
		<circle cx="25.106" cy="438.382" r="0.501"/>
		<circle cx="45.712" cy="438.382" r="0.501"/>
		<path d="M66.319,438.883c-0.277,0-0.502-0.227-0.502-0.502s0.225-0.5,0.502-0.5c0.274,0,0.498,0.225,0.498,0.5
			S66.594,438.883,66.319,438.883z"/>
		<circle cx="86.924" cy="438.382" r="0.501"/>
		<circle cx="107.53" cy="438.382" r="0.501"/>
		<circle cx="128.136" cy="438.382" r="0.501"/>
		<circle cx="148.742" cy="438.382" r="0.501"/>
		<circle cx="169.349" cy="438.382" r="0.501"/>
		<circle cx="189.954" cy="438.382" r="0.501"/>
		<circle cx="210.561" cy="438.382" r="0.501"/>
		<circle cx="231.166" cy="438.382" r="0.501"/>
		<circle cx="251.772" cy="438.382" r="0.501"/>
		<circle cx="272.378" cy="438.382" r="0.501"/>
		<circle cx="292.984" cy="438.382" r="0.501"/>
		<circle cx="313.591" cy="438.382" r="0.501"/>
		<circle cx="334.196" cy="438.382" r="0.501"/>
		<circle cx="354.803" cy="438.382" r="0.501"/>
		<circle cx="375.409" cy="438.382" r="0.501"/>
		<circle cx="396.015" cy="438.382" r="0.501"/>
		<circle cx="416.621" cy="438.382" r="0.501"/>
		<circle cx="437.227" cy="438.382" r="0.501"/>
		<circle cx="457.833" cy="438.382" r="0.501"/>
		<circle cx="478.439" cy="438.382" r="0.501"/>
		<circle cx="499.046" cy="438.382" r="0.501"/>
		<circle cx="519.651" cy="438.382" r="0.501"/>
		<circle cx="540.258" cy="438.382" r="0.501"/>
		<circle cx="560.863" cy="438.382" r="0.501"/>
		<circle cx="581.47" cy="438.382" r="0.501"/>
		<circle cx="602.075" cy="438.382" r="0.501"/>
		<circle cx="622.682" cy="438.382" r="0.501"/>
		<circle cx="643.288" cy="438.382" r="0.501"/>
		<circle cx="663.894" cy="438.382" r="0.501"/>
		<circle cx="684.5" cy="438.381" r="0.5"/>
	</g>
	<g>
		<circle cx="4.5" cy="460.276" r="0.5"/>
		<circle cx="25.106" cy="460.276" r="0.5"/>
		<circle cx="45.712" cy="460.276" r="0.5"/>
		<circle cx="66.318" cy="460.276" r="0.5"/>
		<circle cx="86.924" cy="460.276" r="0.5"/>
		<circle cx="107.53" cy="460.276" r="0.5"/>
		<circle cx="128.136" cy="460.276" r="0.5"/>
		<circle cx="148.742" cy="460.276" r="0.5"/>
		<circle cx="169.349" cy="460.276" r="0.5"/>
		<circle cx="189.954" cy="460.276" r="0.5"/>
		<circle cx="210.561" cy="460.276" r="0.5"/>
		<circle cx="231.166" cy="460.276" r="0.5"/>
		<circle cx="251.772" cy="460.276" r="0.5"/>
		<circle cx="272.378" cy="460.276" r="0.5"/>
		<circle cx="292.984" cy="460.276" r="0.5"/>
		<circle cx="313.591" cy="460.276" r="0.5"/>
		<circle cx="334.196" cy="460.276" r="0.5"/>
		<circle cx="354.803" cy="460.276" r="0.5"/>
		<circle cx="375.409" cy="460.276" r="0.5"/>
		<circle cx="396.015" cy="460.276" r="0.5"/>
		<circle cx="416.621" cy="460.276" r="0.5"/>
		<circle cx="437.227" cy="460.276" r="0.5"/>
		<circle cx="457.833" cy="460.276" r="0.5"/>
		<circle cx="478.439" cy="460.276" r="0.5"/>
		<circle cx="499.046" cy="460.276" r="0.5"/>
		<circle cx="519.651" cy="460.276" r="0.5"/>
		<circle cx="540.258" cy="460.276" r="0.5"/>
		<circle cx="560.863" cy="460.276" r="0.5"/>
		<circle cx="581.47" cy="460.276" r="0.5"/>
		<circle cx="602.075" cy="460.276" r="0.5"/>
		<circle cx="622.682" cy="460.276" r="0.5"/>
		<circle cx="643.288" cy="460.276" r="0.5"/>
		<circle cx="663.894" cy="460.276" r="0.5"/>
		<circle cx="684.5" cy="460.276" r="0.5"/>
	</g>
</g>
</svg>
