<svg xmlns="http://www.w3.org/2000/svg" viewBox="0 0 398.56698 104.659">
  <g fill="#fff">
    <path d="M226.589 61.067c-13.346 0-24.203-10.857-24.203-24.199v-4.427h22.869V21h-22.869V0h-11.439v36.869c0 19.649 15.986 35.641 35.643 35.641 20.158 0 30.67-15.432 33.589-23.97h-12.592c-2.794 4.868-9.082 12.527-20.998 12.527zM296.871 79.84h-11.672c1.857 14.013 13.85 24.819 28.355 24.819v-11.5c-8.14 0-14.959-5.695-16.683-13.319zM396.144 60.728C388.753 37.685 367.139 21 341.632 21c-25.5 0-47.113 16.685-54.506 39.728-1.188 3.697-2.01 7.557-2.422 11.534h113.863c-.411-3.977-1.233-7.837-2.423-11.534zm-96.84 0c6.875-16.605 23.239-28.29 42.328-28.29 19.092 0 35.455 11.684 42.328 28.29h-84.656zM132.037 36.867c0 13.343-10.854 24.199-24.197 24.199S83.642 50.21 83.642 36.867V23.018h-11.44v13.849c0 19.651 15.985 35.64 35.638 35.64s35.64-15.989 35.64-35.64V23.018h-11.443v13.849zM35.642 61.067c-13.347 0-24.203-10.857-24.203-24.199v-4.427h22.869V21H11.439V0H0v36.869C0 56.518 15.987 72.51 35.643 72.51c20.156 0 30.672-15.432 33.59-23.97H56.64c-2.796 4.868-9.082 12.527-20.998 12.527zM148.734 55.014v16.877h11.44V55.014c0-11.712 9.396-23.188 23.189-23.188v-11.44c-17.315 0-34.629 13.69-34.629 34.628zM265.07599.032h11.438v72.230003h-11.438z"/>
  </g>
</svg>
