<?xml version="1.0" encoding="UTF-8" standalone="no"?>
<svg
   xmlns:dc="http://purl.org/dc/elements/1.1/"
   xmlns:cc="http://creativecommons.org/ns#"
   xmlns:rdf="http://www.w3.org/1999/02/22-rdf-syntax-ns#"
   xmlns:svg="http://www.w3.org/2000/svg"
   xmlns="http://www.w3.org/2000/svg"
   viewBox="0 0 91.397856 24.000001"
   version="1.1"
   id="svg6"
   width="91.397858"
   height="24">
  <metadata
     id="metadata12">
    <rdf:RDF>
      <cc:Work
         rdf:about="">
        <dc:format>image/svg+xml</dc:format>
        <dc:type
           rdf:resource="http://purl.org/dc/dcmitype/StillImage" />
        <dc:title></dc:title>
      </cc:Work>
    </rdf:RDF>
  </metadata>
  <defs
     id="defs10" />
  <g
     id="g4"
     transform="scale(0.22931616)"
     style="fill:#ffffff">
    <path
       d="m 226.589,61.067 c -13.346,0 -24.203,-10.857 -24.203,-24.199 v -4.427 h 22.869 V 21 H 202.386 V 0 h -11.439 v 36.869 c 0,19.649 15.986,35.641 35.643,35.641 20.158,0 30.67,-15.432 33.589,-23.97 h -12.592 c -2.794,4.868 -9.082,12.527 -20.998,12.527 z m 70.282,18.773 h -11.672 c 1.857,14.013 13.85,24.819 28.355,24.819 v -11.5 c -8.14,0 -14.959,-5.695 -16.683,-13.319 z M 396.144,60.728 C 388.753,37.685 367.139,21 341.632,21 c -25.5,0 -47.113,16.685 -54.506,39.728 -1.188,3.697 -2.01,7.557 -2.422,11.534 h 113.863 c -0.411,-3.977 -1.233,-7.837 -2.423,-11.534 z m -96.84,0 c 6.875,-16.605 23.239,-28.29 42.328,-28.29 19.092,0 35.455,11.684 42.328,28.29 z M 132.037,36.867 c 0,13.343 -10.854,24.199 -24.197,24.199 -13.343,0 -24.198,-10.856 -24.198,-24.199 V 23.018 h -11.44 v 13.849 c 0,19.651 15.985,35.64 35.638,35.64 19.653,0 35.64,-15.989 35.64,-35.64 V 23.018 h -11.443 z m -96.395,24.2 C 22.295,61.067 11.439,50.21 11.439,36.868 V 32.441 H 34.308 V 21 H 11.439 V 0 H 0 v 36.869 c 0,19.649 15.987,35.641 35.643,35.641 20.156,0 30.672,-15.432 33.59,-23.97 H 56.64 c -2.796,4.868 -9.082,12.527 -20.998,12.527 z m 113.092,-6.053 v 16.877 h 11.44 V 55.014 c 0,-11.712 9.396,-23.188 23.189,-23.188 v -11.44 c -17.315,0 -34.629,13.69 -34.629,34.628 z M 265.07599,0.032 h 11.438 v 72.230003 h -11.438 z"
       id="path2" />
  </g>
</svg>
