<?xml version="1.0" encoding="utf-8"?>
<!-- Generator: Adobe Illustrator 16.0.0, SVG Export Plug-In . SVG Version: 6.00 Build 0)  -->
<!DOCTYPE svg PUBLIC "-//W3C//DTD SVG 1.1//EN" "http://www.w3.org/Graphics/SVG/1.1/DTD/svg11.dtd">
<svg version="1.1" id="Layer_7" xmlns="http://www.w3.org/2000/svg" xmlns:xlink="http://www.w3.org/1999/xlink" x="0px" y="0px"
	 width="98.667px" height="91px" viewBox="0 0 98.667 91" enable-background="new 0 0 98.667 91" xml:space="preserve">
<polyline fill="none" stroke="#22B14C" stroke-width="50" stroke-miterlimit="10" points="755.783,3767.407 1429.578,4441.202 
	2103.373,3767.407 "/>
<g>
	<g>
		<g>
			<g>
				<polygon fill="none" stroke="#22B14C" stroke-width="10" stroke-miterlimit="10" points="588.982,5234.971 530.485,5234.971 
					530.485,4804.394 530.485,4668.895 588.982,4668.895 				"/>
				<g>
					<g>
						<path fill="none" stroke="#22B14C" stroke-width="10" stroke-miterlimit="10" d="M520.733,4804.5c-6.627,0-12-5.372-12-12
							v-176c0-6.627,5.373-12,12-12h78c6.628,0,12,5.373,12,12v176c0,6.628-5.372,12-12,12"/>
						<path fill="none" stroke="#22B14C" stroke-width="10" stroke-miterlimit="10" d="M480.959,4726.25
							c-12.012,0-21.75-9.737-21.75-21.75c0-12.012,9.738-21.75,21.75-21.75"/>
						
							<rect x="610.733" y="4662" fill="none" stroke="#22B14C" stroke-width="10" stroke-miterlimit="10" width="33.226" height="85"/>
						
							<rect x="480.959" y="4662" fill="none" stroke="#22B14C" stroke-width="10" stroke-miterlimit="10" width="27.774" height="85"/>
						
							<rect x="643.959" y="4681.167" fill="none" stroke="#22B14C" stroke-width="10" stroke-miterlimit="10" width="21" height="46.667"/>
					</g>
					
						<line fill="none" stroke="#22B14C" stroke-width="10" stroke-miterlimit="10" x1="520.733" y1="4804.5" x2="530.485" y2="4804.5"/>
					
						<line fill="none" stroke="#22B14C" stroke-width="10" stroke-miterlimit="10" x1="598.733" y1="4804.5" x2="588.982" y2="4804.5"/>
				</g>
				<g>
					<g>
						<path fill="none" stroke="#22B14C" stroke-width="10" stroke-miterlimit="10" d="M520.733,5099.366c-6.628,0-12,5.372-12,12
							v176.001c0,6.626,5.373,11.999,11.999,11.999h78c6.628,0,12.001-5.373,12-12l0.001-176c0-6.628-5.372-12-12-12"/>
						<path fill="none" stroke="#22B14C" stroke-width="10" stroke-miterlimit="10" d="M480.959,5177.616
							c-12.013,0-21.75,9.737-21.75,21.75s9.737,21.75,21.75,21.75"/>
						
							<rect x="610.733" y="5156.867" fill="none" stroke="#22B14C" stroke-width="10" stroke-miterlimit="10" width="33.225" height="84.999"/>
						
							<rect x="480.959" y="5156.866" fill="none" stroke="#22B14C" stroke-width="10" stroke-miterlimit="10" width="27.774" height="85"/>
						
							<rect x="643.959" y="5176.033" fill="none" stroke="#22B14C" stroke-width="10" stroke-miterlimit="10" width="20.999" height="46.666"/>
					</g>
					
						<line fill="none" stroke="#22B14C" stroke-width="10" stroke-miterlimit="10" x1="520.733" y1="5099.366" x2="530.485" y2="5099.366"/>
					
						<line fill="none" stroke="#22B14C" stroke-width="10" stroke-miterlimit="10" x1="598.733" y1="5099.366" x2="588.981" y2="5099.366"/>
				</g>
			</g>
			<g>
				<polygon fill="none" stroke="#22B14C" stroke-width="10" stroke-miterlimit="10" points="1047.763,5234.971 1106.26,5234.971 
					1106.26,4804.394 1106.26,4668.895 1047.763,4668.895 				"/>
				<g>
					<g>
						<path fill="none" stroke="#22B14C" stroke-width="10" stroke-miterlimit="10" d="M1116.011,4804.5c6.628,0,12-5.372,12-12
							v-176c0-6.627-5.372-12-12-12h-78c-6.627,0-12,5.373-12,12v176c0,6.628,5.373,12,12,12"/>
						<path fill="none" stroke="#22B14C" stroke-width="10" stroke-miterlimit="10" d="M1155.785,4726.25
							c12.013,0,21.75-9.737,21.75-21.75c0-12.012-9.737-21.75-21.75-21.75"/>
						
							<rect x="992.785" y="4662" fill="none" stroke="#22B14C" stroke-width="10" stroke-miterlimit="10" width="33.226" height="85"/>
						
							<rect x="1128.011" y="4662" fill="none" stroke="#22B14C" stroke-width="10" stroke-miterlimit="10" width="27.774" height="85"/>
						
							<rect x="971.785" y="4681.167" fill="none" stroke="#22B14C" stroke-width="10" stroke-miterlimit="10" width="21" height="46.667"/>
					</g>
					
						<line fill="none" stroke="#22B14C" stroke-width="10" stroke-miterlimit="10" x1="1116.011" y1="4804.5" x2="1106.26" y2="4804.5"/>
					
						<line fill="none" stroke="#22B14C" stroke-width="10" stroke-miterlimit="10" x1="1038.011" y1="4804.5" x2="1047.763" y2="4804.5"/>
				</g>
				<g>
					<g>
						<path fill="none" stroke="#22B14C" stroke-width="10" stroke-miterlimit="10" d="M1116.011,5099.366c6.628,0,12,5.372,12,12
							v176.001c0,6.626-5.373,11.999-11.999,11.999h-78c-6.628,0-12.001-5.373-12-12l-0.001-176c0-6.628,5.372-12,12-12"/>
						<path fill="none" stroke="#22B14C" stroke-width="10" stroke-miterlimit="10" d="M1155.785,5177.616
							c12.013,0,21.75,9.737,21.75,21.75s-9.737,21.75-21.75,21.75"/>
						
							<rect x="992.786" y="5156.867" fill="none" stroke="#22B14C" stroke-width="10" stroke-miterlimit="10" width="33.225" height="84.999"/>
						
							<rect x="1128.011" y="5156.866" fill="none" stroke="#22B14C" stroke-width="10" stroke-miterlimit="10" width="27.774" height="85"/>
						
							<rect x="971.786" y="5176.033" fill="none" stroke="#22B14C" stroke-width="10" stroke-miterlimit="10" width="20.999" height="46.666"/>
					</g>
					
						<line fill="none" stroke="#22B14C" stroke-width="10" stroke-miterlimit="10" x1="1116.011" y1="5099.366" x2="1106.259" y2="5099.366"/>
					
						<line fill="none" stroke="#22B14C" stroke-width="10" stroke-miterlimit="10" x1="1038.011" y1="5099.366" x2="1047.763" y2="5099.366"/>
				</g>
			</g>
		</g>
		<g>
			<path fill="none" stroke="#22B14C" stroke-width="10" stroke-miterlimit="10" d="M878.775,5222.833H753.396h-7.339
				c-83.743-66.512-134.62-154.018-134.62-249.899c0-95.887,66.154-183.388,149.897-249.899l1.222,0.415h94.831"/>
			<path fill="none" stroke="#22B14C" stroke-width="10" stroke-miterlimit="10" d="M757.969,5222.833h125.38h7.338
				c83.743-66.512,134.62-154.018,134.62-249.899c0-95.887-66.154-183.388-149.896-249.899l-1.223,0.415h-94.831"/>
		</g>
		<g>
			<path fill="none" stroke="#22B14C" stroke-width="10" stroke-miterlimit="10" d="M746.928,5219.723
				c-22.852-60.268-37.041-144.442-37.041-237.578c0-103.055,32.648-195.136,59.905-256.002"/>
			<path fill="none" stroke="#22B14C" stroke-width="10" stroke-miterlimit="10" d="M887.606,5219.723
				c22.851-60.268,37.04-144.442,37.04-237.578c0-103.055-32.647-195.136-59.904-256.002"/>
		</g>
		<g>
			
				<line fill="none" stroke="#22B14C" stroke-width="10" stroke-miterlimit="10" x1="617.04" y1="4903.933" x2="590.087" y2="4903.933"/>
			
				<line fill="none" stroke="#22B14C" stroke-width="10" stroke-miterlimit="10" x1="617.04" y1="4999.933" x2="590.087" y2="4999.933"/>
		</g>
		<g>
			
				<line fill="none" stroke="#22B14C" stroke-width="10" stroke-miterlimit="10" x1="1024.101" y1="4903.933" x2="1048.869" y2="4903.933"/>
			
				<line fill="none" stroke="#22B14C" stroke-width="10" stroke-miterlimit="10" x1="1024.101" y1="4999.933" x2="1048.869" y2="4999.933"/>
		</g>
	</g>
	<g>
		<path fill="none" stroke="#22B14C" stroke-width="10" stroke-miterlimit="10" d="M739.399,4810.531
			c15.268,33.166,24.803,71.458,26.641,112.51c2.965,66.216-14.657,127.071-45.544,171.935"/>
		<path fill="none" stroke="#22B14C" stroke-width="10" stroke-miterlimit="10" d="M897.346,4810.531
			c-15.268,33.166-24.803,71.458-26.641,112.51c-2.965,66.216,14.657,127.071,45.544,171.935"/>
	</g>
	<g>
		
			<line fill="none" stroke="#22B14C" stroke-width="10" stroke-miterlimit="10" x1="718.621" y1="4898.515" x2="641.432" y2="4863.74"/>
		
			<line fill="none" stroke="#22B14C" stroke-width="10" stroke-miterlimit="10" x1="918.124" y1="4898.515" x2="995.313" y2="4863.74"/>
	</g>
	<g>
		
			<line fill="none" stroke="#22B14C" stroke-width="10" stroke-miterlimit="10" x1="918.123" y1="5066.74" x2="995.313" y2="5101.515"/>
		
			<line fill="none" stroke="#22B14C" stroke-width="10" stroke-miterlimit="10" x1="718.62" y1="5066.74" x2="641.432" y2="5101.515"/>
	</g>
</g>
<path fill="none" stroke="#22B14C" stroke-width="15" stroke-miterlimit="10" d="M165.014,4422.318v-190.361
	c0-59.543,48.266-107.813,107.816-107.813h92.834c59.54,0,107.812,48.27,107.812,107.813v190.361H165.014z"/>
<path fill="none" stroke="#22B14C" stroke-width="15" stroke-miterlimit="10" d="M165.014,4231.957L43.147,3634.833
	c-9.828-32.506,8.557-66.826,41.063-76.652c32.507-9.829,66.825,8.558,76.653,41.064l165.101,524.898"/>
<line fill="none" stroke="#22B14C" stroke-width="15" stroke-miterlimit="10" x1="51.13" y1="3671.331" x2="-732.703" y2="4001.568"/>
<line fill="none" stroke="#22B14C" stroke-width="15" stroke-miterlimit="10" x1="-751.739" y1="3927.523" x2="13.439" y2="3604.016"/>
<line fill="none" stroke="#22B14C" stroke-width="15" stroke-miterlimit="10" x1="-26.952" y1="3553.019" x2="-808.632" y2="3883.5"/>
<line fill="none" stroke="#22B14C" stroke-width="15" stroke-miterlimit="10" x1="-850.55" y1="3857.261" x2="-42.721" y2="3515.724"/>
<rect x="-883.333" y="4304.136" fill="none" stroke="#22B14C" stroke-width="15" stroke-miterlimit="10" width="133" height="200.989"/>
<path fill="none" stroke="#22B14C" stroke-width="15" stroke-miterlimit="10" d="M174.411,3642.313l205.426-24.232
	c6.768,4.371,14.822,6.919,23.477,6.919c23.934,0,43.334-19.401,43.334-43.334c0-23.932-19.4-43.333-43.334-43.333
	c-16.448,0-30.756,9.165-38.096,22.667l-135.556,1.557"/>
<path fill="none" stroke="#22B14C" stroke-width="15" stroke-miterlimit="10" d="M-837.464,3907.843
	c0,16.678-13.521,30.198-30.201,30.198c-16.675,0-30.196-13.521-30.196-30.198s13.521-30.198,30.196-30.198
	C-850.985,3877.645-837.464,3891.166-837.464,3907.843z"/>
<circle fill="none" stroke="#22B14C" stroke-width="15" stroke-miterlimit="10" cx="403.981" cy="3581.169" r="13.59"/>
<rect x="-863.333" y="4078" fill="none" stroke="#22B14C" stroke-width="15" stroke-miterlimit="10" width="93.846" height="226.137"/>
<rect x="-769.487" y="4147" fill="none" stroke="#22B14C" stroke-width="15" stroke-miterlimit="10" width="61.154" height="94"/>
<rect x="-883.333" y="4147" fill="none" stroke="#22B14C" stroke-width="15" stroke-miterlimit="10" width="21.341" height="94"/>
<path fill="none" stroke="#22B14C" stroke-width="15" stroke-miterlimit="10" d="M-766.337,3916.122l0.006-0.003l-100.096-71.51
	l-74.812,52.436l62.733,93.831v86.224h117.32v-31.363c20.543-13.541,34.107-36.806,34.107-63.248
	C-727.077,3953.889-742.937,3929.002-766.337,3916.122z"/>
<line fill="none" stroke="#22B14C" stroke-width="15" stroke-miterlimit="10" x1="440.722" y1="3591.685" x2="593.95" y2="4181.068"/>
<line fill="none" stroke="#22B14C" stroke-width="15" stroke-miterlimit="10" x1="397.083" y1="3624.55" x2="543.849" y2="4192.068"/>
<circle fill="none" stroke="#22B14C" stroke-width="15" stroke-miterlimit="10" cx="572.048" cy="4201.757" r="30.199"/>
<line fill="none" stroke="#22B14C" stroke-width="15" stroke-miterlimit="10" x1="537.359" y1="4171.56" x2="446.647" y2="4160.795"/>
<line fill="none" stroke="#22B14C" stroke-width="15" stroke-miterlimit="10" x1="564.667" y1="4231.957" x2="472.466" y2="4267"/>
<path fill="none" stroke="#22B14C" stroke-width="15" stroke-miterlimit="10" d="M215.311,3514.336l-226.253-25.919
	c-11.031-1.264-21.777,4.076-27.434,13.635c-5.654,9.557-5.161,21.545,1.26,30.605l73.429,103.644
	c6.481,9.148,17.561,13.371,28.119,11.406c2.593-0.482,5.157-1.34,7.614-2.588l152.82-77.724
	c11.074-5.632,17.146-17.856,14.942-30.082C237.606,3525.088,227.651,3515.751,215.311,3514.336z"/>
<circle fill="none" stroke="#22B14C" stroke-width="15" stroke-miterlimit="10" cx="-12.333" cy="3517.411" r="13.59"/>
<circle fill="none" stroke="#22B14C" stroke-width="15" stroke-miterlimit="10" cx="209.665" cy="3542.945" r="13.59"/>
<circle fill="none" stroke="#22B14C" stroke-width="15" stroke-miterlimit="10" cx="60.076" cy="3618.065" r="13.589"/>
<rect x="-935.333" y="4361" fill="none" stroke="#22B14C" stroke-width="15" stroke-miterlimit="10" width="52" height="86"/>
<rect x="-935.333" y="4147" fill="none" stroke="#22B14C" stroke-width="15" stroke-miterlimit="10" width="17" height="214"/>
<rect x="-918.333" y="4168" fill="none" stroke="#22B14C" stroke-width="15" stroke-miterlimit="10" width="35" height="52"/>
<circle fill="none" stroke="#22B14C" stroke-width="15" stroke-miterlimit="10" cx="371.981" cy="4180.266" r="30.199"/>
<path fill="none" stroke="#22B14C" stroke-width="15" stroke-miterlimit="10" d="M397.135,4313.546
	c3.092,3.092,3.092,8.104,0,11.197l-38.254,38.253c-3.092,3.092-8.104,3.092-11.196,0l-107.763-107.763
	c-3.092-3.092-3.092-8.105,0-11.197l38.254-38.253c3.092-3.093,8.104-3.093,11.196,0L397.135,4313.546z"/>
<circle fill="none" stroke="#22B14C" stroke-width="30" stroke-miterlimit="10" cx="-369.15" cy="2988.163" r="315.264"/>
<rect x="-501.164" y="2856.151" fill="none" stroke="#22B14C" stroke-width="30" stroke-miterlimit="10" width="264.027" height="264.025"/>
<line fill="none" stroke="#787878" stroke-width="70" stroke-miterlimit="10" x1="-1851.332" y1="3269.547" x2="-1851.332" y2="3172.629"/>
<line fill="none" stroke="#787878" stroke-width="70" stroke-miterlimit="10" x1="-1518" y1="3269.547" x2="-1518" y2="2983.877"/>
<line fill="none" stroke="#787878" stroke-width="70" stroke-miterlimit="10" x1="-1184.667" y1="3269.547" x2="-1184.667" y2="2793.356"/>
<line fill="none" stroke="#787878" stroke-width="70" stroke-miterlimit="10" x1="-851.335" y1="3269.547" x2="-851.335" y2="2602.881"/>
<polygon fill="none" stroke="#787878" stroke-width="70" stroke-miterlimit="10" points="-2216.278,3143.891 -2216.278,3255.008 
	-3328.783,3255.008 -3328.783,2588.338 -2216.278,2588.338 -2216.278,2674.306 -2216.278,2699.452 -1995.454,2699.452 
	-1995.454,3143.891 "/>
<g>
	
		<line fill="none" stroke="#787878" stroke-width="70" stroke-miterlimit="10" x1="-3106.633" y1="2693.451" x2="-3106.633" y2="3143.886"/>
</g>
<g>
	
		<line fill="none" stroke="#787878" stroke-width="70" stroke-miterlimit="10" x1="-2884.34" y1="2693.451" x2="-2884.34" y2="3143.886"/>
</g>
<g>
	
		<line fill="none" stroke="#787878" stroke-width="70" stroke-miterlimit="10" x1="-2662.189" y1="2693.451" x2="-2662.189" y2="3143.886"/>
</g>
<g>
	
		<line fill="none" stroke="#787878" stroke-width="70" stroke-miterlimit="10" x1="-2439.897" y1="2693.451" x2="-2439.897" y2="3143.886"/>
</g>
<line fill="none" stroke="#787878" stroke-width="70" stroke-miterlimit="10" x1="-2216.278" y1="2699.452" x2="-2216.278" y2="3143.891"/>
<g>
	
		<line fill="none" stroke="#787878" stroke-width="70" stroke-miterlimit="10" x1="-3328.784" y1="3362.334" x2="-1995.454" y2="3362.334"/>
	
		<line fill="none" stroke="#787878" stroke-width="70" stroke-miterlimit="10" x1="-3328.784" y1="4028.999" x2="-1995.454" y2="4028.999"/>
	
		<line fill="none" stroke="#787878" stroke-width="70" stroke-miterlimit="10" x1="-3328.784" y1="3695.667" x2="-1995.454" y2="3695.667"/>
</g>
<g>
	<polyline fill="none" stroke="#787878" stroke-width="70" stroke-miterlimit="10" points="-3046.729,4818.354 -3268.952,4818.354 
		-3268.952,4596.131 	"/>
	<polyline fill="none" stroke="#787878" stroke-width="70" stroke-miterlimit="10" points="-2824.508,4818.36 -2602.285,4818.36 
		-2602.285,4596.133 	"/>
	<polyline fill="none" stroke="#787878" stroke-width="70" stroke-miterlimit="10" points="-2824.508,4151.69 -2602.285,4151.69 
		-2602.285,4373.916 	"/>
	<polyline fill="none" stroke="#787878" stroke-width="70" stroke-miterlimit="10" points="-3046.729,4151.69 -3268.951,4151.69 
		-3268.951,4373.916 	"/>
</g>
<polygon fill="none" stroke="#787878" stroke-width="70" stroke-miterlimit="10" points="-2537.292,5172.893 -2581.268,5060.939 
	-3029.127,5060.939 -3073.105,5172.893 -3128.103,5172.892 -3250.035,5172.892 -3250.035,5727.704 -2361.362,5727.704 
	-2361.362,5172.892 -2480.639,5172.892 "/>
<path fill="none" stroke="#787878" stroke-width="70" stroke-miterlimit="10" d="M-2666.82,5422.085
	c0,76.701-62.178,138.88-138.878,138.88c-76.701,0-138.879-62.179-138.879-138.88c0-76.697,62.178-138.877,138.879-138.877
	C-2728.998,5283.208-2666.82,5345.388-2666.82,5422.085z"/>
<circle fill="none" stroke="#787878" stroke-width="60" stroke-miterlimit="10" cx="-3549.241" cy="6171.434" r="333.333"/>
<g>
	<circle fill="none" stroke="#787878" stroke-width="60" stroke-miterlimit="10" cx="-2782.878" cy="6187.434" r="333.333"/>
	<circle fill="none" stroke="#787878" stroke-width="60" stroke-miterlimit="10" cx="-2782.878" cy="6187.434" r="166.665"/>
</g>
<text transform="matrix(1 0 0 1 -3824.0264 6269.3413)" fill="#787878" font-family="'MuseoSans-900'" font-size="280">REC</text>
<line fill="none" stroke="#333333" stroke-width="70" stroke-miterlimit="10" x1="-1855.324" y1="2588.338" x2="-1855.324" y2="2491.42"/>
<line fill="none" stroke="#333333" stroke-width="70" stroke-miterlimit="10" x1="-1521.992" y1="2588.338" x2="-1521.992" y2="2302.668"/>
<line fill="none" stroke="#333333" stroke-width="70" stroke-miterlimit="10" x1="-1188.658" y1="2588.338" x2="-1188.658" y2="2112.147"/>
<line fill="none" stroke="#333333" stroke-width="70" stroke-miterlimit="10" x1="-855.327" y1="2588.338" x2="-855.327" y2="1921.672"/>
<circle opacity="0.3" fill="none" stroke="#FFFFFF" stroke-width="1.209" stroke-linejoin="round" stroke-miterlimit="10" cx="48.623" cy="41.252" r="27.504"/>
<path opacity="0.3" fill="none" stroke="#FFFFFF" stroke-width="7.2539" stroke-miterlimit="10" d="M61.134,10.282
	c5.498,2.213,10.471,5.918,14.27,11.014c11.02,14.791,7.966,35.719-6.825,46.738s-35.715,7.965-46.738-6.826
	c-6.815-9.148-8.248-20.641-4.847-30.688c0.561-1.66,1.254-3.281,2.078-4.846"/>
<path opacity="0.3" fill="none" stroke="#FFFFFF" stroke-width="7.2539" stroke-miterlimit="10" stroke-dasharray="3.627,2.418" d="
	M28.667,14.471c2.888-2.15,6.005-3.766,9.242-4.861c5.391-1.828,11.101-2.211,16.577-1.236"/>
<path opacity="0.3" fill="none" stroke="#FFFFFF" stroke-width="7.2539" stroke-miterlimit="10" d="M14.989,34.737"/>
<path opacity="0.3" fill="none" stroke="#FFFFFF" stroke-width="2.3483" stroke-miterlimit="10" d="M9.045,46.772
	c-1.421-13.813,4.253-28.002,16.196-36.9c18.05-13.449,43.585-9.721,57.034,8.33c5.587,7.494,8.208,16.283,8.076,24.959"/>
<path opacity="0.3" fill="none" stroke="#FFFFFF" stroke-width="2.3483" stroke-miterlimit="10" stroke-dasharray="3.627,2.418" d="
	M88.311,55.301c-2.526,7.703-7.371,14.727-14.364,19.938c-18.05,13.449-43.586,9.721-57.038-8.33"/>
<path opacity="0.3" fill="none" stroke="#FFFFFF" stroke-width="2.3483" stroke-miterlimit="10" stroke-dasharray="1.209,2.418" d="
	M65.777,86.485c-18.964,6.996-41.026,1.068-53.716-15.965C-3.384,49.793,0.9,20.469,21.628,5.024"/>
<path opacity="0.3" fill="none" stroke="#FFFFFF" stroke-width="2.3483" stroke-miterlimit="10" d="M80.319,7.235
	c2.477,2.158,4.76,4.613,6.807,7.355c15.102,20.27,11.34,48.762-8.216,64.451c-0.445,0.354-0.893,0.703-1.351,1.045"/>
</svg>
