<?xml version="1.0" encoding="utf-8"?>
<!-- Generator: Adobe Illustrator 16.0.0, SVG Export Plug-In . SVG Version: 6.00 Build 0)  -->
<!DOCTYPE svg PUBLIC "-//W3C//DTD SVG 1.1//EN" "http://www.w3.org/Graphics/SVG/1.1/DTD/svg11.dtd">
<svg version="1.1" id="Layer_1" xmlns="http://www.w3.org/2000/svg" xmlns:xlink="http://www.w3.org/1999/xlink" x="0px" y="0px"
	 width="1200px" height="1200px" viewBox="0 0 1200 1200" enable-background="new 0 0 1200 1200" xml:space="preserve">
<path fill="#545555" d="M908.813,599.699c-2.03-79.836-34.658-154.579-91.873-210.464L842,363.578
	c63.938,62.449,100.401,145.982,102.669,235.21L908.813,599.699z M603.677,948.715c-188.084,0-341.102-153.019-341.102-341.103
	c0-188.085,153.018-341.103,341.185-341.103l0.632,0.001v35.867l-0.715-0.001c-168.307,0-305.235,136.928-305.235,305.236
	c0,168.308,136.928,305.233,305.235,305.233c68.492,0,133.206-22.159,187.149-64.082l22.009,28.318
	C752.541,923.943,680.216,948.715,603.677,948.715z"/>
</svg>
