<?xml version="1.0" encoding="utf-8"?>
<!-- Generator: Adobe Illustrator 16.0.0, SVG Export Plug-In . SVG Version: 6.00 Build 0)  -->
<!DOCTYPE svg PUBLIC "-//W3C//DTD SVG 1.1//EN" "http://www.w3.org/Graphics/SVG/1.1/DTD/svg11.dtd">
<svg version="1.1" id="Isolation_Mode" xmlns="http://www.w3.org/2000/svg" xmlns:xlink="http://www.w3.org/1999/xlink" x="0px"
	 y="0px" width="439px" height="138px" viewBox="0 0 439 138" enable-background="new 0 0 439 138" xml:space="preserve">
<g>
	<path fill="#FFFFFF" d="M249.743,82.91c-13.346,0-24.203-10.857-24.203-24.199v-4.427h22.869V42.843H225.54V32.36V21.843h-11.439
		v36.869c0,19.649,15.986,35.641,35.643,35.641c20.158,0,30.67-15.432,33.589-23.97h-12.591
		C267.946,75.25,261.659,82.91,249.743,82.91z"/>
	<path fill="#FFFFFF" d="M320.024,101.683h-11.672c1.857,14.013,13.85,24.819,28.355,24.819v-11.5
		C328.567,115.002,321.749,109.307,320.024,101.683z"/>
	<path fill="#FFFFFF" d="M419.298,82.571c-7.391-23.043-29.005-39.728-54.512-39.728c-25.5,0-47.113,16.685-54.506,39.728
		c-1.188,3.697-2.01,7.557-2.422,11.534h113.862C421.31,90.127,420.487,86.268,419.298,82.571z M322.458,82.571
		c6.875-16.605,23.239-28.29,42.328-28.29c19.092,0,35.455,11.684,42.328,28.29H322.458z"/>
	<path fill="#FFFFFF" d="M155.19,58.709c0,13.343-10.854,24.199-24.197,24.199c-13.343,0-24.198-10.856-24.198-24.199V44.86H95.355
		v13.849c0,19.651,15.985,35.64,35.638,35.64s35.64-15.989,35.64-35.64V44.86H155.19V58.709z"/>
	<path fill="#FFFFFF" d="M58.796,82.91c-13.347,0-24.203-10.857-24.203-24.199v-4.427h22.869V42.843H34.593V32.36V21.843H23.153
		v36.869c0,19.649,15.987,35.641,35.643,35.641c20.156,0,30.672-15.432,33.59-23.97H79.794C76.998,75.25,70.712,82.91,58.796,82.91z
		"/>
	<path fill="#FFFFFF" d="M171.888,76.857c0,6.485,0,16.877,0,16.877h11.44c0,0,0-10.392,0-16.877
		c0-11.712,9.396-23.188,23.189-23.188v-11.44C189.202,42.229,171.888,55.918,171.888,76.857z"/>
	<rect x="288.229" y="21.875" fill="#FFFFFF" width="11.438" height="72.23"/>
</g>
</svg>
