<?xml version="1.0" encoding="utf-8"?>
<!-- Generator: Adobe Illustrator 16.0.0, SVG Export Plug-In . SVG Version: 6.00 Build 0)  -->
<!DOCTYPE svg PUBLIC "-//W3C//DTD SVG 1.1//EN" "http://www.w3.org/Graphics/SVG/1.1/DTD/svg11.dtd">
<svg version="1.1" id="Layer_1" xmlns="http://www.w3.org/2000/svg" xmlns:xlink="http://www.w3.org/1999/xlink" x="0px" y="0px"
	 width="976px" height="1080px" viewBox="0 0 976 1080" enable-background="new 0 0 976 1080" xml:space="preserve">
<g>
	<path fill="none" stroke="#00FF00" stroke-width="15" stroke-miterlimit="10" d="M285.271,618.334l85.577,366.667h112V798.334
		h-35.129V370.651c0-19.354-15.69-35.044-35.044-35.044h-92.358c-19.355,0-35.045,15.69-35.045,35.044V618.334V621"/>
	<circle fill="none" stroke="#00FF00" stroke-width="15" stroke-miterlimit="10" cx="366.014" cy="416.5" r="11.5"/>
	<g>
		
			<line fill="none" stroke="#00FF00" stroke-width="15" stroke-miterlimit="10" x1="300.68" y1="683.355" x2="447.718" y2="683.355"/>
		
			<line fill="none" stroke="#00FF00" stroke-width="15" stroke-miterlimit="10" x1="317.634" y1="758.215" x2="447.718" y2="758.215"/>
		
			<line fill="none" stroke="#00FF00" stroke-width="15" stroke-miterlimit="10" x1="314.133" y1="720.785" x2="447.718" y2="720.785"/>
	</g>
</g>
<g>
	<g>
		
			<line fill="none" stroke="#00FF00" stroke-width="15" stroke-miterlimit="10" x1="706.717" y1="683.355" x2="559.68" y2="683.355"/>
		
			<line fill="none" stroke="#00FF00" stroke-width="15" stroke-miterlimit="10" x1="689.764" y1="758.215" x2="559.68" y2="758.215"/>
		
			<line fill="none" stroke="#00FF00" stroke-width="15" stroke-miterlimit="10" x1="693.265" y1="720.785" x2="559.68" y2="720.785"/>
	</g>
	<path fill="none" stroke="#00FF00" stroke-width="15" stroke-miterlimit="10" d="M721.944,618.334l-85.577,366.667h-112V798.334
		h35.129V370.651c0-19.354,15.69-35.044,35.044-35.044h92.358c19.355,0,35.045,15.69,35.045,35.044V618.334V621"/>
	<circle fill="none" stroke="#00FF00" stroke-width="15" stroke-miterlimit="10" cx="641.2" cy="416.5" r="11.5"/>
</g>
<line fill="none" stroke="#00FF00" stroke-width="15" stroke-miterlimit="10" x1="447.718" y1="618" x2="551.7" y2="618"/>
<path fill="none" stroke="#00FF00" stroke-width="15" stroke-miterlimit="10" d="M285.271,618H139.014V425.509
	c0-44.987,19.094-85.514,49.62-113.918l1.633-1.495L322.514,195h365.419l132.247,115.096l1.545,1.339
	c30.624,28.412,49.788,69.005,49.788,114.075V618h-149.57"/>
<rect x="322.514" y="162.5" fill="none" stroke="#00FF00" stroke-width="15" stroke-miterlimit="10" width="365.419" height="32.5"/>
</svg>
