<?xml version="1.0" encoding="utf-8"?>
<!-- Generator: Adobe Illustrator 16.0.0, SVG Export Plug-In . SVG Version: 6.00 Build 0)  -->
<!DOCTYPE svg PUBLIC "-//W3C//DTD SVG 1.1//EN" "http://www.w3.org/Graphics/SVG/1.1/DTD/svg11.dtd">
<svg version="1.1" id="Layer_1" xmlns="http://www.w3.org/2000/svg" xmlns:xlink="http://www.w3.org/1999/xlink" x="0px" y="0px"
	 width="983.803px" height="989.802px" viewBox="0 0 983.803 989.802" enable-background="new 0 0 983.803 989.802"
	 xml:space="preserve">
<path fill="none" stroke="#00FF00" stroke-width="15" stroke-miterlimit="10" d="M173.062,548.849l85.577,366.667h112V728.849
	h-35.129V301.167c0-19.354-15.69-35.044-35.044-35.044h-92.358c-19.355,0-35.045,15.69-35.045,35.044V548.849v2.667"/>
<circle fill="none" stroke="#00FF00" stroke-width="15" stroke-miterlimit="10" cx="253.805" cy="347.015" r="11.5"/>
<g>
	
		<line fill="none" stroke="#00FF00" stroke-width="15" stroke-miterlimit="10" x1="188.471" y1="613.871" x2="335.509" y2="613.871"/>
	<line fill="none" stroke="#00FF00" stroke-width="15" stroke-miterlimit="10" x1="205.425" y1="688.73" x2="335.509" y2="688.73"/>
	<line fill="none" stroke="#00FF00" stroke-width="15" stroke-miterlimit="10" x1="201.924" y1="651.3" x2="335.509" y2="651.3"/>
</g>
<g>
	
		<line fill="none" stroke="#00FF00" stroke-width="15" stroke-miterlimit="10" x1="834.508" y1="613.871" x2="687.471" y2="613.871"/>
	<line fill="none" stroke="#00FF00" stroke-width="15" stroke-miterlimit="10" x1="817.555" y1="688.73" x2="687.471" y2="688.73"/>
	<line fill="none" stroke="#00FF00" stroke-width="15" stroke-miterlimit="10" x1="821.056" y1="651.3" x2="687.471" y2="651.3"/>
</g>
<path fill="none" stroke="#00FF00" stroke-width="15" stroke-miterlimit="10" d="M849.735,548.849l-85.577,366.667h-112V728.849
	h35.129V301.167c0-19.354,15.69-35.044,35.044-35.044h92.358c19.355,0,35.045,15.69,35.045,35.044V548.849v2.667"/>
<circle fill="none" stroke="#00FF00" stroke-width="15" stroke-miterlimit="10" cx="768.991" cy="347.015" r="11.5"/>
<line fill="none" stroke="#00FF00" stroke-width="15" stroke-miterlimit="10" x1="339.509" y1="548.515" x2="687.288" y2="548.515"/>
<path fill="none" stroke="#00FF00" stroke-width="15" stroke-miterlimit="10" d="M177.062,548.515h-30.256V356.024
	c0-44.987,19.094-85.514,49.62-113.918l1.633-1.495l132.247-115.096h365.419l132.247,115.096l1.545,1.339
	c30.624,28.412,49.788,69.005,49.788,114.075v192.491h-29.57"/>
<rect x="330.305" y="93.015" fill="none" stroke="#00FF00" stroke-width="15" stroke-miterlimit="10" width="365.419" height="32.5"/>
</svg>
