<?xml version="1.0" encoding="utf-8"?>
<!-- Generator: Adobe Illustrator 16.0.0, SVG Export Plug-In . SVG Version: 6.00 Build 0)  -->
<!DOCTYPE svg PUBLIC "-//W3C//DTD SVG 1.1//EN" "http://www.w3.org/Graphics/SVG/1.1/DTD/svg11.dtd">
<svg version="1.1" id="Layer_7" xmlns="http://www.w3.org/2000/svg" xmlns:xlink="http://www.w3.org/1999/xlink" x="0px" y="0px"
	 width="958.5px" height="737px" viewBox="0 0 958.5 737" enable-background="new 0 0 958.5 737" xml:space="preserve">
<polyline fill="none" stroke="#22B14C" stroke-width="50" stroke-miterlimit="10" points="4041.283,-1258.427 4715.078,-584.632 
	5388.873,-1258.427 "/>
<g>
	<g>
		<g>
			<g>
				<polygon fill="none" stroke="#22B14C" stroke-width="10" stroke-miterlimit="10" points="3874.482,209.138 3815.985,209.138 
					3815.985,-221.439 3815.985,-356.938 3874.482,-356.938 				"/>
				<g>
					<g>
						<path fill="none" stroke="#22B14C" stroke-width="10" stroke-miterlimit="10" d="M3806.233-221.334c-6.627,0-12-5.372-12-12
							v-176c0-6.627,5.373-12,12-12h78c6.628,0,12,5.373,12,12v176c0,6.628-5.372,12-12,12"/>
						<path fill="none" stroke="#22B14C" stroke-width="10" stroke-miterlimit="10" d="M3766.459-299.584
							c-12.012,0-21.75-9.737-21.75-21.75c0-12.012,9.738-21.75,21.75-21.75"/>
						
							<rect x="3896.233" y="-363.834" fill="none" stroke="#22B14C" stroke-width="10" stroke-miterlimit="10" width="33.226" height="85"/>
						
							<rect x="3766.459" y="-363.834" fill="none" stroke="#22B14C" stroke-width="10" stroke-miterlimit="10" width="27.774" height="85"/>
						
							<rect x="3929.459" y="-344.667" fill="none" stroke="#22B14C" stroke-width="10" stroke-miterlimit="10" width="21" height="46.667"/>
					</g>
					
						<line fill="none" stroke="#22B14C" stroke-width="10" stroke-miterlimit="10" x1="3806.233" y1="-221.334" x2="3815.985" y2="-221.334"/>
					
						<line fill="none" stroke="#22B14C" stroke-width="10" stroke-miterlimit="10" x1="3884.233" y1="-221.334" x2="3874.482" y2="-221.334"/>
				</g>
				<g>
					<g>
						<path fill="none" stroke="#22B14C" stroke-width="10" stroke-miterlimit="10" d="M3806.233,73.532c-6.628,0-12,5.372-12,12
							v176.001c0,6.626,5.373,11.999,11.999,11.999h78c6.628,0,12.001-5.373,12-12l0.001-176c0-6.628-5.372-12-12-12"/>
						<path fill="none" stroke="#22B14C" stroke-width="10" stroke-miterlimit="10" d="M3766.459,151.782
							c-12.013,0-21.75,9.737-21.75,21.75s9.737,21.75,21.75,21.75"/>
						
							<rect x="3896.233" y="131.033" fill="none" stroke="#22B14C" stroke-width="10" stroke-miterlimit="10" width="33.225" height="84.999"/>
						
							<rect x="3766.459" y="131.033" fill="none" stroke="#22B14C" stroke-width="10" stroke-miterlimit="10" width="27.774" height="85"/>
						
							<rect x="3929.459" y="150.199" fill="none" stroke="#22B14C" stroke-width="10" stroke-miterlimit="10" width="20.999" height="46.666"/>
					</g>
					
						<line fill="none" stroke="#22B14C" stroke-width="10" stroke-miterlimit="10" x1="3806.233" y1="73.532" x2="3815.985" y2="73.532"/>
					
						<line fill="none" stroke="#22B14C" stroke-width="10" stroke-miterlimit="10" x1="3884.233" y1="73.532" x2="3874.481" y2="73.532"/>
				</g>
			</g>
			<g>
				<polygon fill="none" stroke="#22B14C" stroke-width="10" stroke-miterlimit="10" points="4333.263,209.138 4391.76,209.138 
					4391.76,-221.439 4391.76,-356.938 4333.263,-356.938 				"/>
				<g>
					<g>
						<path fill="none" stroke="#22B14C" stroke-width="10" stroke-miterlimit="10" d="M4401.511-221.334c6.628,0,12-5.372,12-12
							v-176c0-6.627-5.372-12-12-12h-78c-6.627,0-12,5.373-12,12v176c0,6.628,5.373,12,12,12"/>
						<path fill="none" stroke="#22B14C" stroke-width="10" stroke-miterlimit="10" d="M4441.285-299.584
							c12.013,0,21.75-9.737,21.75-21.75c0-12.012-9.737-21.75-21.75-21.75"/>
						
							<rect x="4278.285" y="-363.834" fill="none" stroke="#22B14C" stroke-width="10" stroke-miterlimit="10" width="33.226" height="85"/>
						
							<rect x="4413.511" y="-363.834" fill="none" stroke="#22B14C" stroke-width="10" stroke-miterlimit="10" width="27.774" height="85"/>
						
							<rect x="4257.285" y="-344.667" fill="none" stroke="#22B14C" stroke-width="10" stroke-miterlimit="10" width="21" height="46.667"/>
					</g>
					
						<line fill="none" stroke="#22B14C" stroke-width="10" stroke-miterlimit="10" x1="4401.511" y1="-221.334" x2="4391.76" y2="-221.334"/>
					
						<line fill="none" stroke="#22B14C" stroke-width="10" stroke-miterlimit="10" x1="4323.511" y1="-221.334" x2="4333.263" y2="-221.334"/>
				</g>
				<g>
					<g>
						<path fill="none" stroke="#22B14C" stroke-width="10" stroke-miterlimit="10" d="M4401.511,73.532c6.628,0,12,5.372,12,12
							v176.001c0,6.626-5.373,11.999-11.999,11.999h-78c-6.628,0-12.001-5.373-12-12l-0.001-176c0-6.628,5.372-12,12-12"/>
						<path fill="none" stroke="#22B14C" stroke-width="10" stroke-miterlimit="10" d="M4441.285,151.782
							c12.013,0,21.75,9.737,21.75,21.75s-9.737,21.75-21.75,21.75"/>
						
							<rect x="4278.286" y="131.033" fill="none" stroke="#22B14C" stroke-width="10" stroke-miterlimit="10" width="33.225" height="84.999"/>
						
							<rect x="4413.511" y="131.033" fill="none" stroke="#22B14C" stroke-width="10" stroke-miterlimit="10" width="27.774" height="85"/>
						
							<rect x="4257.286" y="150.199" fill="none" stroke="#22B14C" stroke-width="10" stroke-miterlimit="10" width="20.999" height="46.666"/>
					</g>
					
						<line fill="none" stroke="#22B14C" stroke-width="10" stroke-miterlimit="10" x1="4401.511" y1="73.532" x2="4391.759" y2="73.532"/>
					
						<line fill="none" stroke="#22B14C" stroke-width="10" stroke-miterlimit="10" x1="4323.511" y1="73.532" x2="4333.263" y2="73.532"/>
				</g>
			</g>
		</g>
		<g>
			<path fill="none" stroke="#22B14C" stroke-width="10" stroke-miterlimit="10" d="M4164.275,196.999h-125.379h-7.339
				c-83.743-66.512-134.62-154.018-134.62-249.899c0-95.887,66.154-183.388,149.897-249.899l1.222,0.415h94.831"/>
			<path fill="none" stroke="#22B14C" stroke-width="10" stroke-miterlimit="10" d="M4043.469,196.999h125.38h7.338
				c83.743-66.512,134.62-154.018,134.62-249.899c0-95.887-66.154-183.388-149.896-249.899l-1.223,0.415h-94.831"/>
		</g>
		<g>
			<path fill="none" stroke="#22B14C" stroke-width="10" stroke-miterlimit="10" d="M4032.428,193.89
				c-22.852-60.268-37.041-144.442-37.041-237.578c0-103.055,32.648-195.136,59.905-256.002"/>
			<path fill="none" stroke="#22B14C" stroke-width="10" stroke-miterlimit="10" d="M4173.106,193.89
				c22.851-60.268,37.04-144.442,37.04-237.578c0-103.055-32.647-195.136-59.904-256.002"/>
		</g>
		<g>
			
				<line fill="none" stroke="#22B14C" stroke-width="10" stroke-miterlimit="10" x1="3902.54" y1="-121.9" x2="3875.587" y2="-121.9"/>
			
				<line fill="none" stroke="#22B14C" stroke-width="10" stroke-miterlimit="10" x1="3902.54" y1="-25.9" x2="3875.587" y2="-25.9"/>
		</g>
		<g>
			
				<line fill="none" stroke="#22B14C" stroke-width="10" stroke-miterlimit="10" x1="4309.601" y1="-121.9" x2="4334.369" y2="-121.9"/>
			
				<line fill="none" stroke="#22B14C" stroke-width="10" stroke-miterlimit="10" x1="4309.601" y1="-25.9" x2="4334.369" y2="-25.9"/>
		</g>
	</g>
	<g>
		<path fill="none" stroke="#22B14C" stroke-width="10" stroke-miterlimit="10" d="M4024.899-215.303
			c15.268,33.166,24.803,71.458,26.641,112.51c2.965,66.216-14.657,127.071-45.544,171.935"/>
		<path fill="none" stroke="#22B14C" stroke-width="10" stroke-miterlimit="10" d="M4182.846-215.303
			c-15.268,33.166-24.803,71.458-26.641,112.51c-2.965,66.216,14.657,127.071,45.544,171.935"/>
	</g>
	<g>
		
			<line fill="none" stroke="#22B14C" stroke-width="10" stroke-miterlimit="10" x1="4004.121" y1="-127.318" x2="3926.932" y2="-162.094"/>
		
			<line fill="none" stroke="#22B14C" stroke-width="10" stroke-miterlimit="10" x1="4203.624" y1="-127.318" x2="4280.813" y2="-162.094"/>
	</g>
	<g>
		
			<line fill="none" stroke="#22B14C" stroke-width="10" stroke-miterlimit="10" x1="4203.623" y1="40.906" x2="4280.813" y2="75.682"/>
		
			<line fill="none" stroke="#22B14C" stroke-width="10" stroke-miterlimit="10" x1="4004.12" y1="40.906" x2="3926.932" y2="75.682"/>
	</g>
</g>
<path fill="none" stroke="#22B14C" stroke-width="15" stroke-miterlimit="10" d="M3450.514-603.516v-190.361
	c0-59.543,48.266-107.813,107.816-107.813h92.834c59.54,0,107.812,48.27,107.812,107.813v190.361H3450.514z"/>
<path fill="none" stroke="#22B14C" stroke-width="15" stroke-miterlimit="10" d="M3450.514-793.877L3328.647-1391
	c-9.828-32.506,8.557-66.826,41.063-76.652c32.507-9.829,66.825,8.558,76.653,41.064l165.101,524.898"/>
<line fill="none" stroke="#22B14C" stroke-width="15" stroke-miterlimit="10" x1="3336.63" y1="-1354.503" x2="2552.797" y2="-1024.266"/>
<line fill="none" stroke="#22B14C" stroke-width="15" stroke-miterlimit="10" x1="2533.761" y1="-1098.311" x2="3298.939" y2="-1421.817"/>
<line fill="none" stroke="#22B14C" stroke-width="15" stroke-miterlimit="10" x1="3258.548" y1="-1472.814" x2="2476.868" y2="-1142.333"/>
<line fill="none" stroke="#22B14C" stroke-width="15" stroke-miterlimit="10" x1="2434.95" y1="-1168.572" x2="3242.779" y2="-1510.109"/>
<rect x="2402.167" y="-721.697" fill="none" stroke="#22B14C" stroke-width="15" stroke-miterlimit="10" width="133" height="200.989"/>
<path fill="none" stroke="#22B14C" stroke-width="15" stroke-miterlimit="10" d="M3459.911-1383.521l205.426-24.232
	c6.768,4.371,14.822,6.919,23.477,6.919c23.934,0,43.334-19.401,43.334-43.334c0-23.932-19.4-43.333-43.334-43.333
	c-16.448,0-30.756,9.165-38.096,22.667l-135.556,1.557"/>
<path fill="none" stroke="#22B14C" stroke-width="15" stroke-miterlimit="10" d="M2448.036-1117.99
	c0,16.678-13.521,30.198-30.201,30.198c-16.675,0-30.196-13.521-30.196-30.198s13.521-30.198,30.196-30.198
	C2434.515-1148.188,2448.036-1134.668,2448.036-1117.99z"/>
<circle fill="none" stroke="#22B14C" stroke-width="15" stroke-miterlimit="10" cx="3689.481" cy="-1444.664" r="13.59"/>
<rect x="2422.167" y="-947.834" fill="none" stroke="#22B14C" stroke-width="15" stroke-miterlimit="10" width="93.846" height="226.137"/>
<rect x="2516.013" y="-878.834" fill="none" stroke="#22B14C" stroke-width="15" stroke-miterlimit="10" width="61.154" height="94"/>
<rect x="2402.167" y="-878.834" fill="none" stroke="#22B14C" stroke-width="15" stroke-miterlimit="10" width="21.341" height="94"/>
<path fill="none" stroke="#22B14C" stroke-width="15" stroke-miterlimit="10" d="M2519.163-1109.712l0.006-0.003l-100.096-71.51
	l-74.812,52.436l62.733,93.831v86.224h117.32v-31.363c20.543-13.541,34.107-36.806,34.107-63.248
	C2558.423-1071.944,2542.563-1096.831,2519.163-1109.712z"/>
<line fill="none" stroke="#22B14C" stroke-width="15" stroke-miterlimit="10" x1="3726.222" y1="-1434.148" x2="3879.45" y2="-844.766"/>
<line fill="none" stroke="#22B14C" stroke-width="15" stroke-miterlimit="10" x1="3682.583" y1="-1401.283" x2="3829.349" y2="-833.766"/>
<circle fill="none" stroke="#22B14C" stroke-width="15" stroke-miterlimit="10" cx="3857.548" cy="-824.076" r="30.199"/>
<line fill="none" stroke="#22B14C" stroke-width="15" stroke-miterlimit="10" x1="3822.859" y1="-854.273" x2="3732.147" y2="-865.038"/>
<line fill="none" stroke="#22B14C" stroke-width="15" stroke-miterlimit="10" x1="3850.167" y1="-793.877" x2="3757.966" y2="-758.834"/>
<path fill="none" stroke="#22B14C" stroke-width="15" stroke-miterlimit="10" d="M3500.811-1511.497l-226.253-25.919
	c-11.031-1.264-21.777,4.076-27.434,13.635c-5.654,9.557-5.161,21.545,1.26,30.605l73.429,103.644
	c6.481,9.148,17.561,13.371,28.119,11.406c2.593-0.482,5.157-1.34,7.614-2.588l152.82-77.724
	c11.074-5.632,17.146-17.856,14.942-30.082C3523.106-1500.745,3513.151-1510.082,3500.811-1511.497z"/>
<circle fill="none" stroke="#22B14C" stroke-width="15" stroke-miterlimit="10" cx="3273.167" cy="-1508.423" r="13.59"/>
<circle fill="none" stroke="#22B14C" stroke-width="15" stroke-miterlimit="10" cx="3495.165" cy="-1482.889" r="13.59"/>
<circle fill="none" stroke="#22B14C" stroke-width="15" stroke-miterlimit="10" cx="3345.576" cy="-1407.769" r="13.589"/>
<rect x="2350.167" y="-664.834" fill="none" stroke="#22B14C" stroke-width="15" stroke-miterlimit="10" width="52" height="86"/>
<rect x="2350.167" y="-878.834" fill="none" stroke="#22B14C" stroke-width="15" stroke-miterlimit="10" width="17" height="214"/>
<rect x="2367.167" y="-857.834" fill="none" stroke="#22B14C" stroke-width="15" stroke-miterlimit="10" width="35" height="52"/>
<circle fill="none" stroke="#22B14C" stroke-width="15" stroke-miterlimit="10" cx="3657.481" cy="-845.567" r="30.199"/>
<path fill="none" stroke="#22B14C" stroke-width="15" stroke-miterlimit="10" d="M3682.635-712.287
	c3.092,3.092,3.092,8.104,0,11.197l-38.254,38.253c-3.092,3.092-8.104,3.092-11.196,0L3525.422-770.6
	c-3.092-3.092-3.092-8.105,0-11.197l38.254-38.253c3.092-3.093,8.104-3.093,11.196,0L3682.635-712.287z"/>
<circle fill="none" stroke="#22B14C" stroke-width="30" stroke-miterlimit="10" cx="2916.35" cy="-2037.671" r="315.264"/>
<rect x="2784.336" y="-2169.683" fill="none" stroke="#22B14C" stroke-width="30" stroke-miterlimit="10" width="264.027" height="264.025"/>
<line fill="none" stroke="#787878" stroke-width="70" stroke-miterlimit="10" x1="1434.168" y1="-1756.286" x2="1434.168" y2="-1853.204"/>
<line fill="none" stroke="#787878" stroke-width="70" stroke-miterlimit="10" x1="1767.5" y1="-1756.286" x2="1767.5" y2="-2041.956"/>
<line fill="none" stroke="#787878" stroke-width="70" stroke-miterlimit="10" x1="2100.833" y1="-1756.286" x2="2100.833" y2="-2232.478"/>
<line fill="none" stroke="#787878" stroke-width="70" stroke-miterlimit="10" x1="2434.165" y1="-1756.286" x2="2434.165" y2="-2422.952"/>
<polygon fill="none" stroke="#787878" stroke-width="70" stroke-miterlimit="10" points="1069.222,-1881.942 1069.222,-1770.825 
	-43.283,-1770.825 -43.283,-2437.495 1069.222,-2437.495 1069.222,-2351.527 1069.222,-2326.382 1290.046,-2326.382 
	1290.046,-1881.942 "/>
<g>
	
		<line fill="none" stroke="#787878" stroke-width="70" stroke-miterlimit="10" x1="178.867" y1="-2332.383" x2="178.867" y2="-1881.947"/>
</g>
<g>
	
		<line fill="none" stroke="#787878" stroke-width="70" stroke-miterlimit="10" x1="401.16" y1="-2332.383" x2="401.16" y2="-1881.947"/>
</g>
<g>
	
		<line fill="none" stroke="#787878" stroke-width="70" stroke-miterlimit="10" x1="623.311" y1="-2332.383" x2="623.311" y2="-1881.947"/>
</g>
<g>
	
		<line fill="none" stroke="#787878" stroke-width="70" stroke-miterlimit="10" x1="845.603" y1="-2332.383" x2="845.603" y2="-1881.947"/>
</g>
<line fill="none" stroke="#787878" stroke-width="70" stroke-miterlimit="10" x1="1069.222" y1="-2326.382" x2="1069.222" y2="-1881.942"/>
<g>
	
		<line fill="none" stroke="#787878" stroke-width="70" stroke-miterlimit="10" x1="-43.284" y1="-1663.499" x2="1290.046" y2="-1663.499"/>
	
		<line fill="none" stroke="#787878" stroke-width="70" stroke-miterlimit="10" x1="-43.284" y1="-996.835" x2="1290.046" y2="-996.835"/>
	
		<line fill="none" stroke="#787878" stroke-width="70" stroke-miterlimit="10" x1="-43.284" y1="-1330.166" x2="1290.046" y2="-1330.166"/>
</g>
<g>
	<polyline fill="none" stroke="#787878" stroke-width="70" stroke-miterlimit="10" points="238.771,-207.479 16.548,-207.479 
		16.548,-429.702 	"/>
	<polyline fill="none" stroke="#787878" stroke-width="70" stroke-miterlimit="10" points="460.992,-207.474 683.215,-207.474 
		683.215,-429.7 	"/>
	<polyline fill="none" stroke="#787878" stroke-width="70" stroke-miterlimit="10" points="460.992,-874.144 683.215,-874.144 
		683.215,-651.918 	"/>
	<polyline fill="none" stroke="#787878" stroke-width="70" stroke-miterlimit="10" points="238.771,-874.144 16.549,-874.144 
		16.549,-651.918 	"/>
</g>
<polygon fill="none" stroke="#787878" stroke-width="70" stroke-miterlimit="10" points="748.208,147.06 704.232,35.105 
	256.373,35.105 212.395,147.06 157.397,147.059 35.465,147.059 35.465,701.87 924.138,701.87 924.138,147.059 804.861,147.059 "/>
<path fill="none" stroke="#787878" stroke-width="70" stroke-miterlimit="10" d="M618.68,396.252
	c0,76.701-62.178,138.88-138.878,138.88c-76.701,0-138.879-62.179-138.879-138.88c0-76.697,62.178-138.877,138.879-138.877
	C556.502,257.375,618.68,319.555,618.68,396.252z"/>
<g>
	<circle fill="none" stroke="#787878" stroke-width="60" stroke-miterlimit="10" cx="494.622" cy="1145.601" r="333.333"/>
	<circle fill="none" stroke="#787878" stroke-width="60" stroke-miterlimit="10" cx="494.622" cy="1145.601" r="166.665"/>
</g>
</svg>
