<?xml version="1.0" encoding="utf-8"?>
<!-- Generator: Adobe Illustrator 16.0.0, SVG Export Plug-In . SVG Version: 6.00 Build 0)  -->
<!DOCTYPE svg PUBLIC "-//W3C//DTD SVG 1.1//EN" "http://www.w3.org/Graphics/SVG/1.1/DTD/svg11.dtd">
<svg version="1.1" id="Layer_1" xmlns="http://www.w3.org/2000/svg" xmlns:xlink="http://www.w3.org/1999/xlink" x="0px" y="0px"
	 width="812px" height="752px" viewBox="0 0 812 752" enable-background="new 0 0 812 752" xml:space="preserve">
<g>
	<g>
		<g>
			<g>
				<polygon fill="none" stroke="#00FF00" stroke-width="10" stroke-miterlimit="10" points="182.982,659.357 124.485,659.357 
					124.485,228.78 124.485,93.281 182.982,93.281 				"/>
				<g>
					<g>
						<path fill="none" stroke="#00FF00" stroke-width="10" stroke-miterlimit="10" d="M114.734,228.886c-6.627,0-12-5.372-12-12
							v-176c0-6.627,5.373-12,12-12h78c6.627,0,12,5.373,12,12v176c0,6.628-5.373,12-12,12"/>
						<path fill="none" stroke="#00FF00" stroke-width="10" stroke-miterlimit="10" d="M74.959,150.636
							c-12.012,0-21.75-9.737-21.75-21.75c0-12.012,9.738-21.75,21.75-21.75"/>
						
							<rect x="204.734" y="86.386" fill="none" stroke="#00FF00" stroke-width="10" stroke-miterlimit="10" width="33.226" height="85"/>
						
							<rect x="74.959" y="86.386" fill="none" stroke="#00FF00" stroke-width="10" stroke-miterlimit="10" width="27.774" height="85"/>
						
							<rect x="237.959" y="105.553" fill="none" stroke="#00FF00" stroke-width="10" stroke-miterlimit="10" width="21" height="46.667"/>
					</g>
					
						<line fill="none" stroke="#00FF00" stroke-width="10" stroke-miterlimit="10" x1="114.734" y1="228.886" x2="124.485" y2="228.886"/>
					
						<line fill="none" stroke="#00FF00" stroke-width="10" stroke-miterlimit="10" x1="192.734" y1="228.886" x2="182.982" y2="228.886"/>
				</g>
				<g>
					<g>
						<path fill="none" stroke="#00FF00" stroke-width="10" stroke-miterlimit="10" d="M114.734,523.752c-6.628,0-12,5.372-12,12
							v176.001c0,6.626,5.373,11.999,11.999,11.999h78c6.628,0,12.001-5.373,12-12l0.001-176c0-6.628-5.372-12-12-12"/>
						<path fill="none" stroke="#00FF00" stroke-width="10" stroke-miterlimit="10" d="M74.959,602.002
							c-12.013,0-21.75,9.737-21.75,21.75s9.737,21.75,21.75,21.75"/>
						
							<rect x="204.734" y="581.253" fill="none" stroke="#00FF00" stroke-width="10" stroke-miterlimit="10" width="33.225" height="84.999"/>
						
							<rect x="74.959" y="581.252" fill="none" stroke="#00FF00" stroke-width="10" stroke-miterlimit="10" width="27.774" height="85"/>
						
							<rect x="237.959" y="600.419" fill="none" stroke="#00FF00" stroke-width="10" stroke-miterlimit="10" width="20.999" height="46.666"/>
					</g>
					
						<line fill="none" stroke="#00FF00" stroke-width="10" stroke-miterlimit="10" x1="114.734" y1="523.752" x2="124.486" y2="523.752"/>
					
						<line fill="none" stroke="#00FF00" stroke-width="10" stroke-miterlimit="10" x1="192.734" y1="523.752" x2="182.982" y2="523.752"/>
				</g>
			</g>
			<g>
				<polygon fill="none" stroke="#00FF00" stroke-width="10" stroke-miterlimit="10" points="641.763,659.357 700.26,659.357 
					700.26,228.78 700.26,93.281 641.763,93.281 				"/>
				<g>
					<g>
						<path fill="none" stroke="#00FF00" stroke-width="10" stroke-miterlimit="10" d="M710.011,228.886c6.628,0,12-5.372,12-12
							v-176c0-6.627-5.372-12-12-12h-78c-6.627,0-12,5.373-12,12v176c0,6.628,5.373,12,12,12"/>
						<path fill="none" stroke="#00FF00" stroke-width="10" stroke-miterlimit="10" d="M749.785,150.636
							c12.013,0,21.75-9.737,21.75-21.75c0-12.012-9.737-21.75-21.75-21.75"/>
						
							<rect x="586.785" y="86.386" fill="none" stroke="#00FF00" stroke-width="10" stroke-miterlimit="10" width="33.226" height="85"/>
						
							<rect x="722.011" y="86.386" fill="none" stroke="#00FF00" stroke-width="10" stroke-miterlimit="10" width="27.774" height="85"/>
						
							<rect x="565.785" y="105.553" fill="none" stroke="#00FF00" stroke-width="10" stroke-miterlimit="10" width="21" height="46.667"/>
					</g>
					
						<line fill="none" stroke="#00FF00" stroke-width="10" stroke-miterlimit="10" x1="710.011" y1="228.886" x2="700.26" y2="228.886"/>
					
						<line fill="none" stroke="#00FF00" stroke-width="10" stroke-miterlimit="10" x1="632.011" y1="228.886" x2="641.763" y2="228.886"/>
				</g>
				<g>
					<g>
						<path fill="none" stroke="#00FF00" stroke-width="10" stroke-miterlimit="10" d="M710.011,523.752c6.628,0,12,5.372,12,12
							v176.001c0,6.626-5.373,11.999-11.999,11.999h-78c-6.628,0-12.001-5.373-12-12l-0.001-176c0-6.628,5.372-12,12-12"/>
						<path fill="none" stroke="#00FF00" stroke-width="10" stroke-miterlimit="10" d="M749.785,602.002
							c12.013,0,21.75,9.737,21.75,21.75s-9.737,21.75-21.75,21.75"/>
						
							<rect x="586.786" y="581.253" fill="none" stroke="#00FF00" stroke-width="10" stroke-miterlimit="10" width="33.225" height="84.999"/>
						
							<rect x="722.011" y="581.252" fill="none" stroke="#00FF00" stroke-width="10" stroke-miterlimit="10" width="27.774" height="85"/>
						
							<rect x="565.786" y="600.419" fill="none" stroke="#00FF00" stroke-width="10" stroke-miterlimit="10" width="20.999" height="46.666"/>
					</g>
					
						<line fill="none" stroke="#00FF00" stroke-width="10" stroke-miterlimit="10" x1="710.011" y1="523.752" x2="700.259" y2="523.752"/>
					
						<line fill="none" stroke="#00FF00" stroke-width="10" stroke-miterlimit="10" x1="632.011" y1="523.752" x2="641.763" y2="523.752"/>
				</g>
			</g>
		</g>
		<g>
			<path fill="none" stroke="#00FF00" stroke-width="10" stroke-miterlimit="10" d="M472.775,647.219H347.396h-7.339
				c-83.743-66.512-134.62-154.018-134.62-249.899c0-95.887,66.154-183.388,149.897-249.899l1.222,0.415h94.831"/>
			<path fill="none" stroke="#00FF00" stroke-width="10" stroke-miterlimit="10" d="M351.969,647.219h125.38h7.338
				c83.743-66.512,134.62-154.018,134.62-249.899c0-95.887-66.154-183.388-149.896-249.899l-1.223,0.415h-94.831"/>
		</g>
		<g>
			<path fill="none" stroke="#00FF00" stroke-width="10" stroke-miterlimit="10" d="M340.928,644.109
				c-22.852-60.268-37.041-144.442-37.041-237.578c0-103.055,32.648-195.136,59.905-256.002"/>
			<path fill="none" stroke="#00FF00" stroke-width="10" stroke-miterlimit="10" d="M481.606,644.109
				c22.851-60.268,37.04-144.442,37.04-237.578c0-103.055-32.647-195.136-59.904-256.002"/>
		</g>
		<g>
			
				<line fill="none" stroke="#00FF00" stroke-width="10" stroke-miterlimit="10" x1="211.04" y1="328.319" x2="184.087" y2="328.319"/>
			
				<line fill="none" stroke="#00FF00" stroke-width="10" stroke-miterlimit="10" x1="211.04" y1="424.319" x2="184.087" y2="424.319"/>
		</g>
		<g>
			
				<line fill="none" stroke="#00FF00" stroke-width="10" stroke-miterlimit="10" x1="618.101" y1="328.319" x2="642.869" y2="328.319"/>
			
				<line fill="none" stroke="#00FF00" stroke-width="10" stroke-miterlimit="10" x1="618.101" y1="424.319" x2="642.869" y2="424.319"/>
		</g>
	</g>
	<g>
		<path fill="none" stroke="#00FF00" stroke-width="10" stroke-miterlimit="10" d="M333.399,234.917
			c15.268,33.166,24.803,71.458,26.641,112.51c2.965,66.215-14.657,127.071-45.544,171.934"/>
		<path fill="none" stroke="#00FF00" stroke-width="10" stroke-miterlimit="10" d="M491.346,234.917
			c-15.268,33.166-24.803,71.458-26.641,112.51c-2.965,66.215,14.657,127.071,45.544,171.934"/>
	</g>
	<g>
		
			<line fill="none" stroke="#00FF00" stroke-width="10" stroke-miterlimit="10" x1="312.621" y1="322.901" x2="235.432" y2="288.126"/>
		
			<line fill="none" stroke="#00FF00" stroke-width="10" stroke-miterlimit="10" x1="512.124" y1="322.901" x2="589.313" y2="288.126"/>
	</g>
	<g>
		
			<line fill="none" stroke="#00FF00" stroke-width="10" stroke-miterlimit="10" x1="512.123" y1="491.126" x2="589.313" y2="525.901"/>
		
			<line fill="none" stroke="#00FF00" stroke-width="10" stroke-miterlimit="10" x1="312.62" y1="491.126" x2="235.432" y2="525.901"/>
	</g>
</g>
</svg>
