<?xml version="1.0" encoding="utf-8"?>
<!-- Generator: Adobe Illustrator 16.0.0, SVG Export Plug-In . SVG Version: 6.00 Build 0)  -->
<!DOCTYPE svg PUBLIC "-//W3C//DTD SVG 1.1//EN" "http://www.w3.org/Graphics/SVG/1.1/DTD/svg11.dtd">
<svg version="1.1" id="Layer_11" xmlns="http://www.w3.org/2000/svg" xmlns:xlink="http://www.w3.org/1999/xlink" x="0px" y="0px"
	 width="84px" height="84px" viewBox="0 0 84 84" enable-background="new 0 0 84 84" xml:space="preserve">
<line fill="none" stroke="#22B14C" stroke-width="10" stroke-miterlimit="10" x1="1218.019" y1="1445.363" x2="1218.019" y2="3000.912"/>
<line fill="none" stroke="#22B14C" stroke-width="10" stroke-miterlimit="10" x1="440.244" y1="2223.139" x2="1995.793" y2="2223.139"/>
<path fill="none" stroke="#00C800" stroke-width="45" stroke-miterlimit="10" d="M-328.11,2342.873"/>
<path opacity="0.25" fill="none" stroke="#00C800" stroke-width="10" stroke-miterlimit="10" d="M-328.109,2342.873"/>
<path opacity="0.25" fill="none" stroke="#00C800" stroke-width="10" stroke-miterlimit="10" d="M-1758.569,1176.212
	c0-429.554,348.222-777.774,777.774-777.774c429.553,0,777.774,348.221,777.774,777.774"/>
<path opacity="0.25" fill="none" stroke="#00C800" stroke-width="10" stroke-miterlimit="10" d="M-1671.485,1176.212
	c0-381.458,309.233-690.69,690.69-690.69c381.458,0,690.69,309.232,690.69,690.69"/>
<path opacity="0.25" fill="none" stroke="#00C800" stroke-width="10" stroke-miterlimit="10" d="M-1584.4,1176.212
	c0-333.362,270.244-603.605,603.605-603.605c333.362,0,603.605,270.243,603.605,603.605"/>
<path opacity="0.25" fill="none" stroke="#00C800" stroke-width="10" stroke-miterlimit="10" d="M-1497.315,1176.212
	c0-285.267,231.254-516.521,516.521-516.521c285.267,0,516.521,231.254,516.521,516.521"/>
<path opacity="0.25" fill="none" stroke="#00C800" stroke-width="10" stroke-miterlimit="10" d="M-1410.231,1176.212
	c0-237.171,192.265-429.437,429.437-429.437s429.437,192.266,429.437,429.437"/>
<path opacity="0.25" fill="none" stroke="#00C800" stroke-width="10" stroke-miterlimit="10" d="M-1326.14,1176.212
	c0-190.729,154.616-345.345,345.345-345.345s345.345,154.616,345.345,345.345"/>
<path opacity="0.25" fill="none" stroke="#00C800" stroke-width="10" stroke-miterlimit="10" d="M-1239.109,1176.212
	c0-142.663,115.651-258.315,258.315-258.315s258.315,115.652,258.315,258.315"/>
<path opacity="0.25" fill="none" stroke="#00C800" stroke-width="10" stroke-miterlimit="10" d="M-1148.977,1176.212
	c0-92.884,75.298-168.183,168.182-168.183c92.885,0,168.183,75.299,168.183,168.183"/>
<path opacity="0.25" fill="none" stroke="#00C800" stroke-width="10" stroke-miterlimit="10" d="M-1060.396,1176.212
	c0-43.962,35.639-79.602,79.601-79.602s79.602,35.64,79.602,79.602"/>
<path opacity="0.25" fill="none" stroke="#00C800" stroke-width="10" stroke-miterlimit="10" d="M-328.109,2342.873"/>
<circle fill="#22B14C" cx="42" cy="42" r="42"/>
</svg>
