<?xml version="1.0" encoding="utf-8"?>
<!-- Generator: Adobe Illustrator 16.0.0, SVG Export Plug-In . SVG Version: 6.00 Build 0)  -->
<!DOCTYPE svg PUBLIC "-//W3C//DTD SVG 1.1//EN" "http://www.w3.org/Graphics/SVG/1.1/DTD/svg11.dtd">
<svg version="1.1" id="Layer_7" xmlns="http://www.w3.org/2000/svg" xmlns:xlink="http://www.w3.org/1999/xlink" x="0px" y="0px"
	 width="728.666px" height="705px" viewBox="0 0 728.666 705" enable-background="new 0 0 728.666 705" xml:space="preserve">
<polyline fill="none" stroke="#22B14C" stroke-width="50" stroke-miterlimit="10" points="302.116,-831.593 975.911,-157.798 
	1649.706,-831.593 "/>
<g>
	<g>
		<g>
			<g>
				<polygon fill="none" stroke="#22B14C" stroke-width="10" stroke-miterlimit="10" points="135.315,635.972 76.818,635.972 
					76.818,205.395 76.818,69.896 135.315,69.896 				"/>
				<g>
					<g>
						<path fill="none" stroke="#22B14C" stroke-width="10" stroke-miterlimit="10" d="M67.066,205.5c-6.627,0-12-5.372-12-12v-176
							c0-6.627,5.373-12,12-12h78c6.628,0,12,5.373,12,12v176c0,6.628-5.372,12-12,12"/>
						<path fill="none" stroke="#22B14C" stroke-width="10" stroke-miterlimit="10" d="M27.292,127.25
							c-12.012,0-21.75-9.737-21.75-21.75c0-12.012,9.738-21.75,21.75-21.75"/>
						
							<rect x="157.066" y="63" fill="none" stroke="#22B14C" stroke-width="10" stroke-miterlimit="10" width="33.226" height="85"/>
						<rect x="27.292" y="63" fill="none" stroke="#22B14C" stroke-width="10" stroke-miterlimit="10" width="27.774" height="85"/>
						
							<rect x="190.292" y="82.167" fill="none" stroke="#22B14C" stroke-width="10" stroke-miterlimit="10" width="21" height="46.667"/>
					</g>
					<line fill="none" stroke="#22B14C" stroke-width="10" stroke-miterlimit="10" x1="67.066" y1="205.5" x2="76.818" y2="205.5"/>
					
						<line fill="none" stroke="#22B14C" stroke-width="10" stroke-miterlimit="10" x1="145.066" y1="205.5" x2="135.315" y2="205.5"/>
				</g>
				<g>
					<g>
						<path fill="none" stroke="#22B14C" stroke-width="10" stroke-miterlimit="10" d="M67.066,500.366c-6.628,0-12,5.372-12,12
							v176.001c0,6.626,5.373,11.999,11.999,11.999h78c6.628,0,12.001-5.373,12-12l0.001-176c0-6.628-5.372-12-12-12"/>
						<path fill="none" stroke="#22B14C" stroke-width="10" stroke-miterlimit="10" d="M27.292,578.616
							c-12.013,0-21.75,9.737-21.75,21.75s9.737,21.75,21.75,21.75"/>
						
							<rect x="157.066" y="557.867" fill="none" stroke="#22B14C" stroke-width="10" stroke-miterlimit="10" width="33.225" height="84.999"/>
						
							<rect x="27.292" y="557.867" fill="none" stroke="#22B14C" stroke-width="10" stroke-miterlimit="10" width="27.774" height="85"/>
						
							<rect x="190.292" y="577.033" fill="none" stroke="#22B14C" stroke-width="10" stroke-miterlimit="10" width="20.999" height="46.666"/>
					</g>
					
						<line fill="none" stroke="#22B14C" stroke-width="10" stroke-miterlimit="10" x1="67.066" y1="500.366" x2="76.818" y2="500.366"/>
					
						<line fill="none" stroke="#22B14C" stroke-width="10" stroke-miterlimit="10" x1="145.066" y1="500.366" x2="135.314" y2="500.366"/>
				</g>
			</g>
			<g>
				<polygon fill="none" stroke="#22B14C" stroke-width="10" stroke-miterlimit="10" points="594.096,635.972 652.593,635.972 
					652.593,205.395 652.593,69.896 594.096,69.896 				"/>
				<g>
					<g>
						<path fill="none" stroke="#22B14C" stroke-width="10" stroke-miterlimit="10" d="M662.344,205.5c6.628,0,12-5.372,12-12v-176
							c0-6.627-5.372-12-12-12h-78c-6.627,0-12,5.373-12,12v176c0,6.628,5.373,12,12,12"/>
						<path fill="none" stroke="#22B14C" stroke-width="10" stroke-miterlimit="10" d="M702.118,127.25
							c12.013,0,21.75-9.737,21.75-21.75c0-12.012-9.737-21.75-21.75-21.75"/>
						
							<rect x="539.118" y="63" fill="none" stroke="#22B14C" stroke-width="10" stroke-miterlimit="10" width="33.226" height="85"/>
						
							<rect x="674.344" y="63" fill="none" stroke="#22B14C" stroke-width="10" stroke-miterlimit="10" width="27.774" height="85"/>
						
							<rect x="518.118" y="82.167" fill="none" stroke="#22B14C" stroke-width="10" stroke-miterlimit="10" width="21" height="46.667"/>
					</g>
					
						<line fill="none" stroke="#22B14C" stroke-width="10" stroke-miterlimit="10" x1="662.344" y1="205.5" x2="652.593" y2="205.5"/>
					
						<line fill="none" stroke="#22B14C" stroke-width="10" stroke-miterlimit="10" x1="584.344" y1="205.5" x2="594.096" y2="205.5"/>
				</g>
				<g>
					<g>
						<path fill="none" stroke="#22B14C" stroke-width="10" stroke-miterlimit="10" d="M662.344,500.366c6.628,0,12,5.372,12,12
							v176.001c0,6.626-5.373,11.999-11.999,11.999h-78c-6.628,0-12.001-5.373-12-12l-0.001-176c0-6.628,5.372-12,12-12"/>
						<path fill="none" stroke="#22B14C" stroke-width="10" stroke-miterlimit="10" d="M702.118,578.616
							c12.013,0,21.75,9.737,21.75,21.75s-9.737,21.75-21.75,21.75"/>
						
							<rect x="539.119" y="557.867" fill="none" stroke="#22B14C" stroke-width="10" stroke-miterlimit="10" width="33.225" height="84.999"/>
						
							<rect x="674.344" y="557.867" fill="none" stroke="#22B14C" stroke-width="10" stroke-miterlimit="10" width="27.774" height="85"/>
						
							<rect x="518.119" y="577.033" fill="none" stroke="#22B14C" stroke-width="10" stroke-miterlimit="10" width="20.999" height="46.666"/>
					</g>
					
						<line fill="none" stroke="#22B14C" stroke-width="10" stroke-miterlimit="10" x1="662.344" y1="500.366" x2="652.592" y2="500.366"/>
					
						<line fill="none" stroke="#22B14C" stroke-width="10" stroke-miterlimit="10" x1="584.344" y1="500.366" x2="594.096" y2="500.366"/>
				</g>
			</g>
		</g>
		<g>
			<path fill="none" stroke="#22B14C" stroke-width="10" stroke-miterlimit="10" d="M425.108,623.833H299.729h-7.339
				c-83.743-66.512-134.62-154.018-134.62-249.899c0-95.887,66.154-183.388,149.897-249.899l1.222,0.415h94.831"/>
			<path fill="none" stroke="#22B14C" stroke-width="10" stroke-miterlimit="10" d="M304.302,623.833h125.38h7.338
				c83.743-66.512,134.62-154.018,134.62-249.899c0-95.887-66.154-183.388-149.896-249.899l-1.223,0.415h-94.831"/>
		</g>
		<g>
			<path fill="none" stroke="#22B14C" stroke-width="10" stroke-miterlimit="10" d="M293.261,620.724
				c-22.852-60.268-37.041-144.442-37.041-237.578c0-103.055,32.648-195.136,59.905-256.002"/>
			<path fill="none" stroke="#22B14C" stroke-width="10" stroke-miterlimit="10" d="M433.939,620.724
				c22.851-60.268,37.04-144.442,37.04-237.578c0-103.055-32.647-195.136-59.904-256.002"/>
		</g>
		<g>
			
				<line fill="none" stroke="#22B14C" stroke-width="10" stroke-miterlimit="10" x1="163.373" y1="304.934" x2="136.42" y2="304.934"/>
			
				<line fill="none" stroke="#22B14C" stroke-width="10" stroke-miterlimit="10" x1="163.373" y1="400.934" x2="136.42" y2="400.934"/>
		</g>
		<g>
			
				<line fill="none" stroke="#22B14C" stroke-width="10" stroke-miterlimit="10" x1="570.434" y1="304.934" x2="595.202" y2="304.934"/>
			
				<line fill="none" stroke="#22B14C" stroke-width="10" stroke-miterlimit="10" x1="570.434" y1="400.934" x2="595.202" y2="400.934"/>
		</g>
	</g>
	<g>
		<path fill="none" stroke="#22B14C" stroke-width="10" stroke-miterlimit="10" d="M285.732,211.531
			c15.268,33.166,24.803,71.458,26.641,112.51c2.965,66.216-14.657,127.071-45.544,171.935"/>
		<path fill="none" stroke="#22B14C" stroke-width="10" stroke-miterlimit="10" d="M443.679,211.531
			c-15.268,33.166-24.803,71.458-26.641,112.51c-2.965,66.216,14.657,127.071,45.544,171.935"/>
	</g>
	<g>
		
			<line fill="none" stroke="#22B14C" stroke-width="10" stroke-miterlimit="10" x1="264.954" y1="299.516" x2="187.765" y2="264.74"/>
		
			<line fill="none" stroke="#22B14C" stroke-width="10" stroke-miterlimit="10" x1="464.457" y1="299.516" x2="541.646" y2="264.74"/>
	</g>
	<g>
		
			<line fill="none" stroke="#22B14C" stroke-width="10" stroke-miterlimit="10" x1="464.456" y1="467.74" x2="541.646" y2="502.516"/>
		
			<line fill="none" stroke="#22B14C" stroke-width="10" stroke-miterlimit="10" x1="264.953" y1="467.74" x2="187.765" y2="502.516"/>
	</g>
</g>
</svg>
