<?xml version="1.0" encoding="utf-8"?>
<!-- Generator: Adobe Illustrator 16.0.0, SVG Export Plug-In . SVG Version: 6.00 Build 0)  -->
<!DOCTYPE svg PUBLIC "-//W3C//DTD SVG 1.1//EN" "http://www.w3.org/Graphics/SVG/1.1/DTD/svg11.dtd">
<svg version="1.1" id="Layer_11" xmlns="http://www.w3.org/2000/svg" xmlns:xlink="http://www.w3.org/1999/xlink" x="0px" y="0px"
	 width="1574.921px" height="786.236px" viewBox="0 0 1574.921 786.236" enable-background="new 0 0 1574.921 786.236"
	 xml:space="preserve">
<line fill="none" stroke="#22B14C" stroke-width="10" stroke-miterlimit="10" x1="2988.175" y1="1055.388" x2="2988.175" y2="2610.937"/>
<line fill="none" stroke="#22B14C" stroke-width="10" stroke-miterlimit="10" x1="2210.4" y1="1833.163" x2="3765.949" y2="1833.163"/>
<path fill="none" stroke="#00C800" stroke-width="45" stroke-miterlimit="10" d="M1442.046,1952.897"/>
<path opacity="0.25" fill="none" stroke="#00C800" stroke-width="10" stroke-miterlimit="10" d="M1442.047,1952.897"/>
<path opacity="0.25" fill="none" stroke="#00C800" stroke-width="10" stroke-miterlimit="10" d="M11.587,786.236
	c0-429.554,348.222-777.774,777.774-777.774c429.553,0,777.774,348.221,777.774,777.774"/>
<path opacity="0.25" fill="none" stroke="#00C800" stroke-width="10" stroke-miterlimit="10" d="M98.671,786.236
	c0-381.458,309.233-690.69,690.69-690.69c381.458,0,690.69,309.232,690.69,690.69"/>
<path opacity="0.25" fill="none" stroke="#00C800" stroke-width="10" stroke-miterlimit="10" d="M185.756,786.236
	c0-333.362,270.244-603.605,603.605-603.605c333.362,0,603.605,270.243,603.605,603.605"/>
<path opacity="0.25" fill="none" stroke="#00C800" stroke-width="10" stroke-miterlimit="10" d="M272.841,786.236
	c0-285.267,231.254-516.521,516.521-516.521c285.267,0,516.521,231.254,516.521,516.521"/>
<path opacity="0.25" fill="none" stroke="#00C800" stroke-width="10" stroke-miterlimit="10" d="M359.925,786.236
	c0-237.171,192.265-429.437,429.437-429.437s429.437,192.266,429.437,429.437"/>
<path opacity="0.25" fill="none" stroke="#00C800" stroke-width="10" stroke-miterlimit="10" d="M444.017,786.236
	c0-190.729,154.616-345.345,345.345-345.345s345.345,154.616,345.345,345.345"/>
<path opacity="0.25" fill="none" stroke="#00C800" stroke-width="10" stroke-miterlimit="10" d="M531.047,786.236
	c0-142.663,115.651-258.315,258.315-258.315s258.315,115.652,258.315,258.315"/>
<path opacity="0.25" fill="none" stroke="#00C800" stroke-width="10" stroke-miterlimit="10" d="M621.18,786.236
	c0-92.884,75.298-168.183,168.182-168.183c92.885,0,168.183,75.299,168.183,168.183"/>
<path opacity="0.25" fill="none" stroke="#00C800" stroke-width="10" stroke-miterlimit="10" d="M709.761,786.236
	c0-43.962,35.639-79.602,79.601-79.602s79.602,35.64,79.602,79.602"/>
<path opacity="0.25" fill="none" stroke="#00C800" stroke-width="10" stroke-miterlimit="10" d="M1442.047,1952.897"/>
<circle fill="#22B14C" cx="1812.156" cy="-347.976" r="42"/>
</svg>
